<svg version="1.1" viewBox="0 0 192.8 216.01" xmlns="http://www.w3.org/2000/svg">
 <path class="land" d="m95.2 128.78.69 2.09.8 1.68.64.91 1.07 1.47 1.85-.23.93-.4 1.55.4.42-.7.7-1.64 1.74-.11.15-.49 1.43-.01-.24 1.01 3.4-.02.05 1.77.57 1.09-.41 1.7.21 1.74.94 1.05-.15 3.37.69-.26 1.22.07 1.74-.42 1.28.17.3.88-.32 1.38.49 1.34-.42 1.07.24.99-5.84-.04-.13 9.16 1.89 2.38 1.83 1.82-5.15 1.19-6.79-.41-1.94-1.4-11.37.13-.42.21-1.67-1.32-1.82-.09-1.68.5-1.35.56-.26-1.83.39-2.55.97-2.65.15-1.24.91-2.59.67-1.17 1.61-1.87.9-1.27.29-2.11-.15-1.61-.84-1.01-.75-1.72-.69-1.69.15-.59.86-1.12-.85-2.72-.57-1.88-1.4-1.77.27-.54 1.16-.38.81.05.98-.34zm-10.91-.54-.71.3-.75-2.1 1.13-1.21.85-.47 1.05.96-1.02.59-.46.72z" fill="#fff" title="Angola"/>
 <path class="land" d="m41.5 85.4-1.92-.73-1.32.11-.98.71-1.26-.6-.49-.93-1.26-.62-.19-1.64.77-1.21-.07-.96 2.23-2.36.41-1.96.77-.7 1.36.38 1.17-.58.38-.74 2.18-1.28.53-.9 2.62-1.2 1.55-.41.7.55 1.79-.01-.22 1.4.38 1.31 1.58 1.87.08 1.38 3.24.65-.07 1.95-.61.86-1.37.26-.57 1.24-.96.32-2.46-.06-1.3-.22-.9.46-1.24-.21-4.87.13-.07 1.61z" fill="#fff" title="Burkina Faso"/>
 <path class="land" d="m131.69 124.93-.18-3.37-.71-1.26 1.71.22.86-1.59 1.49.18.16 1.1.6.63.03.91-.69.58-1.1 1.46-1.01 1.01z" fill="#fff" title="Burundi"/>
 <path class="land" d="m56.97 94.92-2.32.33-.69-1.94.13-6.46-.57-.58-.1-1.39-.98-.99-.85-.83.36-1.5.96-.32.57-1.24 1.37-.26.61-.86.94-.83 1.01-.01 2.14 1.64-.11.95.63 1.68-.55 1.14.29.76-1.36 1.75-.86.87-.53 1.77.07 1.79z" fill="#fff" title="Benin"/>
 <path class="land" d="m121.34 164.95.56.52.89 1.71 3.17 3.25 1.2.32.01 1.05.82 1.9 2.17.46 1.79 1.36-3.97 2.22-2.52 2.26-.93 2.03-.84 1.15-1.53.25-.49 1.47-.29.96-1.79.72-2.28-.15-1.34-.86-1.18-.38-1.37.72-.69 1.48-1.33.93-1.4 1.39-2.01.32-.62-1.09.26-1.9-1.67-2.93-.75-.46v-8.86l2.76-.11.08-10.57 2.09-.09 4.32-1.03 1.08 1.21 1.78-1.15.86-.01 1.58-.66.5.22z" fill="#fff" title="Botswana"/>
 <path class="land" d="m135.88 102.61-.17 3.26 1.12.37-.9.99-1.08.74-1.07 1.46-.59 1.29-.16 2.24-.65 1.06-.02 2.1-.81.78-.1 1.66-.39.21-.26 1.53.71 1.26.18 3.37.5 2.57-.28 1.46.56 1.62 1.63 1.57 1.51 3.55-1.1-.29-3.77.48-.75.33-.8 1.8.63 1.25-.5 3.35-.35 2.85.76.51 1.96 1.1.77-.51.24 3.08-2.15-.03-1.15-1.57-1.03-1.22-2.15-.4-.63-1.49-1.72.9-2.24-.4-.94-1.29-1.78-.26-1.31.07-.16-.88-.97-.07-1.28-.17-1.73.42-1.22-.07-.7.26.15-3.37-.93-1.05-.21-1.73.41-1.7-.56-1.09-.05-1.76-3.41.02.25-1.01-1.43.01-.15.49-1.74.11-.71 1.63-.42.71-1.55-.4-.92.4-1.86.22-1.07-1.47-.64-.91-.81-1.68-.69-2.09-8.27-.03-.99.33-.81-.05-1.16.38-.39-.87.71-.3.09-1.22.46-.72 1.02-.58.74.28.96-1.07 1.52.03.18.79 1.05.5 1.65-1.76 1.63-1.36.71-.89-.09-2.3 1.22-2.71 1.28-1.43 1.85-1.34.32-.89.07-1.02.46-.97-.15-1.58.35-2.47.55-1.74.84-1.49.16-1.68.25-1.95 1.1-1.42 1.5-.9 2.31.95 1.78 1.03 2.05.28 2.09.54.84-1.68.39-.22 1.27.28 3.13-1.39 1.1.59.91-.08.42-.68 1.04-.24 2.11.29 1.8.06.93-.29 1.69 2.31 1.26.33.75-.47 1.3.19 1.56-.59.67 1.19z" fill="#fff" title="Democratic Republic of Congo"/>
 <path class="land" d="m92.26 91.66 2.32-.22.52-.72.46.06.7.63 3.53-1.07 1.19-1.1 1.47-.99-.28-.99.79-.26 2.71.18 2.64-1.31 2.02-3.09 1.43-1.14 1.77-.49.32 1.22 1.62 1.77v1.15l-.45 1.18.18.87.97.81 2.14 1.24 1.53 1.13.03.92 1.88 1.46 1.17 1.21.71 1.68 2.1 1.11.45.89-.93.29-1.8-.06-2.11-.29-1.04.24-.42.68-.91.08-1.1-.59-3.13 1.39-1.27-.28-.39.22-.84 1.68-2.09-.54-2.05-.28-1.78-1.03-2.31-.95-1.5.9-1.1 1.42-.25 1.95-1.8-.16-1.9-.47-1.67 1.48-1.47 2.6-.3-.81-.12-1.27-1.28-.9-1.04-1.44-.24-1-1.32-1.46.22-.83-.28-1.18.22-2.17.67-.51z" fill="#fff" title="Central African Republic"/>
 <path class="land" d="m85.86 125.72-1.05-.96-.85.47-1.13 1.2-2.3-2.95 2.13-1.54-1.05-1.85.96-.7 1.89-.34.22-1.24 1.5 1.34 2.48.12.86-1.32.35-1.85-.31-2.18-1.32-1.64 1.21-3.23-.7-.55-2.08.22-.79-1.43.21-1.22 3.53.11 2.27.73 2.23.66.2-1.5 1.47-2.6 1.67-1.48 1.9.47 1.8.16-.16 1.68-.84 1.49-.55 1.74-.35 2.47.15 1.58-.46.97-.07 1.02-.32.89-1.85 1.34-1.28 1.43-1.22 2.71.09 2.3-.71.89-1.63 1.36-1.65 1.76-1.05-.5-.18-.79-1.52-.03-.96 1.07z" fill="#fff" title="Republic of Congo"/>
 <path class="land" d="m41.41 98.46-1.27.03-1.96-.55-1.79.03-3.33.49-1.94.81-2.78 1.02-.54-.07.21-2.3.27-.35-.08-1.11-1.19-1.17-.89-.19-.82-.77.61-1.24-.28-1.36.13-.82h.45l.16-1.23-.22-.54.27-.39 1.04-.34-.69-2.26-.65-1.16.23-.97.56-.21.36-.26.78.42 2.16.03.52-.83.48.06.81-.32.44 1.21.65-.36 1.16-.42 1.26.62.49.93 1.26.6.98-.71 1.32-.11 1.92.73.74 4.01-1.18 2.36-.73 3.17 1.21 2.41z" fill="#fff" title="Côte d'Ivoire"/>
 <path class="land" d="m86.09 106.07-.35-.15-1.66.36-1.71-.38-1.33.19-4.56-.07.41-2.2-1.1-1.84-1.28-.48-.57-1.25-.72-.4.04-.77.72-1.98 1.33-2.7.81-.03 1.67-1.64 1.07-.04 1.57 1.15 1.93-.95.26-1.16.63-1.14.43-1.42 1.5-1.16.57-1.97.59-.63.4-1.47.74-1.81 2.36-2.2.15-.95.31-.51-1.11-1.14.09-.9.79-.17 1.11 1.83.19 1.89-.1 1.89 1.52 2.57-1.56-.03-.79.2-1.28-.28-.61 1.33 1.65 1.65 1.22.48.4 1.17.88 1.93-.44.77-1.41 2.84-.67.51-.22 2.17.28 1.18-.22.83 1.32 1.46.24 1 1.04 1.44 1.28.9.12 1.27.3.81-.2 1.5-2.23-.66-2.27-.73z" fill="#fff" title="Cameroon"/>
 <path class="land" d="m170.22 76.72.66.88-.09 1.19-1.6.68 1.21.77-1.04 1.52-.62-.5-.67.2-1.57-.05-.05-.86-.21-.79.94-1.33.99-1.26 1.2.25z" fill="#fff" title="Djibouti"/>
 <path class="land" d="m83.07 45.08-9.61 5.75-8.12 5.85-3.95 1.32-3.11.29-.03-1.88-1.3-.48-1.75-.85-.66-1.39-9.46-6.55-9.46-6.65-10.55-7.53.06-.61v-.21l-.03-3.75 4.53-2.36 2.8-.49 2.29-.86 1.08-1.62 3.28-1.29.12-2.41 1.62-.29 1.27-1.21 3.67-.56.51-1.28-.74-.71-.97-3.53-.16-2.05-1.06-2.18 2.69-1.87 3.04-.6 1.77-1.43 2.7-1.05 4.75-.62 4.64-.29 1.41.52 2.64-1.37 3-.03 1.14.81 1.91-.21-.57 1.79.45 3.28-.66 2.82-1.73 1.88.25 2.53 2.29 1.98.03.81 1.72 1.33 1.2 5.86.91 2.84.15 1.48-.49 2.59.2 1.44-.36 1.72.25 1.97-1.12 1.29 1.66 2.26.11 1.32.99 1.71 1.31-.56 2.22 1.42z" fill="#fff" title="Algeria"/>
 <path class="land" d="m147.34 26.28-.79 1.29-.6 2.4-.76 1.64-.66.56-.93-1.02-1.27-1.42-2-4.57-.28.29 1.16 3.37 1.72 3.18 2.12 4.88 1.03 1.68.9 1.74 2.52 3.4-.56.53.09 1.97 3.27 2.71.49.62h-33.27v-22.41l-.84-2.58.72-2-.43-1.39 1.01-1.57 3.73-.05 2.7.86 2.78.97 1.3.5 2.16-1.03 1.15-.93 2.48-.27 1.99.41.77 1.62.65-1.07 2.24.77 2.19.19 1.38-.82z" fill="#fff" title="Egypt"/>
 <path class="land" d="m168.17 77.17-.96-.93-1.15-1.67-1.24-.92-.73-1-2.44-1.15-1.92-.03-.68-.61-1.64.68-1.7-1.31-.88 2.15-3.26-.6-.3-1.15 1.21-4.25.27-1.93.88-.9 2.07-.48 1.42-1.67 1.63 3.38.77 2.67 1.54 1.41 3.82 2.72 1.56 1.64 1.52 1.66.88.98 1.38.86-.85.7z" fill="#fff" title="Eritrea"/>
 <path class="land" d="m155.71 70.23 1.7 1.31 1.64-.68.68.61 1.92.03 2.44 1.15.73 1 1.24.92 1.15 1.67.96.93-.99 1.26-.94 1.33.21.79.05.86 1.57.05.67-.2.62.5-.61 1.01 1.04 1.56 1.03 1.36 1.07 1.01 9.17 3.34 2.36-.02-7.93 8.42-3.65.12-2.5 1.97-1.79.05-.77.88h-1.92l-1.13-.94-2.56 1.17-.83 1.16-1.87-.22-.62-.32-.66.07-.88-.02-3.55-2.38h-1.95l-.96-.91v-1.57l-1.46-.47-1.65-3.05-1.28-.65-.5-1.12-1.42-1.37-1.72-.2.96-1.61 1.48-.07.42-.86-.03-2.53.83-2.96 1.32-.8.29-1.16 1.2-2.17 1.69-1.42 1.14-2.81.45-2.47 3.26.6z" fill="#fff" title="Ethiopia"/>
 <path class="land" d="m80.53 123.48-2.88-2.82-1.86-2.3-1.7-2.88.09-.92.61-.9.68-2.02.57-2.07.95-.16 4.07.03-.02-3.35 1.33-.19 1.71.38 1.66-.36.35.15-.21 1.22.79 1.43 2.08-.22.7.55-1.21 3.23 1.32 1.64.31 2.18-.35 1.85-.86 1.32-2.48-.12-1.5-1.34-.22 1.24-1.89.34-.96.7 1.05 1.85z" fill="#fff" title="Gabon"/>
 <path class="land" d="m52.4 95.84-4.4 1.64-1.56.96-2.53.81-2.5-.79.13-1.11-1.21-2.41.73-3.17 1.18-2.36-.74-4.01-.39-2.13.07-1.61 4.87-.13 1.24.21.9-.46 1.3.22-.21.89 1.17 1.46v2.05l.27 2.22.7 1.03-.62 2.53.22 1.4.75 1.78z" fill="#fff" title="Ghana"/>
 <path class="land" d="m2.2 75.43.36-1.27 3.05-.09.64-.67.89-.05 1.1.71.87.01.93-.48.56.82-1.21.65-1.22-.05-1.2-.61-1.04.66-.5.03-.68.4z" fill="#fff" title="Gambia"/>
 <path class="land" d="m25.76 90.91-.79-.07-.57 1.13-.8-.01-.54-.6.18-1.13-1.17-1.72-.73.31-.6.07-.77.16.03-1.03-.45-.74.09-.82-.61-1.19-.78-1.01h-2.24l-.65.53-.78.06-.48.61-.32.79-1.5 1.24-1.23-1.67-1.09-1.11-.72-.36-.7-.57-.31-1.25-.41-.62-.82-.47 1.25-1.38.85.05.73-.48h.62l.44-.38-.24-.94.31-.3.05-.97 1.35.03 2.02.7.62-.07.21-.31 1.52.22.41-.16.16 1.05.45-.01.73-.38.46.1.78.72 1.2.23.77-.62.91-.38.67-.4.56.08.62.62.34.79 1.15 1.19-.58.73-.11.92.6-.28.35.34-.15.84.86.82-.56.21-.23.97.65 1.16.69 2.26-1.04.34-.27.39.22.54-.16 1.23z" fill="#fff" title="Guinea"/>
 <path class="land" d="m76.04 109.57-.53-.42.97-3.13 4.56.07.02 3.35-4.07-.03z" fill="#fff" title="Equatorial Guinea"/>
 <path class="land" d="m7 81.44-1.5-1.19-1.18-.18-.64-.81.01-.43-.85-.6-.18-.61 1.49-.47.93.09.75-.32 5.18.12-.05.97-.31.3.24.94-.44.38h-.62l-.73.48-.85-.05z" fill="#fff" title="Guinea-Bissau"/>
 <path class="land" d="m164.36 114.78 1.66 2.29-1.96 1.12-.69 1.16-1.06.2-.39 1.97-.9 1.12-.55 1.86-1.13.92-4.02-2.79-.2-1.62-10.16-5.67-.48-.31-.02-2.95.8-1.13 1.38-1.84 1.02-2.03-1.23-3.2-.33-1.4-1.33-1.94 1.72-1.67 1.9-1.84 1.46.47v1.57l.96.91h1.95l3.55 2.38.88.02.66-.07.62.32 1.87.22.83-1.16 2.56-1.17 1.13.94h1.92l-2.45 3.17z" fill="#fff" title="Kenya"/>
 <path class="land" d="m27.8 100.22-.74.02-2.89-1.33-2.54-2.13-2.39-1.53-1.89-1.81.67-.9.15-.81 1.26-1.53 1.31-1.31.6-.07.73-.31 1.17 1.72-.18 1.13.54.6.8.01.57-1.13.79.07-.13.82.28 1.36-.61 1.24.82.77.89.19 1.19 1.17.08 1.11-.27.35z" fill="#fff" title="Liberia"/>
 <path class="land" d="m130.67 196.75.98.96-.86 1.56-.48 1.05-1.56.5-.52 1.04-1 .32-2.1-2.49 1.49-2.03 1.52-1.25 1.31-.64z" fill="#fff" title="Lesotho"/>
 <path class="land" d="m91.06 46.93-1.98 1.12-1.58-1.66-4.43-1.31-1.23-1.91-2.22-1.42-1.31.56-.99-1.71-.11-1.32-1.66-2.26 1.12-1.29-.25-1.97.36-1.72-.2-1.44.49-2.59-.15-1.48-.91-2.84 1.37-.75.24-1.38-.3-1.35 1.93-1.26.86-1.05 1.37-.95.16-2.55 3.29 1.15 1.18-.29 2.34.56 3.72 1.47 1.31 2.92 2.52.64 3.95 1.36 2.99 1.61 1.37-.84 1.34-1.49-.65-2.51.88-1.6 2.02-1.55 1.93-.45 3.79.68.96 1.48 1.04.01.89.56 2.79.39.68 1.08-1.01 1.57.43 1.39-.72 2 .84 2.58v28.37l-3.22.01-.04 1.24-11.18-5.7-11.19-5.77z" fill="#fff" title="Libya"/>
 <path class="land" d="m45.53 15.31-.97-3.53-.16-2.05-1.06-2.18-1.22-.04-2.9-.75-2.67.24-1.69-1.46-2.06-.02-.89 2.11-1.87 3.51-2.08 1.39-2.81 1.53-1.8 2.24-.38 1.74-1.07 2.82.7 4.03-2.34 2.68-1.4.85-2.21 2.17-2.61.35-1.41 1.21-.05.04-1.78 3.2-1.86 1.14-1.02 1.91-.06 1.65-.75 1.79-.94.49-1.56 1.94-.96 2.15.18 1.02-.92 1.57-1.08.82-.13 1.39-.12 1.27.61-1 10.98.02-.53-4.35.69-1.55 2.62-.27-.09-7.86 9.21.17v-4.73l.06-.61v-.21l-.03-3.75 4.53-2.36 2.8-.49 2.29-.86 1.08-1.62 3.28-1.29.12-2.41 1.62-.29 1.27-1.21 3.67-.56.51-1.28z" fill="#fff" title="Morocco"/>
 <path class="land" d="m188.34 147.4.74 1.21.69 1.89.46 3.46.72 1.35-.28 1.38-.49.86-.96-1.7-.52.86.53 2.14-.25 1.24-.77.67-.18 2.48-1.1 3.42-1.38 4.09-1.74 5.67-1.07 4.21-1.27 3.55-2.28.73-2.45 1.31-1.61-.79-2.23-1.1-.77-1.62-.19-2.71-.98-2.42-.26-2.17.5-2.16 1.29-.52.01-.99 1.34-2.26.25-1.88-.65-1.4-.53-1.85-.22-2.7.98-1.63.37-1.85 1.4-.1 1.57-.6 1.03-.52 1.24-.04 1.59-1.65 2.31-1.78.84-1.44-.38-1.23 1.19.35 1.55-1.99.05-1.72.93-1.28z" fill="#fff" title="Madagascar"/>
 <path class="land" d="m15.3 71.22.94-.52.47-1.7.89-.07 1.96.8 1.58-.57 1.08.19.43-.64 11.25-.04.62-2.03-.49-.36-1.35-12.68-1.35-13.06 4.29-.05 9.46 6.65 9.46 6.55.66 1.39 1.75.85 1.3.48.03 1.88 3.11-.29.01 6.75-1.54 1.94-.24 1.79-2.49.45-3.82.25-1.04 1.03-1.8.11-1.79.01-.7-.55-1.55.41-2.62 1.2-.53.9-2.18 1.28-.38.74-1.17.58-1.36-.38-.77.7-.41 1.96-2.23 2.36.07.96-.77 1.21.19 1.64-1.16.42-.65.36-.44-1.21-.81.32-.48-.06-.52.83-2.16-.03-.78-.42-.36.26-.86-.82.15-.84-.35-.34-.6.28.11-.92.58-.73-1.15-1.19-.34-.79-.62-.62-.56-.08-.67.4-.91.38-.77.62-1.2-.23-.78-.72-.46-.1-.73.38-.45.01-.16-1.05.13-.89-.24-1.1-1.05-.81-.55-1.64z" fill="#fff" title="Mali"/>
 <path class="land" d="m15.3 71.22-1.85-1.98-1.7-2.13-1.86-.77-1.34-.85-1.57.03-1.36.63-1.4-.25-.96.93-.24-1.56.78-1.44.35-2.75-.31-2.91-.34-1.47.28-1.47-.72-1.42-1.48-1.28.61-1 10.98.02-.53-4.35.69-1.55 2.62-.27-.09-7.86 9.21.17v-4.73l10.55 7.53-4.29.05 1.35 13.06 1.35 12.68.49.36-.62 2.03-11.25.04-.43.64-1.08-.19-1.58.57-1.96-.8-.89.07-.47 1.7z" fill="#fff" title="Mauritania"/>
 <path class="land" d="m146.32 144.69-.78 2.16.78 3.72.98-.04 1.01.92 1.17 2.08.24 3.72-1.21.61-.86 2.01-1.83-1.79-.2-2.04.59-1.35-.17-1.15-1.1-.73-.78.26-1.61-1.38-1.47-.74.85-2.66.88-.99-.54-2.36.56-2.3.48-.77-.71-2.4-1.32-1.26 2.74.52.57.78.95 1.32z" fill="#fff" title="Malawi"/>
 <path class="land" d="m146.32 144.69 2.11-.23 3.37.8.74-.36 1.95-.07 1-.85 1.68.04 3.06-1.1 2.23-1.64.46 1.27-.12 2.83.35 2.5.11 4.48.49 1.4-.83 2.07-1.09 2.01-1.79 1.8-2.56 1.11-3.16 1.41-3.17 3.15-1.08.54-1.96 2.09-1.15.69-.24 2.12 1.33 2.25.55 1.76.04.9.49-.15-.08 2.96-.45 1.41.66.52-.42 1.27-1.17 1.09-2.31 1.04-3.37 1.66-1.23 1.15.24 1.3.71.21-.24 1.64-2.12-.02-.24-1.38-.42-1.39-.24-1.11.5-3.43-.73-2.17-1.34-4.26 2.95-3.41.74-2.15.43-.27.31-1.74-.45-.88.12-2.2.55-2.04-.01-3.69-1.45-.94-1.34-.21-.6-.72-1.3-.61-2.34.06-.18-1.08-.27-2.05 8.51-2.38 1.61 1.38.78-.26 1.1.73.17 1.15-.59 1.35.2 2.04 1.83 1.79.86-2.01 1.21-.61-.24-3.72-1.17-2.08-1.01-.92-.98.04-.78-3.72z" fill="#fff" title="Mozambique"/>
 <path class="land" d="m95.25 195.54-2.08-2.39-1.1-2.3-.62-3.03-.69-2.25-.94-4.72-.06-3.63-.36-1.64-1.09-1.24-1.45-2.47-1.47-3.57-.61-1.85-2.29-2.87-.17-2.25 1.35-.55 1.68-.5 1.82.09 1.67 1.32.42-.21 11.37-.12 1.94 1.4 6.79.41 5.15-1.19 2.3-.67 1.82.17 1.1.66.03.24-1.58.66-.86.01-1.78 1.15-1.08-1.21-4.32 1.03-2.09.09-.08 10.57-2.76.11v8.86l-.01 11.52-2.5 1.63-1.5.23-1.77-.6-1.26-.23-.47-1.36-1.11-.87z" fill="#fff" title="Namibia"/>
 <path class="land" d="m55.46 78.88.07-1.95-3.24-.65-.08-1.38-1.58-1.87-.38-1.31.22-1.4 1.8-.11 1.04-1.03 3.82-.25 2.49-.45.24-1.79 1.54-1.94-.01-6.75 3.95-1.32 8.12-5.85 9.61-5.75 4.43 1.31 1.58 1.66 1.98-1.12.69 4.67 1.05.78.05.95 1.16 1.02-.61 1.28-1.08 5.98-.14 3.79-3.58 2.74-1.21 3.8 1.17 1.06-.01 1.85 1.8.07-.28 1.34-.79.17-.09.9-.53.07-1.89-3.13-.66-.12-2.19 1.6-2.17-.83-1.51-.17-.81.4-1.65-.08-1.65 1.22-1.43.07-3.39-1.48-1.33.7-1.43-.05-1.05-1.08-2.82-1.07-3.01.34-.73.62-.39 1.65-.81 1.15-.19 2.54-2.14-1.64-1.01.01z" fill="#fff" title="Niger"/>
 <path class="land" d="m73.26 99.08-2.91 1-1.07-.14-1.08.62-2.24-.06-1.5-1.75-.92-2.02-1.99-1.84-2.11.03h-2.47l.16-4.53-.07-1.79.53-1.77.86-.87 1.36-1.75-.29-.76.55-1.14-.63-1.68.11-.95.19-2.54.81-1.15.39-1.65.73-.62 3.01-.34 2.82 1.07 1.05 1.08 1.43.05 1.33-.7 3.39 1.48 1.43-.07 1.65-1.22 1.65.08.81-.4 1.51.17 2.17.83 2.19-1.6.66.12 1.89 3.13.53-.07 1.11 1.14-.31.51-.15.95-2.36 2.2-.74 1.81-.4 1.47-.59.63-.57 1.97-1.5 1.16-.43 1.42-.63 1.14-.26 1.16-1.93.95-1.57-1.15-1.07.04-1.67 1.64-.81.03-1.33 2.7z" fill="#fff" title="Nigeria"/>
 <path class="land" d="m134.71 115.55 1.12 1.57-.17 1.64-.8.35-1.49-.18-.86 1.59-1.71-.22.26-1.53.39-.21.1-1.66.81-.78.68.29z" fill="#fff" title="Rwanda"/>
 <path class="land" d="m144.65 85.9-.39-.05.05-1.41-.34-.97-1.44-1.12-.34-2.05.34-2.1-1.3-.19-.19.63-1.69.15.68.83.24 1.71-1.54 1.56-1.4 2.04-1.44.29-2.36-1.65-1.06.58-.29.83-1.44.53-.1.58h-2.79l-.39-.58-2.02-.1-1.01.49-.77-.25-1.44-1.65-.48-.77-2.03.39-.77 1.31-.72 2.52-.96.53-.86.31-.23-.14-.97-.81-.18-.87.45-1.18v-1.15l-1.62-1.77-.32-1.22.03-.69-1.03-.83-.03-1.66-.58-1.1-.99.17.28-1.05.73-1.2-.32-1.18.92-.88-.58-.67.74-1.78 1.28-2.13 2.42.2-.14-11.61.04-1.24 3.22-.01v-5.96h33.27l.9 2.94-.61.54.41 3.06 1.03 3.52 1.06.73 1.54 1.08-1.42 1.67-2.07.48-.88.9-.27 1.93-1.21 4.25.3 1.15-.45 2.47-1.14 2.81-1.69 1.42-1.2 2.17-.29 1.16-1.32.8-.83 2.96z" fill="#fff" title="Sudan"/>
 <path class="land" d="m17.35 93.44-.76-.21-2.01-1.13-1.46-1.5-.49-1.03-.35-2.08 1.5-1.24.32-.79.48-.61.78-.06.65-.53h2.24l.78 1.01.61 1.19-.09.82.45.74-.03 1.03.77-.16-1.31 1.31-1.26 1.53-.15.81z" fill="#fff" title="Sierra Leone"/>
 <path class="land" d="m2.56 74.16-1.16-2.24-1.4-1.02 1.24-.55 1.36-2.03.66-1.49.96-.93 1.4.25 1.36-.63 1.57-.03 1.34.85 1.86.77 1.7 2.13 1.85 1.98.13 1.79.55 1.64 1.05.81.24 1.1-.13.89-.41.16-1.52-.22-.21.31-.62.07-2.02-.7-1.35-.03-5.18-.12-.75.32-.93-.09-1.49.47-.46-2.19 2.55.06.68-.4.5-.03 1.04-.66 1.2.61 1.22.05 1.21-.65-.56-.82-.93.48-.87-.01-1.1-.71-.89.05-.64.67z" fill="#fff" title="Senegal"/>
 <path class="land" d="m192.8 79.43-.07-.79-1.06.01-1.33.98-1.49.28-1.29.42-.89.06-1.6.1-1 .52-1.39.19-2.47.88-3.05.33-2.65.73-1.39-.01-1.26-1.19-.55-1.17-.91-.53-1.04 1.52-.61 1.01 1.04 1.56 1.03 1.36 1.07 1.01 9.17 3.34 2.36-.02-7.93 8.42-3.65.12-2.5 1.97-1.79.05-.77.88-2.45 3.17.03 10.15 1.66 2.29.63-.66.65-1.46 3.07-3.38 2.61-2.12 4.2-2.76 2.8-2.26 3.3-3.81 2.39-3.13 2.41-4.1 1.73-3.59 1.35-3.15.79-3.05.6-1.02-.01-1.5z" fill="#fff" title="Somalia"/>
 <path class="land" d="m144.65 85.9.03 2.2-.42.86-1.48.07-.96 1.61 1.72.2 1.42 1.37.5 1.12 1.28.65 1.65 3.05-1.9 1.84-1.72 1.67-1.73 1.28h-1.97l-2.26.65-1.78-.63-1.15.77-2.47-1.86-.67-1.19-1.56.59-1.3-.19-.75.47-1.26-.33-1.69-2.31-.45-.89-2.1-1.11-.71-1.68-1.17-1.21-1.88-1.46-.03-.92-1.53-1.13-1.91-1.1.86-.31.96-.53.72-2.52.77-1.31 2.03-.39.48.77 1.44 1.65.77.25 1.01-.49 2.02.1.39.58h2.79l.1-.58 1.44-.53.29-.83 1.06-.58 2.36 1.65 1.44-.29 1.4-2.04 1.54-1.56-.24-1.71-.68-.83 1.69-.15.19-.63 1.3.19-.34 2.1.34 2.05 1.44 1.12.34.97-.05 1.41z" fill="#fff" title="South Sudan"/>
 <path class="land" d="m139.35 189.74-.57 1.39-1.64.33-1.68-1.69-.02-1.08.76-1.17.27-.9.81-.22 1.41.57.42 1.39z" fill="#fff" title="Swaziland"/>
 <path class="land" d="m90.07 76.26.28-1.34-1.8-.07.01-1.85-1.17-1.06 1.21-3.8 3.58-2.74.14-3.79 1.08-5.98.61-1.28-1.16-1.02-.05-.95-1.05-.78-.69-4.67 2.83-1.66 11.19 5.77 11.18 5.7.14 11.61-2.42-.2-1.28 2.13-.74 1.78.58.67-.92.88.32 1.18-.73 1.2-.28 1.05.99-.17.58 1.1.03 1.66 1.03.83-.03.69-1.77.49-1.43 1.14-2.02 3.09-2.64 1.31-2.71-.18-.79.26.28.99-1.47.99-1.19 1.1-3.53 1.07-.7-.63-.46-.06-.52.72-2.32.22.44-.77-.88-1.93-.4-1.17-1.22-.48-1.65-1.65.61-1.33 1.28.28.79-.2 1.56.03-1.52-2.57.1-1.89-.19-1.89z" fill="#fff" title="Chad"/>
 <path class="land" d="m54.65 95.25-2.25.59-.63-.98-.75-1.78-.22-1.4.62-2.53-.7-1.03-.27-2.22v-2.05l-1.17-1.46.21-.89 2.46.06-.36 1.5.85.83.98.99.1 1.39.57.58-.13 6.46z" fill="#fff" title="Togo"/>
 <path class="land" d="m76.01 23.69-1.2-5.86-1.72-1.33-.03-.81-2.29-1.98-.25-2.53 1.73-1.88.66-2.82-.45-3.28.57-1.79 3.06-1.41 1.96.42-.08 1.77 2.38-1.29.2.67-1.41 1.71-.01 1.6.97.85-.37 2.96-1.85 1.71.53 1.83 1.45.06.71 1.59 1.07.52-.16 2.55-1.37.95-.86 1.05-1.93 1.26.3 1.35-.24 1.38z" fill="#fff" title="Tunisia"/>
 <path class="land" d="m144.48 115.03.48.31 10.16 5.67.2 1.62 4.02 2.79-1.29 3.45.16 1.59 1.8 1.02.08.73-.77 1.7.16.85-.18 1.35.98 1.76 1.16 2.79 1.02.62-2.23 1.64-3.06 1.1-1.68-.04-1 .85-1.95.07-.74.36-3.37-.8-2.11.23-.78-3.86-.95-1.32-.57-.78-2.74-.52-1.6-.85-1.78-.47-1.12-.48-1.17-.71-1.51-3.55-1.63-1.57-.56-1.62.28-1.46-.5-2.57 1.16-.13 1.01-1.01 1.1-1.46.69-.58-.03-.91-.6-.63-.16-1.1.8-.35.17-1.64-1.12-1.57.99-.34 3.07.04z" fill="#fff" title="Tanzania"/>
 <path class="land" d="m138.77 115.25-3.07-.04-.99.34-1.67.86-.68-.29.02-2.1.65-1.06.16-2.24.59-1.29 1.07-1.46 1.08-.74.9-.99-1.12-.37.17-3.26 1.15-.77 1.78.63 2.26-.65h1.97l1.73-1.28 1.33 1.94.33 1.4 1.23 3.2-1.02 2.03-1.38 1.84-.8 1.13.02 2.95z" fill="#fff" title="Uganda"/>
 <path class="land" d="m137.8 197.71-.55.46-1.19 1.63-.78 1.66-1.59 2.33-3.17 3.38-1.98 1.98-2.12 1.51-2.93 1.3-1.43.17-.36.93-1.7-.5-1.39.64-3.04-.65-1.7.41-1.16-.18-2.89 1.33-2.39.54-1.73 1.28-1.28.08-1.19-1.21-.95-.06-1.21-1.51-.13.47-.37-.91.02-1.96-.91-2.23.9-.6-.07-2.53-1.84-3.05-1.41-2.74v-.01l-2.01-4.15 1.34-1.57 1.11.87.47 1.36 1.26.23 1.76.6 1.51-.23 2.5-1.63v-11.52l.76.46 1.66 2.93-.26 1.89.63 1.1 2.01-.32 1.4-1.39 1.33-.93.69-1.48 1.37-.72 1.18.38 1.34.87 2.28.15 1.79-.72.28-.96.49-1.47 1.53-.25.84-1.15.93-2.03 2.52-2.26 3.97-2.22 1.14.03 1.36.51.94-.36 1.49.3 1.34 4.26.73 2.17-.5 3.43.24 1.11-1.42-.57-.81.22-.26.9-.77 1.17.03 1.08 1.67 1.7 1.64-.34.57-1.39 2.13.03-.7 2.28-.33 2.62-.73 1.43zm-7.13-.96-1.22-.98-1.31.65-1.52 1.25-1.5 2.03 2.1 2.48 1-.32.52-1.03 1.56-.5.48-1.05.86-1.56z" fill="#fff" title="South Africa"/>
 <path class="land" d="m141.28 138.21 1.32 1.26.71 2.4-.48.77-.56 2.3.54 2.36-.88.99-.85 2.66 1.47.74-8.51 2.38.27 2.05-2.13.4-1.59 1.15-.34 1.01-1.01.22-2.44 2.4-1.55 1.89-.95.07-.91-.34-3.13-.32-.5-.22-.03-.24-1.1-.66-1.82-.17-2.3.67-1.83-1.82-1.89-2.38.13-9.16 5.84.04-.24-.99.42-1.07-.49-1.33.32-1.38-.3-.88.97.07.16.88 1.31-.07 1.78.26.94 1.29 2.24.4 1.72-.9.63 1.49 2.15.4 1.03 1.22 1.15 1.57 2.15.03-.24-3.08-.77.51-1.96-1.1-.76-.51.35-2.85.5-3.35-.63-1.25.8-1.8.75-.33 3.77-.48 1.1.29 1.17.71 1.12.48 1.78.47z" fill="#fff" title="Zambia"/>
 <path class="land" d="m136.88 176-1.49-.3-.95.36-1.35-.51-1.14-.03-1.79-1.36-2.17-.46-.82-1.9-.01-1.05-1.2-.32-3.17-3.25-.89-1.71-.56-.52-1.08-2.35 3.13.32.91.34.95-.07 1.55-1.89 2.44-2.4 1.01-.22.34-1.01 1.59-1.15 2.13-.4.18 1.08 2.34-.06 1.3.61.6.72 1.34.21 1.45.94.01 3.69-.55 2.04-.12 2.2.45.88-.31 1.74-.43.27-.74 2.15z" fill="#fff" title="Zimbabwe"/>
</svg>
