<svg enable-background="new 0 0 1210.135 986.828" overflow="visible" version="1.1" viewBox="0 0 1210.1 986.83" xmlns="http://www.w3.org/2000/svg">
 <path d="m49.813 155.11c.254-1.083 1.341-1.333 1.337-2.674-2.797 2.92-4.077-1.591-4.011-5.35 1.227-.85 1.146 1.31 1.337 1.337 1.851.271 3.38-3.865 4.012-4.011 3.876-.891 6.097-.191 9.36 1.337-2.067 1.944-1.177 6.847-1.337 10.697-1.581 1.54-4.727 1.514-8.023 1.337 2.475-4.501-.345-.156-2.675-2.673z" fill="#fff"/>
 <path d="m-1 165.81c3.417-.149 2.653-4.479 2.674-8.023.516-.696 6.495-1.979 2.674-2.674-.225-2.9 4.743-.606 6.687-1.337v5.349c-1.958 3.104-4.238-2.611-4.013 2.674-.815-.075-1.583-.199-1.337-1.337-1.351.06-.312 13.4-6.686 8.023.001-.893.001-1.784.001-2.675z" fill="#fff"/>
 <path d="m111.32 363.71c3.128 2.783-2.854 7.767-4.011 10.696-7.008-1.271-6.077-3.104-6.686-9.359 2.273.49 2.522-1.043 2.674-2.676h6.686c-.377 2.39 1.264 2.745 1.337 1.339z" fill="#fff"/>
 <path d="m345.33 403.82c.159-1.847 4.877-.866 4.012 0-.06.06-1.254.047-1.337 0-.065-.037.563 2.306 1.337 1.337 1.902-2.378 3.194 3.424 4.011 8.023-1.533-1.605-3.389-.521-1.337 0-2.024 4.044-5.869-1.108-9.36 0-.163-3.402-1.945-5.187-5.349-5.349-.246-1.138.521-1.262 1.337-1.338.033-1.884-1.7-.284-1.337 0-4.652-3.645-3.086-8.906-4.011-17.383h5.349c-.172 2.543.396 3.872 1.337 5.35.289.452.896 3.649 1.337 4.011.146.119 2.228.448 1.337 1.337-.04.04-1.313.035-1.337 0 1.028 1.499 7.341.17 4.011 4.012z" fill="#fff"/>
 <path d="m171.49 402.49c2.122-1.58 3.019 3.667 4.012 2.674 1.839-1.839.573-.096 4.011 1.337-.452 4.729-.077 6.89-1.337 8.022-2.389.377-2.744-1.264-1.337-1.337-.163-2.298-3.679-.471-5.349-1.337.097.05-1.285-4.693-4.012-4.012 1.334-1.784 3.615-2.624 4.012-5.347z" fill="#fff"/>
 <path d="m520.49 770.21c-1.359.868-1.383 3.074-4.012 2.675.548-4.61-.662-.755-4.011-1.337-.21-.036.202-2.48 0-2.676-.11-.104-3.35 1.816-4.012 0-.1-5.694-2.237-9.352-1.338-16.046-.218-1.555.295-2.379 1.338-2.674-2.975-2.455-4.403-5.498-2.675-9.36h8.023c-.464 1.413 2.554 2.103 2.674 2.676.165.781-1.051 1.857-1.337 1.337.814 1.48 1.622.285 2.674 1.337-.347-.348 1.531 3.683 1.337 2.675.242 1.255-1.251 2.931-1.337 2.674.451 1.352 3.949 1.948 1.337 2.675.98 1.248 2.433 2.025 4.013 2.675-1.494 1.646-1.165 2.745 1.337 2.675v10.697c-4.346-4.207.042 4.494-4.011-.003z" fill="#fff"/>
 <path d="m836.06 986.83v-1.337c-3.938.107-5.533-4.02-6.686-5.349-4.237-4.889-13.795 2.008-18.722-1.337.346 3.525-5.228 3.595-8.021 4.012-5.783.862-13.146-.646-18.721 0-.296-1.043-1.12-1.555-2.675-1.338 2.395-4.56-.071-.685-1.338-1.337-.659-.34.251-3.195-1.337-2.674-.548 2.278-1.725-.281-4.012 0-.136-1.5 1.943-2.082 0-2.675-.648 2.381-1.426-.579-2.674-1.337-1.34 4.126-2.205-2.9-4.013-2.676-1.521 2.768-5.51.967-8.022 1.339-2.497.368-4.467 2.421-6.687 1.337-2.575-2.477-1.056-2.449-5.349-1.337-.136-1.5 1.943-2.082 0-2.676-.076 1.004-.199 1.337-1.337 1.337-1.034 0-1.299-1.333-1.337-1.337-2.019-.221-4.676-.269-6.688 0-1.446.193-.637.954-1.337 1.337-2.479 1.356-6.511 2.225-9.359 2.676-6.784 1.072-13.266-.786-21.396 0-.295-1.042-1.12-1.556-2.674-1.337 2.859-4.537-.743-.72-1.338-1.339-.764-.794-.712-3.192-1.337-4.011-.54-.707-1.986-1.963-2.674-2.675-.933-.965-3.003-.421-4.013-1.337-.399-.363.234-2.155 0-2.675-.052-.113-2.498-1.254-2.675-1.337.12.057-1.318 2.11-2.674 1.337-1.065-.608.521-2.479-1.337-2.675-.185-.02-1.209 2.403-2.675 1.338-.137-1.5 1.942-2.082 0-2.676-.295 1.043-1.12 1.556-2.676 1.338 2.688-4.658-.591.112-1.337-2.675.108-2.48-1.994.309-2.674 0-.666-.301-2.236-3.291-2.675-4.012-.595-.977-.604-1.883-1.337-2.674.809-7.94-.923-13.34-2.675-18.722 1.19-.782 7.628-2.81 4.012-4.011.005.742-1.083 1.519-1.337 0 1.681-.549 2.732-1.725 2.674-4.012 2.725-.397 3.563-2.679 5.35-4.012 3.847-1.502 7.889-2.811 10.697-5.35 1.766-3.347-5.287-4.186-1.338-5.349 2.273-2.63 4.104-5.704 8.023-6.687 2.686-4.658-.591.112-1.337-2.675 2.79-2.527.88-6.693 1.337-9.359.276-1.62.726-3.035 1.337-5.35.389-1.468.537-3.375 1.337-5.349.479-1.179 3.841.666 1.338-1.337-.732-.585 2.788-2.104 2.674-2.674-.024-.128-2.245-.206-1.337-1.338 1.521-1.895 4.788-4.647 5.349-5.35.582-.728 1.854 1.222 1.338 1.338 1.487-.335 2.091-1.443 2.675-2.675-2.489-.65-2.049-3.929-2.675-5.349-.332-.753-2.941-2.678-2.675-4.013-.014.064 2.127-1.225 0-1.337-3.199-.169-3.138-7.667-1.338-8.022-4.415-.247-3.879-6.838-4.011-9.359-.061-1.151-1.282-1.09-1.338-1.338-.281-1.274.278-2.734 0-4.011-.248-1.143-1.284-1.729-1.337-2.675-.107-1.938 1.678-3.924 0-4.013-2.209-.116-2.228-8.522-2.674-9.359-.351-.652-2.948-2.792-4.013-4.012-1.103-1.265-2.514-5.398-4.012-2.675 1.5.283 2.082 1.484 2.675 2.675-1.961-1.869-7.604-5.622-8.022-6.687-.331-.839 1.679-2.293 1.337-2.674-.579-.646-3.341-.825-4.013-1.337-1.193-.914-6.703-6.992-6.686-6.688-.055-.884 1.811.072 0-1.337.599.466-.643 1.478-1.337 1.337-.897-.179-.749-3.301-1.337-4.011-.564-.681-2.303 1.712-2.675 1.337-.873-.882 1.358-1.42 1.337-1.337.415-1.575-6.39-7.479-5.35-4.012 1.501.281 2.082 1.482 2.676 2.674-2.345-1.223-4.646-2.485-4.013-6.687 5.33.428 9.88.073 12.034-2.674.137 1.5-1.943 2.081 0 2.674.018-2.656 3.648-1.699 2.675-5.349 2.932-.425 6.053-1.316 2.674-2.675.262.104-1.288 2.027-1.337 0 2.527-2.202 4.764-1.88 6.688-5.35-.297.535-1.491-.568-1.338-1.337.021-.103 1.105-.467 1.338-1.337 1.354-5.107-.149-7.245 1.337-10.697-3.596.922-2.585-2.765-4.012-4.012-.197-7.718-6.332-15.49-4.013-21.395-5.392-.046-3.31-6.201-4.012-9.36-.042-.192-1.098-.38-1.337-1.337-.479-1.91-.502-2.702-1.337-4.012-.768-1.202-1.244-2.237-1.337-4.013-.044-.83-1.349-1.506-1.338-1.337-.048-.817 1.569-2.27 1.338-2.674-.273-.474-3.199-3.199-5.35-5.349-3.929-3.93-7.427-7.427-10.696-10.697-1.903-1.903-4.252-4.569-5.35-5.35-1.617-1.148-2.459.102-4.012-1.337.646.599 1.241-2.538-1.337-2.675-4.247-.224-5.722-7.547-8.023-8.022-.548 2.28-1.725-.281-4.012 0 3.155-4.864-1.854.152-4.012-2.674-1.146-1.503 2.181-1.256 0-2.676.68.442-2.513.866-4.012 0-2.376-1.371-.242-5.714-2.675-2.674-.778.976-1.347-1.345-1.337-1.338-1.646-1.273-1.436-2.576-2.675-1.337-.817.818-2.534-2.396-4.011-1.337 2.415-4.188-.41-.689-4.013-2.675 2.33-4.604.024-.635-1.337-1.337-1.047-.539.522-2.534-1.338-2.674-.035-.004.06 1.278 0 1.337-1.426 1.427-2.385-3.65-2.674-4.013-.324-.403-2.081.711-1.337 1.337-2.559-2.153-2.225-2.812-4.011-4.011-.548 2.279-1.726-.281-4.013 0 .42-1.555 1.739-3.077 0-1.338-1.4 1.401-3.292-4.45-4.012-5.349-2.859-3.566-6.595-4.434-9.359-6.687-1.816-1.479-2.761-3.686-4.013-5.349.743.004 1.519-1.083 0-1.337-.756 3.197-3.819-3.238-1.337-4.013-4.908.006-5.124-4.682-8.022-6.686-1.717 3.735-5.337-1.641-6.687-2.675-.295 1.042-1.12 1.555-2.674 1.337-.136-1.5 1.944-2.081 0-2.674-1.339 4.126-2.204-2.9-4.011-2.675-.58 2.895-3.27-1.069-4.013-1.338-6.229-2.241-11.696-.569-17.383 0 .111 2.829 1.849 4.588 2.674 5.35.228.209-.195 1.093 0 1.337.491.613 3.329-2.463 4.013 0-.238 3.039 4.517 7.793 5.349 5.349-1.188-.394-5.854-3.617-2.674-4.011 3.173 3.919 6.746 7.834 9.359 10.697 1.114 1.22 3.612 1.934 4.012 4.011.176 3.297.203 6.443-1.337 8.023 2.857-.198 2.523 1.361 2.674 4.012.182 3.208 3.709 6.704 1.337 8.021 5.999 2.024 9.211 6.835 12.035 12.035 4.694-.238 4.397 4.518 8.022 5.35 1.824 1.803 2.55 9.335-1.337 9.358-4.159-7.875-11.065-13.003-17.383-18.72.004-.742-1.083-1.518-1.337 0 5.908 4.789 11.256 10.138 16.046 16.046-5.561-5.565-13.696-11.683-18.72-17.383-.979-1.11-.436-2.721-1.337-4.012-2.13-3.05-4.07-1.494-5.35-1.337-2.136.262-6.578-4.38-6.686-1.339 3.265 1.44-2.473 4.238-2.674 5.35.104-.579 1.25 1.945 1.337 2.675.607 5.069-.461 9.02 0 13.371-5.858-.975 1.077 2.657-2.675 2.675-1.428-4.552-.416 3.721-4.012 1.337-2.06-1.165-4.826-8.402-6.686-5.349.743-.004 1.518 1.083 0 1.337-.696-1.979-1.979-3.369-2.674-5.35v-8.021c-1.926.714-3.264-5.211-4.011-1.337 3.338.925-2.481 3.565-1.337 6.686-2.938 1.52-4.442 4.473-8.023 5.35-.299 1.038-.037 2.638-1.337 2.674-.814 3.197 1.678 9.702-1.337 10.697.634-6.346-1.667-1.48-4.011-4.012-.229 2 .478 4.936-1.337 5.35-.069 3.979 3.934 6.784 1.337 9.359 2.3-.071 3.428 1.029 4.011 2.675-4.552 1.427 3.721.416 1.337 4.012-2.875 2.716-7.531-.327-9.36-2.675-1.854 3.05-9.308.499-13.372 1.338v12.034c-1.5-.137-2.082 1.942-2.674 0-1.768.016-1.222 2.344-2.674 2.674-3.417-1.022-6.148-1.971-8.023 1.338 3.113.502-1.548 1.619-1.337 2.674.046.229 2.173.082 1.337 1.337-1.71 1.856-6.313.818-8.022 2.675.779 4.744 3.3 12.775 1.337 16.046 4.711.446 7.665 7.405 5.349 10.697 6.223.38-2.078 2.425 2.674 2.675 1.894.101 1.516 3.121 2.675 4.012-2.187-.975-5.816 2.656-2.675 2.675-.004-.742 1.084-1.519 1.338 0-1.569 1.997-5.558 1.575-5.35 5.349-.55.342-2.229-.445-2.674 0-.69.689 1.234 1.783 1.337 1.337-.315 1.37-1.631 3.376 0 1.337.585-.73 2.104 2.789 2.674 2.676.23-.047.082-2.174 1.337-1.338-4.263 3.226 8.056 5.31 4.012 8.022-.32-1.452-2.202-3.21-2.675-1.337 1.981 2.476 6.911 2.003 6.687 6.686v5.35c-2.187-.975-5.817 2.656-2.674 2.675-.004-.742 1.083-1.519 1.337 0-4.072.83-2.613 7.192-6.687 8.021-2.212-3.137-7.802-2.896-13.372-2.674-.497-2.091.095-2.522-1.337-1.337-1.715 1.422-.087-2.979 0-2.675-.09-.316-2.477-.876-2.674-1.337-.706-1.647-1.136-1.766 0-2.675.975-.779-1.329-1.327-1.337-1.337.898 1.025-1.88.591-2.674 0-1.111-.826-1.642-3.035-2.675-4.013-2.119-2.002-4.944-3.015-6.687-6.686 3.469-3.025-4.203-2.927 0-6.687-5.958-2.896-12.763.293-18.72 1.338-3.083.408-1.486-3.863-4.012-4.013-.226 1.56-2.114 1.452-4.011 1.337-.811 3.626-2.646 1.214-4.013 4.013.199-.408 1.908 2.014 0 2.675-1.038.3-2.638.036-2.674 1.337-.743-.004-1.518 1.083 0 1.337 3.479-2.771-2.269 1.489-1.337 4.012 1.117.464 1.05.498 0 1.337-1.668 1.335 3.144.081 2.675 0 1.407.242 2.438 8.69 4.011 4.013-3.646-2.081 6.899 1.013 4.013 6.686-3.084-2.653-1.486.336-4.013 1.338-4.266.793-4.135-2.51-6.686 0 .243-2.917-1.094-4.255-4.011-4.012-.283 1.616-1.484.822-2.674 0-1.428 1.247-.416 4.933-4.013 4.012-4.583.466-7.013-2.551-9.359-2.675-1.272-.067-.935-1.218-1.337-1.337-1.228-.363-2.76.271-4.012 0-4.642-1.009-14.489-3.288-17.383-4.012-1.571-.394-3.212-.216-2.674-2.675-5.696-.099-9.353-2.236-16.046-1.338-.88-1.794-2.858-2.489-5.35-2.674-.136-1.5 1.944-2.082 0-2.675.409 4.179-3.862-3.398-4.012 1.338-4.929 2.144-8.481 1.137-10.697 0-1.225-.629-2.732-.506-4.011-1.338-.924-.603-.532-3.407-1.337-4.012-1.516-1.138-1.21 2.116-2.674 0 .261.377 1.8-.438 1.337-1.338-.412-.799-2.125-.078-2.674-1.337-1.062-2.43-1.465-5.3 0-6.686-5.858.974 1.077-2.657-2.675-2.675-.783 3.198-2.811-3.238-4.012-4.012 1.5-.137 2.082 1.943 2.675 0-1.979-.695-3.37-1.979-5.35-2.675-2.451-4.233-6.068-7.303-9.359-10.696-1.54-1.58-1.514-4.728-1.337-8.023-3.141-.426-2.993-4.139-5.35-5.349-1.579 2.442-1.157-3.069-5.349 0-1.21-2.355-4.922-2.209-5.35-5.35-.427-3.139-2.112-5.019-1.337-9.359-4.333-.783-2.5-2.811-4.011-4.012.004.742-1.083 1.519-1.337 0-.905-1.488-4.443.267-5.349-4.012.742.004 1.518-1.083 0-1.337-.757 3.197-3.82-3.239-1.338-4.012-1.772-.381-2.937-.058-1.337-1.337.974-.778-1.311-1.312-1.337-1.339.05.052.048 1.277 0 1.339-.771.965-1.284-1.274-1.337-1.339-3.479-4.176-6.264-7.24-9.359-10.696-.977-1.089-2.936-3.151-4.012-4.013 2.489 1.988-5.958-.836-4.012-2.674 2.38-.647-.58-1.426-1.337-2.675-.97-4.09 2.307-3.933 1.337-8.021-1.369-1.337-2.93-2.932-4.011-4.013-1.074-1.074-1.94.279-2.674-1.337.128.283 2.009-1.307 0-1.337-1.491 3.412-10.344-.537-12.035 2.674-1.188-2.378-3.733-3.397-2.674-8.021 1.34-2.838 5.396-6.479 8.022-4.012 1.151-4.645 5.557-6.032 8.023-9.36-2.072-1.493-2.785-4.347-6.687-4.012-1.229 2.336-4.181 2.95-8.022 2.675-1.844-1.725-1.324-5.81-1.337-9.36 2.501.071 2.83-1.029 1.337-2.675 1.907-.319 2.255-2.201 4.011-2.674.136 1.5-1.944 2.082 0 2.674 1.343-1.776 1.265-4.977 4.012-5.349 3.977-.055 10.689 3.979 12.034-1.337-6.654-.526 1.81-3.775-2.674-4.013-3.509-.185-1.749-9.237-1.337-8.021-.281-.828-2.365.21-2.674-1.337-.226-1.122 2.021-2.568 0-2.676-3.027-.158.332-3.348 0-4.012-.489-.977-2.214.255-2.675-1.337-.354-1.223 1.626-1.771 1.337-2.674-.253-.79-2.371.176-2.674-1.338-.258-1.29 1.286-1.632 1.337-2.674-1.776-1.344-4.976-1.266-5.349-4.013 1.5-.136 2.082 1.943 2.674 0-6.374-1.204-7.378-7.775-6.686-16.046-2.167-2.735-9.867.062-12.035-2.675-.299-2.528 1.507-2.95 1.337-5.349-4.736-.148 2.841-4.421-1.337-4.012-.248 1.979-3.231 1.227-5.349 1.337-2.31.812.103 6.344-2.675 6.687-2.662-1.615-5.711-1.101-6.686 0 2.38.647-.58 1.426-1.337 2.675 2.674 1.479-1.628 7.18 0 12.034-2.657.018-1.7 3.647-5.35 2.674-.282-1.615-1.483-.821-2.674 0-2.736-4.396-.722-13.54-1.337-20.057-1.042-.296-1.555-1.12-1.337-2.676-5.858.975 1.078-2.656-2.674-2.674.295 1.756-1.857.662-2.674 1.337-3.249 2.685-.327 10.588-1.337 14.709 1.615.282.821 1.483 0 2.674 2.917-.241 4.254 1.096 4.011 4.013-1.616.283-.822 1.483 0 2.674-3.524-3.545-2.827 3.96-6.687 4.012-.136-1.5 1.944-2.082 0-2.674-1.075 4.978-2.988 2.146-4.011 4.012-.22.401 1.828.087 0 1.337-1.199.82-2.243 1.143-4.012 1.338.072-2.501-1.029-2.831-2.674-1.338 3.022-3.514-1.111-1.439-1.337-4.012-.408-4.641 3.199-10.189 4.011-17.383.7-6.195-.52-11.979 0-18.721 2.501.07 2.831-1.029 1.337-2.674 2.3.07 3.428-1.029 4.011-2.676-1.637-.023.34-7.557 1.337-9.359-5.857.975 1.078-2.657-2.674-2.674-.284.872-.723 1.354-1.337 0-1.295-2.858.682-3.293-1.337-4.013-.169-.061-.713 2.091-1.337 0-1.287-4.313-2.126-10.069-1.337-16.046.658-4.98 1.148-5.469 0-9.36-.663-2.243-.779-3.165-1.337-5.349-.056-5.374-.116-9.784-1.337-10.697-2.024 1.987-5.869 2.154-9.36 2.675v-12.034c3.445.22 6.427-6.804 8.022-4.012-1.452.32-3.21 2.202-1.337 2.675.283-1.5 1.484-2.082 2.675-2.675-.005-1.342 1.083-1.591 1.337-2.674.742.004 1.518-1.083 0-1.337.004.743-1.083 1.519-1.337 0 4.434-.469 2.099-7.707 2.674-12.034 4.307-2.139 5.778-6.082 8.022-8.022.809-.7.228-1.388 1.337 0 .777.97 1.301-1.298 1.337-1.337-.042.043-1.293.043-1.337 0-.875-.876 3.027-1.905 2.676-2.674-1.042-.296-1.556-1.12-1.338-2.675 4.719-1.349 2.449-2.312 4.013-5.349 1.038-.299 2.637-.037 2.674-1.337.742.004 1.518-1.083 0-1.337.004.742-1.083 1.518-1.337 0 1.776-1.343 4.976-1.266 5.349-4.012-2.953-.168-.567-5.673-1.337-8.023h-10.698c-.15-1.631-.398-3.166-2.674-2.674 2.829-3.465-.829-1.51-1.337-4.012-.492-2.425.354-4.411 0-8.022 1.668-.148 1.862-1.66 2.674-2.675.394-.491 2.063.882 1.337 1.337 2.04-1.281 2.042-3.255 4.013-4.011 1.554-.598 3.741.457 5.349 0 1.527-4.268 1.381-10.208 9.36-8.023-.567-7.111-.146-13.487-1.337-20.057-.571-3.149-2.588-6.052-2.675-9.36-.274-10.434 4.047-19.919 2.675-29.417-.681-4.712-3.854-7.547-4.012-12.035-2.508-.32.76-2.202-1.337-2.674.004.743-1.083 1.518-1.337 0-1.706-3.347.68-4.186-1.337-5.349-2.238 4.368-3.966-.723-6.686-1.337.062.014-1.276 1.558-2.676 1.337-.084-.014.076-1.244 0-1.337-.255-.313-2.237.101-2.674 0-1.943-.451-4.277-.72-6.686-1.338-.11-.027.09-1.227 0-1.337-.279-.341-3.508.027-4.013 0-1.216-.063-1.006-1.251-1.337-1.337-7.235-1.876-14.325-1.521-21.395-2.674-.295-1.042-1.12-1.555-2.674-1.337 2.394-4.56-.071-.685-1.337-1.337-.659-.339.251-3.196-1.337-2.674-.027 2.047-6.309-.669-8.023-1.337-.016 2.322-.577 2.264-2.674 2.674-4.178.818-10.74-1.37-14.708-1.337 4.152-4.132-4.527-2.26-2.674-8.023 3.936 1.876 1.584.676 1.337-1.337-.272-2.22 1.596-1.078 0-2.674-.818-.818 2.396-2.535 1.337-4.012-1.581-1.54-4.728-1.514-8.023-1.337.238-3.039-4.517-7.793-5.349-5.349 1.188.394 5.854 3.618 2.674 4.012-1.548-3.354-5.328-4.478-5.349-9.359h-8.023c1.003-2.701-1.864-1.727-1.337-1.338-1.15-.851-1.695-1.703-2.674-2.675-.174 2.278-3.33.833-5.35 1.337-.715.18-1.394 1.351-1.337 1.337-1.206.262-2.559-1.345-2.674-1.337-1.761.115-1.227 2.269-2.674 2.675-2.857-4.274-6.294-7.97-9.36-12.034.017-1.769 2.344-1.224 2.675-2.675-1.854-2.158-3.789-4.234-5.35-6.687 1.5-.136 2.082 1.944 2.674 0-2.13-1.343-5.381-1.265-2.674-4.012-2.297-1.448-5.984-2.459-6.686-4.011-.566-1.256 1.295-1.126 1.337-1.338.296-1.48-.911-.759-1.337-1.337.226.306-.513 1.439-1.337 0-.831-1.449-2.739-3.761-2.675-8.022.016-1.769 2.344-1.223 2.675-2.674-1.616-.283-.822-1.484 0-2.675-5.858.975 1.076-2.656-2.675-2.674-2.52 3.369-1.255-4.666-2.674-4.012-1.854 4.979-.201-3.936-2.674-2.674-.136-1.5 1.943-2.082 0-2.674-.767 2.787-8.651 1.673-8.022-1.337-1.143-4.264 1.165-5.076 2.674-6.687-.742.004-1.519-1.083 0-1.337 1.43-4.995-3.32-3.811-2.674-8.023-.411-6.72 1.543-15.806-2.675-18.72 1.5-.136 2.082 1.944 2.675 0-3.182-.141-2.943-3.703-4.012-5.349-1.303-2.007-4.29-3.998-4.012-6.687.784-4.333 2.81-2.5 4.012-4.012-1.979-.249-1.226-3.23-1.337-5.349 1.782-2.395 2.081-2.976 2.674-5.35.345-1.375 1.795-2.181 1.337-4.012-.135-.54-1.376-1.629-1.337-1.337-.179-1.327 1.273-1.016 1.337-1.337.263-1.312-2.645-.32-4.012-1.337-1.12-.833-1.597-3.069-2.674-4.013v-10.696c1.494-2.162 9.34-4.804 6.686-6.687.005.743-1.083 1.519-1.337 0 1.5-.283 2.082-1.483 2.675-2.674 2.328.102 4.158-.298 5.349-1.337-.92 5.377 1.281 7.633 1.337 12.035-1.368 1.306-2.705 2.643-4.012 4.011.743-.004 1.518 1.083 0 1.337 2.246 2.875-.39 5.48 0 6.687.095.293 2.422-.252 2.675 0 .425.425-.812 2.05-1.337 1.337.85 1.149 1.704 1.694 2.674 2.674.058 1.841-.63 2.936-1.337 4.011 2.501-.072 2.831 1.03 1.337 2.674 5.749-.632 1.711 3.6 4.012 4.013-.175-.738 1.296-1.523 1.337 0 .138 5.097-3.455 14.248-2.674 22.731 2.86 2.942-1.844 2.877 1.337 4.011-.238-.085 1.271-2.044 1.337 0-.004 1.343 1.083 1.592 1.337 2.675 1.791 3.558.426 10.271 4.012 12.035 1.579-2.443 1.157 3.068 5.349 0 .136 1.5-1.944 2.081 0 2.674 1.137-3.923 3.365 1.738 6.687 0 .072 1.709 1.714 1.852 1.337 4.011 1.5-.136 2.082 1.944 2.674 0-.742.004-1.519-1.083 0-1.337 3.516 3.398-.909 3.401-1.337 5.349.01-.045 1.56 1.263 1.337 2.674-.071.449-2.332.997-1.337 2.675 2.381.738 5.553.687 6.686 2.674-3.874 2.958 2.051-1.685 1.337 1.337-.184 7.229-5.22 1.295-10.696 2.674-1.163 5.174 3.266 4.757 4.011 8.023-.6-.998-3.258-.465-2.674 0 2.681 2.131 4.858-1.614 9.359-2.675-.293 1.681-2.083 2.733 1.337 2.675-.406 4.597 2.475 11.739 2.675 13.371.154 1.265-1.532 1.722-1.338 2.675.043.209 2.453-.185 2.675 0 .662.548-1.609 2.226-1.337 2.674 1.632.15 3.166.399 2.674 2.674 4.145-.133 7.417.606 9.359 2.674 4.542-.084 7.347 1.568 9.36 4.011 1.875-2.136 4.606-3.415 8.023-4.011.97-4.09-2.308-3.933-1.337-8.022 1.757-1.363 4.929-1.312 6.686-2.675-.974 3.648 2.657 2.691 2.674 5.35 8.205 1.735 17.294-1.231 25.406 0 7.484 1.136 12.088 6.53 18.72 6.686 1.138-2.021 3.273.379 4.011 0 .783-.4-.083-4.107 2.675-2.674 2.723.397 3.562 2.678 5.349 4.012 2.024-4.044 5.869 1.108 9.36 0 .647 1.58 1.426 3.031 2.674 4.013.322-3.447 2.301 1.836 5.349 0 .32 1.908 2.202 2.255 2.674 4.011v5.349c4.849-.945 5.725-5.864 13.372-4.011.295 1.042 1.12 1.554 2.674 1.337-2.249 4.309.616 3.576 1.338 2.674 1.36-1.7 3.016 5.265 4.011 4.013 1.714-3.469 6.366-.602 6.686-2.675-.743.005-1.518-1.083 0-1.337 5.298-.395 8.172 1.635 10.697 4.013-1.616.282-.822 1.483 0 2.674-3.771-1.153-1.153 2.458-1.337 2.674-.813.954-4.54 1.337-5.349 2.674-.456.752 1.253 2.089 1.337 2.674-.017-.107-2.101 1.166 0 1.337.677-1.839 2.891.212 5.349 0 .067-.005-.067-1.255 0-1.337.894-1.092 5.467.827 6.686 0 1.658 3.626 5.161 3.329 2.675 8.023 2.917 1.54 8.648.266 9.359 4.011-2.38.649.58 1.427 1.337 2.675-1.004.075-1.337.199-1.337 1.337 0 .861 1.343 1.522 1.337 1.337.054 2.312-1.625 3.42 0 4.012.879-4.005 2.858 1.279 5.35 0 .209 1.574-.23 3.795 1.337 4.011.3-1.038.037-2.637 1.337-2.674.632 5.748-3.599 1.711-4.012 4.011-.058 2.076-9.493-2.887-8.023 4.013 3.779 1.104 3.464-1.886 6.687-1.337-1.167 5.178 5.838 2.185 4.011 8.022 4.116-.936 2.57-.936 6.686 0 2.246 5.777 4.14 11.907 5.35 18.72-.017 1.769-2.345 1.224-2.675 2.675 1.916.136.052.907 0 1.337-.355 2.979.268 9.16 0 13.372 1.52 2.938 4.473 4.441 5.35 8.022.209 1.574-.23 3.796 1.337 4.013.136 1.5-1.944 2.081 0 2.674.248-1.98 3.23-1.227 5.349-1.337-3.309 3.186 3.473 2.195 1.337 8.022-1.055 2.957-4.677 3.346-6.686 5.35-1.998 1.011.346 3.44 0 4.012-.637 1.048-3.161 1.577-4.012 2.674.313-.404 1.782.472 1.337 1.337-.34.659-3.196-.25-2.674 1.337 2.184-.603 2.184 7.289 0 6.687-.521-2.053-1.605-.197 0 1.337-2.467-.606-3.979.967-5.35 1.337-2.545.688-5.297.357-5.349 1.337-.17 3.228-7.3 2.662-9.36 2.674-.668 4.207 2.915 5.228 0 8.023 4.606.345 5.675 1.53 9.36 1.337.849-.045 1.481-1.348 1.337-1.337 4.042-.273 7.931-1.522 10.697 0-.865-2.906 2.892-3.356 5.349-4.012 3.035-.81 8.396-.665 9.36 0-.975-5.857 2.656 1.077 2.674-2.674-3.821-.695 2.158-1.979 2.674-2.674-2.592-5.817 5.829-7.401 2.674-9.36-.749 1.927-2.086 3.264-4.012 4.013 1.934-2.524 2.987-5.929 8.022-5.35 1.71.073 1.853 1.714 4.013 1.337 2.56 2.487-1.985 3.838 1.337 4.013 2.518.132-.767 2.344 1.337 2.674 1.21-2.073 4.922-.695 5.349 0 1.143 4.263-1.165 5.076-2.674 6.686 1.042.295 1.555 1.12 1.337 2.675-4.584-2.663-.648.459-1.337 1.337-1.79 2.283-6.669 5.188-9.359 8.022 2.279.548-.281 1.726 0 4.011-4.295-3.039-.556 1.393-2.675 4.013-.699.864-3.81-.078-4.011 1.337.136 1.5-1.944 2.082 0 2.674.283-1.5 1.484-2.082 2.674-2.674-1.548 3.354-5.328 4.478-5.349 9.359 5.622.008 11.179-.044 12.034-1.337-2.28-.548.28-1.724 0-4.011 3.956 2.361.277-.62 2.674-4.012.658-.932 1.62 1.394 1.337 1.337 1.311.262.321-2.646 1.337-4.012 2.838-3.815 11.306-5.139 14.709 1.337-1.125 3.333-1.75 7.164-1.337 12.035-4.092-3.556-2.549 4.836-5.349 1.337-.689-.861-2.566 5.583-4.012 4.012-.136-1.5 1.944-2.082 0-2.675-.695 1.979-1.979 3.37-2.674 5.349-1.688-.613-.748 2.256-1.337 2.675-1.061.753-2.418-2.417-2.674 0 4.005.879-1.278 2.858 0 5.35 4.202-.701 7.46-2.347 10.697-4.013 1.5-.136 2.082 1.944 2.675 0-4.13-3.274 3.839 1.471 2.674-1.337-.743.004-1.518-1.083 0-1.337 1.709-.073 1.852-1.714 4.011-1.337.32-2.507 2.202.759 2.674-1.337-.741.004-1.518-1.083 0-1.337 1.703-1.863 6.551-.582 6.687-4.012-1.151-.823-3.256-1.537-4.012-2.674-.639-.961 1.698-1.951 1.337-2.675-.328-.654-3.206.247-2.674-1.337 1.367-1.306 2.704-2.643 4.011-4.011-1.788-.925.66-3.567-1.337-6.687 1.5-.136 2.082 1.944 2.674 0 2.508-.319-.759-2.201 1.337-2.674 3.516 3.477 1.053-2.161 5.349-1.337 1.809.42 2.555 1.903 5.35 1.337-.293 1.682-2.082 2.733 1.337 2.674 2.958 1.927-1.685 3.264 1.337 4.013-.057-.736 1.148-1.526 1.337 0 .403 3.272-.493 15.265 1.337 14.708 2.114-1.553 2.864-2.543 4.012-5.35 1.059-2.587-.764-7.349 2.675-8.022 10.89-.002 21.457.173 30.755 1.337 3.495.438 7.591 3.378 10.696 1.337 1.69-3.318-1.933-4.266-2.674-5.349-1.354-1.979-2.179-3.744-4.012-5.35.409 2.716-3.863-.272-4.011-1.337-1.927-.749-3.264-2.086-4.013-4.012 3.61-3.967 6.501-8.653 9.36-13.372 1.341-.004 1.591 1.083 2.674 1.337-1.146-6.198 2.104-1.401 2.674-4.012-3.06-3.097 4.168.454 6.687 0-.41 4.178 3.863-3.399 4.011 1.337-3.043 1.861 1.113-.166 1.337 0 .492.364.924 3.496 1.337 4.012.839 1.049.68-3.396 1.337-2.674 1.161 1.275 1.187 3.037 2.675 4.012-.96-.629 2.7-.349 4.011 0 .112.03-.093 1.226 0 1.337 1.598 1.953 8.313-1.278 8.022-1.337.23.046.082 2.172 1.337 1.337.449-4.762 7.646-3.519 10.697-5.349 4.22.351 5.049 4.5 8.023 6.686.878.646 3.092-.595 4.012 0 .684.442-.271 3.113 1.337 2.675 3.928-3.132 1.426-10.632 2.674-13.372-3.921-.092-4.966-3.058-6.686-5.35 1.5-.136 2.082 1.943 2.675 0-3.168-2.142-4.815-2.456-8.023-6.686.208.273 1.942-1.235 0-1.337-2.558-.136.417-1.864 0-2.674-.525-1.021-2.241.333-2.674-1.338-2.075-8.017.003-16.433-2.674-26.743 6.222-.381-2.077-2.425 2.674-2.675 2.705-.143 1.02-4.813 4.012-4.012 3.244 2.104 5.71 4.987 12.035 4.012 2.3-.527 3.429 1.984 4.011 0-2.37-1.767-.041-5.925 0-9.359.024-1.988-2.271-4.387 0-5.35-2.501.072-2.83-1.028-1.337-2.674-5.857.975 1.078-2.657-2.674-2.674-3.274 4.129 1.47-3.84-1.337-2.674-.458 1.427-1.213 1.024-1.337-1.337-.043-.83-1.347-1.506-1.337-1.337-.052-.878 1.581-2.196 1.337-2.675-.397-.779-4.111.082-2.674-2.674-.539-2.693 1.987-2.564 2.674-4.012-.058.122-2.11-1.321-1.337-2.674.384-.673 3.16.262 2.674-1.337-2.574-1.378.546-8.264 2.674-9.36-1.497-1.177-.729-5.368 0-8.022.212-.773 2.452.221 2.674-1.338.021-.143-2.403-1.24-1.337-2.674 1.908-.319 2.255-2.202 4.012-2.674 3.048-1.836 5.026 3.447 5.349 0-2.899.227-.605-4.743-1.337-6.687 5.001 3.23-.99-2.088 4.011-2.674 1.21-3.473-1.184-7.146-1.337-10.696-.182-4.238 2.01-6.396 0-6.687-.368 3.154-4.981-.123-5.349-1.337 1.615.136.821-1.943 0 0-4.646-2.725 3.882-6.997 0-9.36-2.582.228-6.353.265-9.36 1.337-.54.193-2.002 2.316-2.674 2.675-.175.094-1.743 1.443-1.337 1.337-1.115.293-2.565-2.074-2.675 0-.08 1.519-.541.646-1.337 1.337-4.396 3.81-14.863-.33-17.384-1.337-.327-.131-.981.019-1.337 0-1.395-.073-.779-1.118-1.337-1.337-1.925-.758-5.306.713-5.349-2.675 1.5-.136 2.082 1.944 2.674 0-1.58-.647-3.031-1.426-4.011-2.674-4.128-9.358 1.134-18.295 2.674-28.08 1.021-6.483.893-12.879 1.337-20.058 1.58-.648 3.032-1.426 4.012-2.674-2.38-.649.58-1.426 1.337-2.674-1.042-.296-1.555-1.12-1.337-2.675 1.042-.295 1.556-1.119 1.337-2.674 3.901.793.981-1.981 1.337-2.674.478-.925 2.155.136 2.675-1.337-.211.601-1.337-.718-1.337-1.337 0-2.413 2.711-3.454 2.674-5.35-1.568-1.997-5.557-1.574-5.35-5.349 1.093-.767 1.224 1.299 1.337 1.337 1.698.558.117-1.143 0-1.337-1.454-2.424 4.122-1.822 5.35-2.675.95-.66 2.33-3.644 4.011-5.349 1.975-2.003 4.796-3.236 5.349-4.012 1.36-1.905-.063-3.702 1.337-5.349 3.445 1.445 1.584-2.844 1.338-2.674 1.053-.725 2.902 2.547 4.012 0 1.732-1.889 1.779-5.42 2.674-6.687.78-1.103 2.259.473 2.674-1.337.013-.054-2.397-1.313-1.337-2.674 1.864-.644 5.146-3.958 5.35-4.012 1.113-.293 2.564 2.073 2.674 0 .175-3.32 2.815-2.492 4.011-1.337-.072-2.302 1.029-3.429 2.674-4.013-3.935-8.964 6.149-12.735 4.012-24.068 1.908-.32 2.256-2.202 4.012-2.675 1.219-2.027 3.167.388 4.012 0 .343-.156-.27-2.351 0-2.674.548-.662 2.226 1.61 2.674 1.337 1.031-.627-.527-2.575 1.337-2.674 1.485-.078.667-1 1.337-1.337 1.099-.552 1.806 1.585 2.675 1.337 1.921-.549-.034-3.313 0-4.011.003-.058 1.26.063 1.337 0 1.092-.894-.826-5.468 0-6.687-3.326-.146-4.14-2.505-6.687 0-.699.563-3.853 1.883-4.012 2.675-.132.663 1.177 1.924 1.337 1.337 1.02-3.732 1.71 2.124-1.337 1.337-2.107-.121-1.046-3.41-4.011-2.674 3.583-3.438-3.583-1.912 0-5.35-4.847 1.28-1.36-5.771-4.013-6.686 5.783-.012 5.282-6.308 9.36-8.023.136 1.5-1.944 2.082 0 2.674.696-1.979 1.979-3.369 2.674-5.349 3.264 2.216.869-.402 2.674-1.337 3.134-1.622 2.821.858 4.012-1.337-1.042-.295-1.555-1.12-1.338-2.674 3.143-2.228-.488.121-2.674 0-1.123-1.553-1.764-3.585-1.337-6.687 3.518 3.477 1.054-2.161 5.35-1.337.22-6.02 12.702-9.36 9.359-12.034-.893-.714 1.373-1.603 1.337-1.337.24-1.767-.576-4.519 1.337-6.686-1.794-.88-2.489-2.858-2.674-5.35-2.97-2.968-7.364-4.362-8.022-8.022 1.065-2.945 2.684-5.338 6.686-5.349.452 4.729.077 6.889 1.337 8.022-.004-.743 1.083-1.518 1.337 0 1.84.058 2.937-.63 4.012-1.337.815-.076 1.583-.2 1.337-1.337-1.378-.334-.121-4.386 0-6.687.06-1.146 1.284-1.095 1.337-1.337.783-3.581-.712-8.677 2.674-9.359h5.349c-1.35 5.134-1.024 2.054 1.337 4.011.611.507-1.512 2.237-1.337 2.674.126.314 2.375-.248 2.675 0 .661.548-1.609 2.227-1.338 2.674 3.445 1.458 6.428 3.379 8.023 6.687.229 2-.479 4.935 1.337 5.349.249-1.979 3.231-1.226 5.349-1.337-1-13.48.984-23.977 9.36-28.081.548 2.28 1.725-.281 4.011 0 .426 2.931 1.316 6.052 2.676 2.674-.105.262-2.028-1.288 0-1.337 3.611 4.281-1.032 8.87 0 14.709 10.002 1.533 12.047-4.89 21.395-4.012 2.723.396 3.563 2.678 5.349 4.012.249-1.979 3.231-1.226 5.35-1.337 1.95-.224 1.495-1.474 2.674 0 .78.976 1.35-1.347 1.337-1.337-1.747 1.332-.1-2.987 2.674-2.674.521 1.908 1.605 2.255 0 4.011 5.858-.974-1.077 2.657 2.675 2.674.32-2.052 2.202-.195 2.675 1.337 2.541-2.067 10.406-7.77 8.022-9.359-1.703 2.167-6.778 9.352-8.022 6.686 4.505-2.327 5.357-6.27 9.359-8.022 2.68-1.175 5.277.026 5.35-1.337.164-3.118 6.49-2.93 6.686-1.338-.625-4.191 3.362-3.77 5.349-5.349 5.668 1.188 9.47-3.511 13.372 0-.526-5.707 7.029-2.822 6.687-2.674.33-.142-.258-2.362 0-2.674.563-.681 2.241 1.66 2.675 1.337 1.107-.824-.402-2.137 1.337-2.674 4.976-1.538 11.099-.893 17.383-4.013 4.075.229 1.382 5.962 4.013 2.676.666-.834 3.851 3.938 4.012 4.011-.684-.313 2.961-.903 2.674-1.337-2.135-.94 1.123-7.687 4.012-8.023 4.444 2.244 9.324 9.67 6.688 14.708 6.553-1.998.949 6.501 4.011 2.674.72-.898 1.589 1.377 1.338 1.337 5.675.896 7.199-2.496 10.697 0-.424-5.852 6.185-3.717 6.686-5.349-3.87-2.029 10.307-1.365 12.034-2.674.3 1.038.037 2.637 1.338 2.674 3.152 3.741-2.088-2.528 1.337-1.337.719.25 1.15 3.04 2.675 2.674 2.508.32-.76 2.202 1.337 2.674 1.592-2.61 3.087.243 5.35 0 3.076-.33 5.354-2.149 9.359-2.674 3.338-.437 8.14.328 12.034 0 .005 2.797 7.283 5.026 4.012 6.687-.32-1.453-2.201-3.21-2.674-1.337 3.238 2.108 5.912 4.783 8.021 8.022 1.5-.136 2.082 1.944 2.675 0-.742.004-1.518-1.083 0-1.337.648 1.58 1.426 3.031 2.675 4.011-.071-1.337 2.543-.965 4.012 0 2.553 1.679 4.73 7.67 9.359 6.687-2.394 4.56.071.685 1.337 1.337.659.34-.251 3.196 1.338 2.675.64-2.366 1.438.562 2.675 1.337-.348-.218.406-1.815 1.337-1.337.931.479-.146 2.157 1.338 2.674-.31-.106 1.467-1.556 2.674-1.337.091.018-.079 1.24 0 1.337.474.579 4.489 1.309 5.349 1.337 3.147.107 6.609-2.619 10.697-1.337-.793 3.901 1.982.981 2.675 1.337.659.339-.251 3.196 1.337 2.674.432-2.209 2.824-.757 4.013 0 4.062 2.59 16.288 3.515 20.058 4.013 8.379 1.105 14.35 2.649 20.057 4.011.137 1.5-1.942 2.082 0 2.674 2.727-2.736 6.102 2.232 10.697 2.674 2.374.229 3.12-1.048 5.35-1.337 2.825-.365 6.164.041 8.022 0 .331-.007-.111-1.627 1.337-1.337.371.074-.083 2.037 1.338 1.337.854-.42.328-4.851 2.674-4.012.137 1.5-1.942 2.082 0 2.674 1.344-1.776 1.266-4.976 4.013-5.349.136 1.5-1.943 2.082 0 2.674 1.532-5.154 6.927-6.445 13.371-6.686.695 1.979 1.979 3.369 2.675 5.349-1.319 4.475-1.96 9.628-5.35 12.034 2.081.349.928 2.933 0 4.012 2.701-1.003 1.728 1.864 1.338 1.337.851 1.15 1.703 1.695 2.675 2.674-1.189 5.668 3.51 9.469 0 13.372 3.921.09 4.966 3.057 6.686 5.35-.058 1.84.63 2.936 1.337 4.011.137 1.5-1.943 2.082 0 2.674-.646-1.768 6.131-.082 6.688 1.337 3.545-1.571 7.873 2.563 8.021 0-2.654-1.883 5.192-4.523 6.687-6.686 2.477-1.981 2.004-6.911 6.687-6.687 5.745.898 12.756 3.344 20.057 4.011 3.002.274 6.764-.484 9.36 0 .563.105-.044 2.478 1.338 2.675.144.021 1.241-2.404 2.675-1.337.408 1.444 1.829 1.642 2.675 2.674.368.451 2.255-.419 2.674 0 .669.668-.258 2.933 1.337 2.674 1.63-2.401 8.214 1.503 13.372 0 3.52 1.383 4.504 5.302 8.022 6.686.344-2.776 5.874-.364 6.687-2.674.136 1.5-1.944 2.082 0 2.674 1.343-1.776 1.265-4.976 4.012-5.349-3.546 3.525 3.959 2.827 4.011 6.686-1.5.137-2.08-1.943-2.674 0 6.453.232 3.295 10.076 4.012 16.047 1.724 1.842 5.809 1.322 9.359 1.337 1.953-2.504.054-8.861 2.675-10.697 1.841.058 2.937-.629 4.013-1.337 4.281 3.74 2.619 13.425 6.686 17.383.322-3.447 2.301 1.836 5.35 0 2.593-3.201 2.146-9.443 6.686-10.697.074 1.407 1.714 1.053 1.337-1.337h5.351c2.879 2.604 8.977 10.45 4.011 2.674 1.92 1.338 4.119 2.838 5.349 4.012.63.601 1.534 4.239 2.675 4.012-.046.009.425-2.335 1.337-1.337.618.676-1.5 2.103-1.337 2.674.243.851 7.77 7.23 6.687 4.012-1.188-.394-5.854-3.618-2.674-4.012 1.127 3.372 5.519 5.13 6.686 6.686.939 1.254.342 2.943 1.337 4.013 3.637 3.902 8.576 6.606 12.035 10.697-.655 4.22 2.409 4.722 1.337 9.359.164 1.779-2.578 1.207-2.675 2.674 0 .043 2.489 1.412 1.338 2.674-.749.821-2.657-2.469-2.675 0 2.289 2.55-.14 2.535 1.337 4.013.892.892-.683 4.249 0 5.349-5.748-.632-1.711 3.6-4.012 4.011-2.107-.12-1.046-3.409-4.011-2.674-1.58.648-3.031 1.426-4.013 2.674 1.117.465 1.051.498 0 1.338-1.281 1.024 7.245 5.477 2.676 5.349-.321-1.453-2.202-3.21-2.676-1.337 1.781 1.339 4.036 2.205 5.35 4.012 2.907 6.407-.822 11.259-1.337 16.046-.42 3.898 2.644 7.283 0 10.697 1.037.3 2.638.037 2.674 1.337-.742-.004-1.519 1.083 0 1.337 0-.742 1.083-1.518 1.337 0 .457 2.4 2.94 4.019 2.675 5.349.013-.064-2.127 1.226 0 1.338 3.118.164 2.929 6.49 1.337 6.686 6.103.232 3.739 10.562 5.35 10.698 2.415-4.42 1.956 4.974 1.337 4.011.391.606 3.425.667 4.012 1.337.385.439 1.249 3.719 1.338 4.011.706 2.326-.327 5.378 0 8.023.326 2.639 2.413 8.318 2.674 9.36.469 1.869.807 2.682 1.337 4.011.132.327-.019.981 0 1.337.065 1.237 1.24.979 1.339 1.337 1.795 6.588 1.217 11.82 2.674 16.046 3.238 2.109 5.914 4.784 8.022 8.023-2.714 3.081-5.31 6.279-8.022 9.36-12.691-1.55-18.063 4.223-30.756 2.674-1.327-6.384.115-1.453-4.012-4.012-.015 1.768-2.343 1.223-2.674 2.675 2.052.319.196 2.201-1.337 2.674-2.802 1.369-.93 4.078-4.012 4.012-.853-.019-3.722-5.161-4.013-5.349 1.5-.136 2.082 1.943 2.676 0-2.19-2.941-3.113.98-5.35 2.674-1.42 1.075-7.696 2.67-4.012 4.012 0-.743 1.083-1.518 1.337 0-1.681.548-2.731 1.726-2.674 4.013-1.908-.521-2.256-1.605-4.012 0-1.466 7.003-9.872 7.064-8.023 17.383-.745 2.727-4.021 2.622-1.337 5.349 7.394-.63 17.938 1.891 21.396-2.674.136 1.5-1.943 2.082 0 2.674.647-1.58 1.426-3.031 2.675-4.011 1.043-.521 6.171 2.253 6.686 2.674.451.369-.422 2.262 0 2.674 1.018.993 3.375-.089 4.013 1.337.373.836-1.695 2.291-1.338 2.674.633.68 3.304.797 4.012 1.338 2.354 1.8 2.617 5.13 4.012 6.686 1.06 1.181 2.969 1.396 4.012 2.674-.337-.412-1.775.485-1.338 1.337.498.967 2.182-.213 2.675 1.337.446 1.401-2.182 2.157 0 2.675 1.55-3.82 1.55 2.158 0 2.675 1.777 1.343 4.977 1.264 5.35 4.011-1.5.136-2.082-1.944-2.674 0 5.615 1.069 6.211 7.16 12.034 8.023-2.395 4.56.07.685 1.337 1.337.659.339-.251 3.195 1.337 2.674 0-.743 1.083-1.519 1.338 0h10.697c-.794 3.901 1.981.979 2.674 1.337.659.34-.251 3.196 1.337 2.674 1.177-3.616 4.802 1.058 5.35 1.337 1.847.945 3.629.296 5.349 1.337.366.223.688.924 1.338 1.337 2.507 1.599 4.376 3.058 5.349 5.35-1.5.136-2.082-1.944-2.675 0 1.777 1.343 4.976 1.265 5.349 4.011-1.211 2.742 1.203 4.802 1.338 6.687.166 2.325-1.711 3.407 0 4.011 2.508.319-.759 2.202 1.338 2.675 1.218-2.831 5.374 2.522 9.359 1.337.981 3.921 4.057 5.75 6.687 8.023.177 3.296.202 6.442-1.337 8.022 1.775 1.343 4.976 1.266 5.349 4.012.456 2.4 2.94 4.019 2.674 5.35-.058.29-2.12.01-1.337 1.337.643 1.088 2.305-.46 2.674 1.337 1.405 6.821-2.292 17.146 4.012 21.396-1.5.136-2.082-1.944-2.674 0 1.776 1.343 4.977 1.265 5.35 4.012-3.396 2.417 1.1-1.157 1.337 1.337.174 1.83-.72 2.945-1.337 4.012 1.279.231 2.333.122 2.674 1.337 1.056 3.764.094 10.611 2.675 13.372-5.685 5.574-.71 11.488 0 18.722.517 5.263 1.089 7.89 1.337 10.696.509 5.754-.771 9.138-1.337 12.034-.485 2.479.46 4.96-1.338 6.686 5.749-.632 1.712 3.601 4.012 4.013 0-.742 1.083-1.519 1.338 0 .225 1.95 1.475 1.495 0 2.675-.971.775 1.37 1.392 1.337 1.337-.272-.456.616-1.396 1.338 0 .106.207 1.438 1.718 1.337 1.337.262.994-1.678 2.098-1.337 2.675.935 1.588 6.151.139 4.012 4.013-1.752-.349-1.753 2.306-2.676 2.674-1.286.515-1.094-1.288-1.337-1.337-2.717-.544 2.495 4.66-4.012 2.674v8.022c-.55.343-2.229-.445-2.674 0-.569.569 1.075 1.938 1.337 1.338-.337.772-1.303 2.021-1.337 2.675-.058 1.093-1.305 1.163-1.338 1.337-.705 3.724.526 9.925 0 14.709 1.71.073 1.853 1.714 4.012 1.337-2.058 4.351-.413.987 1.338 1.337-.582-.116 1.349 1.345 1.337 1.337 1.22.826 1.644 1.724 2.674 2.675 1.063-3.081 6.286.692 6.688 2.675v5.35c3.906 1.21.388 4.922 2.674 5.349 3.551-3.379-.183 7.5 4.012 2.674v4.013c-2.39-.377-2.744 1.264-1.337 1.337-.663 2.59-2.227.164-2.675 0-3.729-1.36-.901 0-1.337-2.674-.068-.422-2.081.653-1.337 1.337-.137-.551-2.625-2.373-2.676-2.676-.211-1.266 1.27-2.901 1.338-2.674-.405-1.354-3.983-1.946-1.338-2.675.957-3.631-6.306.957-5.349-2.674-2.524 1.001-.928 3.991-4.012 1.337 3.103 1.957-2.611 4.238 2.675 4.012-.932 6.727 2.27 9.319 1.337 16.046-3.145.421-.793 6.338-5.349 5.35 2.269 5.056-2.682 12.959-8.022 14.709.255 1.518 1.341.742 1.337 0 3.132 1.519-3.425 4.472-5.349 5.349.254 1.519 1.341.742 1.337 0 2.589.889-.83 1.804-1.337 2.674-.156.27-.3 3.712-1.338 2.675-.05-.051-.047-1.274 0-1.337.01-.012-2.312.558-1.337 1.337.052.041 1.332.015 1.337 0-.052.142-1.254 2.638-1.337 2.675-.454.205-2.398-.367-2.674 0-.614.817 1.029 1.697 1.337 1.338-2.277 2.671-2.368 2.911-5.349 4.011.254 1.519 1.341.743 1.337 0 2.827.413-1.404 4.645-4.013 4.012 3.161 3.037-1.668 4-4.011 5.35.254 1.518 1.341.742 1.337 0 1.873.473.115 2.354-1.337 2.675.206 1.787-2.101 7.371-2.675 4.011-1.518.255-.742 1.342 0 1.338-.254 1.083-1.341 1.333-1.337 2.674-3.102-.427-5.134.216-6.688 1.338 2.087 4.784-1.68 8.495 5.351 9.359-2.311.813.103 6.343-2.676 6.688.586 3.105 5.904 3.578 2.676 6.686 1.957-1.917 4.237-1.025 4.011 2.674 3.105-3.229 3.58 2.089 6.687 2.675-.821 1.19-1.615 2.393 0 2.675-2.551 5.919-3.166 13.771-2.675 22.731-3.063 1.461-11.065 4.892-14.709 1.337-1.588-.521-.678 2.335-1.337 2.675-.811.417-2.54-2.559-2.674 0-.112 2.126-1.406-.013-1.338 0-.713-.131-1.904 3.443-2.674 2.675-1.84-1.84-.573-.098-4.013 1.337 2.361 2.237-1.188 4.479 0 9.359-1.189.594-2.392 1.175-2.674 2.675h-8.022c-1.19.821-2.393 1.615-2.676 0-2.021.043-.111 1.605 0 1.338-1.113 2.65-3.493.629-4.011 4.012-1.943-.593.136-1.175 0-2.675-3.475.808-2.273 3.958-4.012 5.349-1.112.891-1.272-1.336-1.337-1.337-2.975-.07-2.785 4.294-5.35 4.012.473 1.873 2.354.115 2.675-1.338 3.382.659-5.146 6.615-6.687 8.023-3.082 2.817-6.654 5.989-9.359 8.022.748 3.873 2.086-2.052 4.012-1.338 1.604-1.873.521-.115 0 1.338-1.757.473-2.104 2.354-4.012 2.674-1.408 1.39 1.854 7.845 0 9.36-1.691 1.384-.563 2.293-1.338 6.687-.02.108-1.263-.107-1.338 0-.781 1.12.431 4.019 0 5.349-.12.375-1.172.169-1.337 1.337-.354 2.506.58 6.001 0 8.023-.06.207-2.632-.203-2.674 0-.184.883 1.687 2.24 1.337 4.012.171-.866-1.772 2.981-1.337 2.674-.219.154-3.731.28-2.675 1.338 1.8 1.799-1.518 1.557-4.012 4.011.473 1.874 2.354.115 2.675-1.337 3.18.395-1.486 3.618-2.675 4.013 2.812 3.257-2.117 6.878 2.675 6.686.441 4.899-1.485 7.43-2.675 10.697-10.312 1.967-22.695.121-29.418 5.349-2.481 1.932-3.159 4.219-5.349 6.687 1.539 2.918.265 8.648 4.012 9.359-.593 1.944-1.175-.136-2.675 0 .659 3.798 6.989 1.925 5.35 8.023-1.139.246-1.263-.521-1.338-1.337-2.046.067-.083 1.572 0 1.337-1.318 3.754-4.172 1.549-5.349 5.349 3.68-3.271 2.82 1.997-1.338 1.337 1.494 1.646 1.165 2.746-1.337 2.675 2.956 1.444-1.181 3.702-1.337 6.687-.039.743-3.421.592-2.675 1.337 1.916 1.916-.121.782-2.675 2.675.254 1.519 1.341.742 1.337 0 3.51.695-1.217 1.729-1.337 4.011-.102 1.929-2.545 2.893-2.675 5.35-.132 2.517-1.874-.887-2.674 0-.668.742.987 1.702 1.337 1.338-5.222 5.439-11.503 6.198-14.709 14.709-6.506 1.517-15.392.653-17.383 6.686-3.874-.749 2.051-2.086 1.337-4.012-4.425 2.261-6.171 7.2-9.36 10.697-3.873-.748 2.052-2.086 1.338-4.012-3.036.975-4 4.023-5.349 6.687-5.493-1.405-8.757 6.295-12.035 2.674-2.021.043-.111 1.606 0 1.337-1.113 2.652-3.494.629-4.011 4.013-1.944-.593.136-1.175 0-2.675-1.646.583-2.747 1.711-2.675 4.012-15.676-.521-24.36 5.948-30.755 14.709-4.598-.585-7.494.527-10.697 1.338 1.493 1.645 1.164 2.746-1.337 2.674 1.549 1.979 1.549 3.37 0 5.349-3.31.17-2.273-1.637 0-1.337-3.339-3.348-9.962-3.41-8.023-12.034-8.074 3.123-16.945 2.921-29.417 4.012-.246-1.138.521-1.262 1.337-1.337.262-1.597-2.009-.668-2.675-1.337-1.114-1.121-.104-4.347-2.674-4.013-10.302.396-11.882 9.515-18.721 13.372-.712-.572-5.05-.657-5.35-1.338.22.499 1.545-4.219 0-2.674-1.383 1.383-.877.603-1.337-1.337-1.256-.836-1.106 1.291-1.337 1.337-1.467.293-.979-1.323-1.338-1.337-2.235-.086-7.043 1.214-8.022-1.338-.434.771-3.851 1.961-4.012 2.675-.17.755.988 1.887 1.337 1.337-1.45 2.284-3.388 2.229-4.011 5.349-1.091.872-1.323-1.338-1.338-1.337-1.298.099-1.988 4.217-2.674 1.337-1.388.123.139 4.713 0 9.36-.001.029-1.565.196-1.337 1.337-.005-.018 2.136.347 1.337 1.337-1.332.012-2.67.012-4.007.012zm217.96-659.22c-6.043 6.043 2.453-.865 2.674-2.674-1.728.054-1.782 1.784-2.674 2.674zm-181.85 639.17c-6.043 6.043 2.453-.865 2.675-2.675-1.73.054-1.783 1.784-2.675 2.675zm-613.76-278.13c-5.522-2.817.507 1.761 1.337 4.012 5.522 2.817-.506-1.761-1.337-4.012zm774.22-343.65c2.629 1.744 14.44.396 12.034-2.674h-12.034c0-.743-1.083-1.518-1.337 0 1.668-.649.771 2.299 1.337 2.674z" fill="#fff"/>
 <path d="m697 964.1c-.383 2.356 6.298 4.141 2.676 5.349-.594-1.189-1.176-2.392-2.676-2.674-.821-1.191-1.614-2.391 0-2.675z" fill="#fff"/>
 <path d="m1056.7 324.93c-.221 1.809-8.717 8.717-2.674 2.674.892-.89.946-2.62 2.674-2.674z" fill="#fff"/>
 <path d="m874.84 964.1c-.222 1.81-8.718 8.718-2.675 2.675.892-.891.945-2.621 2.675-2.675z" fill="#fff"/>
 <path d="m259.75 692.65c-.83-2.251-6.859-6.829-1.337-4.012.831 2.251 6.859 6.829 1.337 4.012z" fill="#fff"/>
 <path d="m48.475 128.37c-2.887 3.233-5.211-1.774-5.349-2.674-.48-3.138 3.819-3.055 4.012-6.687.024-.454 2.001-3.347 2.674-2.674 2.634 2.635-.51-1.831 4.011-1.337 1.88 4.417-2.696 4.351-4.011 6.687.001-.003-1.381 3.563-1.337 2.674-.067 1.388 2.265 2.107 0 2.674-3.074.768-2.451.927 0 1.337z" fill="#fff"/>
 <path d="m7.023 123.02c1.519.254.743 1.342 0 1.337.019 3.142 3.648-.489 2.674-2.674 3.546-1.335.041 6.869 0 5.349.031 1.154 1.788 2.081 1.338 4.011-.062.263-2.504-.256-2.675 0-1.527 2.288.389 6.802-1.337 8.023-3.691.573-1.255-4.985-4.011-5.35-.721-1.442 2.584-.857 2.674-1.337.282-1.497-2.286-4.197-1.337-6.686.348-.912 3.036-.927 2.674-2.673z" fill="#fff"/>
 <path d="m57.835 282.14c.822-1.19 1.616-2.393 0-2.675.829-2.304 6.852-.472 8.022 0 .149.061-.114 1.196 0 1.337.37.452 2.236-.406 2.675 0 .7.648-.867 1.629-1.338 1.337-.048-.03.562 2.308 1.338 1.337.04-.051.015-1.331 0-1.337.145.056 2.635 1.251 2.674 1.337.233.52-.4 2.312 0 2.674.999.907 3.184.287 4.011 1.337.672.854-.417 2.939 1.337 2.674.822-1.943 1.616.137 0 0 .583 1.646 1.711 2.746 4.011 2.674-1.362 1.758-1.311 4.93-2.674 6.687h-5.349c1.766-5.286-5.286.428-1.337-2.674.332-2.542-2.921-1.562-4.013-2.674-.416-.425.452-2.305 0-2.675-1.003-.82-2.534-.999-2.674-2.674-1.348-1.741-.642-.417 0 0 5.559 3.605-1.609-4.012-6.683-6.685z" fill="#fff"/>
 <path d="m376.08 280.8c9.224.136 20.124-1.403 24.068 4.012-1.738 3.32 3.923 5.549 0 6.686.758 1.249 3.719 2.026 1.337 2.675.832 5.056 5.586-1.445 5.35 5.349 2.434-2.464 4.209 1.207 6.686 1.337 1.548.082 1.932 1.709 2.674 2.674 1.047 1.358 2.867 1.479 4.012 2.675.868.907-1.288 1.516-1.337 1.337 1.006 3.68 6.389 7.329 9.359 8.022-1.177 6.44.722 21.446-5.349 26.744v14.708c-1.178 2.896-3.86-1.533-4.011 1.337-.14 2.643-6.115.795-12.035 1.337.492-2.274-1.043-2.522-2.674-2.675-.428-3.101.215-5.134 1.337-6.686.195-1.777-4.497-4.977-1.337-5.35-.98-1.249-2.433-2.025-4.013-2.674-.84-1.246 1.298-1.12 1.337-1.337.305-1.665-2.114-.591-2.674-1.337-.677-.902 1.163-1.628 1.337-1.337-.854-1.431-2.488-2.054-4.011-4.011-1.031-1.265 1.313-2.743 1.337-2.675-.34-.95-1.998-1.794-2.674-2.674-1.247-1.623-3.557-5.368-5.349-8.022-1.854-.038-.322 1.708 0 1.337-2.363 2.716-3.108-3.307-6.687-4.012.254-1.518 1.341-.742 1.337 0 3.616-1.201-2.82-3.228-4.011-4.012-.872-1.09 1.338-1.323 1.337-1.337-.14-1.86-2.135-.29-2.674-1.337.34.661 1.329-4.335 0-2.674-1.409 1.762-.736.267-1.337-1.337.052.138-2.285-.579-1.337-1.337 3.568-2.855-3.186.122 0-2.675.039-1.853-1.708-.323-1.337 0-4.221-3.688-4.346-12.474-2.675-18.72 3.598.921 2.586-2.764 4.014-4.011z" fill="#fff"/>
 <path d="m424.22 312.9c-1.168-2.33-4.475-5.151 0-2.674 1.167 2.33 4.474 5.151 0 2.674z" fill="#fff"/>
 <path d="m154.11 385.1c-5.429.526-9.316-.489-9.359-5.349 4.296.823 1.833-4.813 5.349-1.337-.136-3.431-4.981-2.149-6.686-4.013.072-8.023 1.703-9.783 4.011-17.383-1.23-2.335-4.18-2.951-8.023-2.674 2.447-5.354-1.903-9.671 1.337-14.708-4.306-.294-5.657 2.365-10.697 1.337v-6.687c-.331-1.451-2.659-.906-2.674-2.674-4.229 1.66-.253 3.89-4.012 6.687-4.638-1.072-5.14 1.992-9.359 1.337.242-5.127-1.095-.485-4.012-1.337 1.604-1.534.521-3.39 0-1.337-1.3-.037-1.038-1.638-1.337-2.674-3.268 3.288-5.798-.989-10.696 0 1.604-1.534.521-3.391 0-1.338-2.597.007-.156-3.098 0-2.674-.216-.583-2.69-1.465-2.675-1.337-.354-2.889 1.03-5.118 1.337-9.36 1.957-3.103 4.238 2.612 4.012-2.674 5.715-1.148 11.839 1.204 18.72 1.337 2.966.058 5.787-1.951 12.035-1.337 2.917.287 4.35.815 9.359 1.337 2.124.222 2.289 1.063 4.012 1.337 2.168.347 4.525-.392 6.686 0 .111.021-.108 1.262 0 1.338 1.131.789 4.014-.45 5.35 0 .476.16.007 1.268 1.337 1.337-.204-.012 3.898 1.221 4.012 1.337-.528-.545-1.444 4.118 0 2.674 1.816-1.816.89.174 2.674 2.674 1.519-.254.742-1.342 0-1.337.472-1.873 2.354-.115 2.674 1.337 2.274-.492 2.523 1.042 2.674 2.674 1.724-1.842 5.809-1.323 9.36-1.337-1.055 4.773 5.13 4.439 6.687 6.687 1.062 1.533.726 3.468 1.337 5.349.147.456 1.268.023 1.337 1.337.069 1.333-.057 2.677 0 4.012-4.782-3.372.543 2.558-4.011 4.012-.792 4.109 1.68 10.696-1.338 10.696-1.983 0 .527 2.153 0 4.013-1.533-1.605-3.389-.521-1.337 0 .095.854-1.8 1.594-2.674 1.337-1.312-.386-.658-2.442-1.337-2.674-1.083-.37-2.613 2.015-4.012 0 1.494-1.646 1.165-2.746-1.337-2.676.73-1.942-1.563-6.91 1.337-6.686-.575-2.1-4.206-1.143-2.674-5.349-6.324.337-8.79.551-12.034 1.337 1.54 1.581 1.513 4.727 1.337 8.022-2.651 3.416 1.388 6.147-1.337 8.022.322 3.446 2.3-1.836 5.349 0 .793 4.054-1.112 6.103-2.674 8.022-1.192 1.465-4.393 4.021-6.686 4.012 2.681 2.728-.596 2.625-1.342 5.351z" fill="#fff"/>
 <path d="m1031.3 342.31c.254-1.518 1.341-.743 1.337 0h12.034c2.406 3.07-9.405 4.418-12.034 2.674-.566-.374.331-3.322-1.337-2.674z" fill="#fff"/>
 <path d="m396.14 373.07c.254 1.519 1.341.742 1.337 0 2.799 2.987.926 7.587 1.337 12.034.315 3.41 2.353 7.124 1.337 10.697-3.896-2.362-1.537 4.096-2.674 2.674-1.28-1.601-.956-.437-1.337 1.337-6.635 1.352-4.263-4.227-9.36-1.337-1.154-4.639-5.284-6.303-8.022-9.36-.97-4.09 2.307-3.933 1.337-8.022 4.266.793 4.135-2.511 6.686 0-2.681-2.66.421-6.366 1.337-9.36h9.36c.245 1.137-.522 1.261-1.338 1.337z" fill="#fff"/>
 <path d="m196.9 387.78c3.156 1.788-4.315 9.368-9.359 9.36.996-6.057-3.67 2.044-2.674-4.012-3.78-1.105-3.465 1.885-6.687 1.337-3.584-5.984 1.95-12.758 9.36-12.035.246 1.137-.521 1.261-1.337 1.337.159 2.232 5.701-1.524 5.349 4.011.993-.396 2.279-1.799 4.012-1.337.243.067.788 4.527 1.336 1.339z" fill="#fff"/>
 <path d="m64.521 500.1c2.354.322 3.048 2.301 2.674 5.349-2.795.566-3.541-.917-5.349-1.337.473-1.757 2.355-2.103 2.675-4.012z" fill="#fff"/>
 <path d="m160.8 544.23c-5.924 4.979 2.349 10.685 1.337 18.721-.77-.353-1.798 3.55-2.674 2.674-.051-.051-.048-1.271 0-1.337.013-.018-2.313.559-1.337 1.337 1.739 1.394.091.387 0 1.339-.439 4.58-.317 14.137 1.337 18.72-3.17-.888-1.726 1.93-1.337 1.337-.798 1.222-3.687 2.047-1.337 2.675-.037 1.301-1.638 1.038-2.675 1.337 1.55 1.979 1.55 3.37 0 5.35-2.889-.338-6.146-7.084-4.012-8.022-.757-1.249-3.717-2.026-1.337-2.675-.979-1.248-2.432-2.025-4.012-2.674.037-1.302 1.637-1.038 2.674-1.338-3.39-3.267 2.819-2.85 1.337-8.022-.254-1.083-1.342-1.333-1.337-2.675-4.198 1.484-3.533.626-6.687-1.337.733-5.333.733-4.026 0-9.36 1.533 1.605 3.39.521 1.338 0 .2-3.326 4.527-.391 5.349 0-.391-.82-3.326-5.146 0-5.349-.879-1.794-2.858-2.49-5.349-2.674.821-1.19 1.615-2.393 0-2.676 2.393-2.926 4.774-4.893 6.686-2.674 1.165 1.026.824-8.536 2.674-6.687 1.383 1.384 1.187.294 0 0 3.573-5.475 3.878 2.808 5.35 1.338 2.586-2.587-.049 2.16 4.012 2.672z" fill="#fff"/>
 <path d="m255.74 696.66c-3.131 1.52 3.425 4.473 5.35 5.35.852 2.917-3.79 4.254 1.337 4.011.177 3.297.203 6.443-1.337 8.023-1.519-.254-.743-1.343 0-1.337-1.424-4.212-2.32 2.426-2.674 2.674-1.224.854-1.14-1.302-1.338-1.337-1.073-.196-2.156 4.438-2.674 1.337-1.983.584.528 1.711 0 4.012-1.249.98-2.025 2.432-2.674 4.012-5.209 1.555-10.453-3.689-6.686-6.687.458-1.604-2.256-.656-2.675-1.337-.975-1.584 1.373-2.423 1.338-2.674-.24-1.683-2.353-.425-2.675-1.339-.532-1.51 1.341-2.663 1.338-2.674-.55-1.744-1.799-.229-2.675-1.337-.425-.537-1.323-5.167-1.337-5.349-.185-2.557 1.891-2.877 1.337-6.688 6.388-.729 13.729-2.246 17.384 2.676 3.872 1.497-2.054 1.442-1.339-1.336z" fill="#fff"/>
 <path d="m261.08 724.74c.879-4.005 2.857 1.278 5.349 0v22.731c-1.645.584-2.746 1.711-2.674 4.012-1.646-1.493-2.746-1.164-2.674 1.337h-8.023c.482-4.729-.69-8.13 0-10.696.07-.263 2.442.231 2.674 0 .749-.749-1.099-1.688-1.337-1.338 2.096-3.093 4.05-3.33 6.687-5.349-.888-1.632-4.549.716 0-4.012.003-1.96-1.663-.189-1.337 0-3.774-2.194.265-2.955 0-6.687 1.083.254 1.333 1.342 2.674 1.337.244-1.136-.523-1.259-1.339-1.335z" fill="#fff"/>
 <path d="m675.6 813c-1.943.594.136 1.175 0 2.675 1.944.593-.136 1.175 0 2.675-4.198.632-3.532-3.6-6.686-4.012-3.15-.029-3.938 2.304-8.023 1.337-.036-1.301-1.637-1.037-2.674-1.337-.206-3.326 2.101-4.141 2.674-6.687 1.199-.859 1.182 1.321 1.338 1.337 1.424.144 1.757-3.55 2.674-4.012 1.086-.546 3.104.982 2.676 1.338 1.321-1.09.584-3.745 2.674-5.349 3.541-.56 2.887 5.711 4.012 9.358.28.915 4.2 5.674 1.335 2.677z" fill="#fff"/>
</svg>
