<svg version="1.1" viewBox="0 0 437.59 441.51" xmlns="http://www.w3.org/2000/svg">
 <path class="land" d="m48.818 342.55.5-.14999.11.83999 2.19-.48 2.32.08 1.69.09 1.92-2.07 2.1-1.98 1.77-1.9.53 1.05.38 2.44-1.43.01-.23 2 .5.42-1.27.6-.01 1.25-.82 1.26-.07 1.21-.57.64-8.42-1.52-1.08-3.08z" fill="#fff" title="United Arab Emirates"/>
 <path class="land" d="m75.828 305.73 2.86 1.3 2.11-.46.59-1.55 2.21-.52 1.58-1.05.56-2.79 2.36-.68.44-1.25 1.33.94.84.11 1.56.03 2.12.74.85.42 2.03-1.12.95.67.9-1.6 1.68.07.43-.52.3-1.43 1.21-1.23 1.51.8-.3 1.09.85.17-.27 2.95 1.11 1.15.98-.74 1.25-.34 1.74-1.57 1.93.26h2.9l.5 1.01-1.64.39-1.42.65-3.22.4-3.01.73-1.64 1.51.66 1.46.33 1.7-1.4 1.43.12 1.3-.77 1.22-2.67-.11 1.1 2.22-1.78.85-1.19 2 .15 1.98-1.1.92-1.03-.3-2.15.43-.3.91h-2.09l-1.56 1.84-.1 2.75-3.65 1.33-1.95-.28-.57.7-1.67-.4-2.81.48-4.69-1.64 2.54-2.93-.23-2.1-2.12-.55-.22-2.09-.92-2.64 1.2-1.83-1.22-.49001.77-2.45z" fill="#fff" title="Afghanistan"/>
 <path class="land" d="m164.04 349.24-.05 2.15-.98-.46.18 2.41-.8-1.56-.16-1.52-.54-1.45-1.17-1.76-2.58-.12.26 1.25-.88 1.67-1.2-.61-.41.55-.79-.33-1.08-.27-.44-2.48-.97-2.28.47-1.84-1.72-.82.62-1.12 1.75-1.15-2.02-1.63.99-2.11 2.22 1.34 1.34.16.25 2.15 2.66.42 2.61-.05 1.61.53-1.29 2.59-1.26.18-.86 1.73 1.53 1.58.46-1.94.78-.01z" fill="#fff" title="Bangladesh"/>
 <path class="land" d="m224.41 399.6 1.11-1.05 2.39-1.53-.13 1.38-.16 1.78-1.34-.09-.59.95z" fill="#fff" title="Brunei Darussalam"/>
 <path class="land" d="m161.31 331.61 1.14 1-.2 1.93-2.29.09-2.36-.21-1.77.49-2.55-1.19-.05-.63 1.85-2.34 1.51-.8 2.01.73 1.48.08z" fill="#fff" title="Bhutan"/>
 <path class="land" d="m214.83 355.1.63 1.13-1.23 1.3-.65 1.7-2.42 1.41-2.3-.91-.08-2.53 1.38-1.34 3.06-.83zm63.33-96.67-2.43 1.65h-4.26l-1.13-3.95-3.32-3.03-4.88-1.38-1.04-4.28-.98-2.73-1.05-1.94-1.73-4.61-2.46-1.71-4.2-1.39-3.72.13-3.48.84-2.32 2.31 1.54 1.1.04 2.52-1.56 1.45-2.53 4.73.03 1.93-3.95 2.74-3.37-1.63-1.37 3.25-1.98 4.23.72 1.71 1.59-.52999 2.77.64999 2.16-1.54 2.25 1.33 2.54 2.89-.31 1.45-2.21-.46-4.07.54-1.97 1.16-2.05 2.66-4.28 1.55-2.79 2.1-2.88-.8-1.58-.36-1.47 2.54.9 1.5.45 1.28-1.96 1.3-2.01 2.05-3.28 1.34-4.2.14-4.53 1.31-3.26 2.01-1.24-1.16h-3.39l-4.15-2.29-2.77-.57-3.73.53-5.79-.85-3.09.09-1.65-2.27-1.28-3.57-1.73-.43-3.39-2.45-3.78-.55-3.33-.68-1.01-1.73 1.08-4.73-1.93-3.32-4-1.57-2.36-2.23-.74-2.97-1.1.35-2.13 2.83-2.33.39-.13 4.19-1.56 1.86-5.56-1.35-2.02 7.26-1.44.89-5.55 1.58 2.52 6.75-1.92 1 .22 2.17-.39.85-4.42 2.03-1 1.48-3.6.44-1.06 2.35-2.97-.49-1.94.72-2.68 1.73.39.85-.8.83.71 3.32.92-.36 1.7.81-.1 1.38.42 2.01.5 1.01 2.07 1.63.83 2.66 4.42 1.33.14-.04 3.88-1.37 2.88 1.37-.91 2.76-1.6 2.23-1.24.1h-.05l-.18 1.74 1.12 1.71-.09 1.69-2.01-.44.79 3.63 2.75 2.07 3.9 2.26 1.16-.77 2.25.99 2.83 2.09 1.58.46.94 1.53 2.18.63 2.28 1.39 3.17.73 3.27.31 1.71-.66.24 2.48 1.85-2.34 1.51-.8 2 .73 1.48.08 1.23.85 2.26-.39 2.55-2.36 3.23-2.03 2.35.78 2-1.35 1.31 1.99-.95 1.33 3.02.47 1.64-.24.94 1.86 1.22.75.08 2.4-.11 2.57-2.66 2.58-.34 3.63 2.96-.51.67 2.8 1.78.59-.82 2.51 2.08 1.13 1.21.55 2.06-.87.08 1.24.25.7 1.5.08-.42-3.43 1.45-.44 1.5-.74 2.24.02 2.73-.35 2.39-1.62 1.35 1.14 2.56.55-.44 1.74 1.33 1.22 2.82.78 1.33-.49 3.76.96-.66 1.16.74 2.16 1.55-.17.96-3.15 2.97-.46 3.92-1.5 1.59-1.5.97.98 1.71-1.34 3.16-.35 3.9-2.55 3.86-2.82 2.6-3.68 2.27-4.09 2.05-3.41 1.57-.28.71-2.52.43-2.61-1.65-1-.67-1.73 1.76-.89.05-2.43-1.9-2.53-1.71-3.05-1.1-3.31-3.02-1.86 1.44-2.39 2.73-1.73 1.31-1.87 3.97-.97-.46-1.84-1.81-.09-2.49-1.37-3.14 2.51-2.22-1.02-.09-1.58-2.29-.58-1.48-2.41 1.43-1.68 2.75-.17 1.73-2.34 3.17-2.54 2.44-1.3 1.48 1.93-2.22 2.45.59 1.41-1.49 1.67 3.02-.98 2.06-1.69 3.92-1.06 2.28-2.35 3.09-1.98 1.93-2.64 1.33 1.17 2.42.14-.44-1.97 4.33-1.62 1.11-2.13 1.81 2.24-.02-1.93 1.43-.1.4-4.55-.74-3.36 2.41-1.4 3.4.7 1.89-3.89.96-4.46 1.09-1.51 1.47-3.76z" fill="#fff" title="China"/>
 <path class="land" d="m242.67 440.89-1.18.05-3.72-1.98 2.61-.56 1.47.86.98.86zm10.43-.27999-2.4.62-.34-.34.25-.96 1.21-1.72 2.77-1.12.28.56.05.86zm-18.32-5.77 1.01.75 1.73-.23.7 1.2-3.24.57-1.94.38-1.51-.02.96-1.62 1.54-.02zm14.03-.01-.41 1.56-4.21.8-3.73-.35-.01-1.03 2.23-.59 1.76.84 1.87-.21zm-40.04-3.69 5.37.28.62-1.16 5.2 1.35 1.02 1.82 4.21.51 3.44 1.67-3.2 1.07-3.08-1.13-2.54.08-2.91-.20999-2.62-.51-3.25-1.07-2.06-.28-1.17.35-5.11-1.16-.49-1.21-2.57-.21 1.92-2.68 3.4.17 2.26 1.09 1.16.21zm73.18-1.58-1.44 1.91-.27-2.11.5-1.01.59-.95.64.82zm-20.96-7.71-1.05.93-1.94-.51-.55-1.2 2.84-.13zm9.04-1.01 1.02 2.13-2.37-1.15-2.34-.23-1.58.18-1.94-.1.67-1.53 3.46-.12zm10.29-5.42.78 4.51 2.9 1.67 2.34-2.96 3.22-1.68h2.49l2.4.97 2.08 1 3.01.53.05 9.1.05 9.16-2.5-2.31-2.85-.57-.69.8-3.55.09 1.19-2.29 1.77-.78-.73-3.05-1.35-2.35-5.44-2.37-2.31-.23-4.21-2.58-.83 1.36-1.08.25-.64-1.02-.01-1.21-2.14-1.37 3.02-1 2 .05-.24-.74-4.1-.01-1.11-1.66-2.5-.51-1.19-1.38 3.78-.67 1.44-.91 4.5 1.14zm-24.96-7.16-2.25 2.76-2.11.54-2.7-.54-4.67.14-2.45.39999-.4 2.11 2.51 2.48 1.51-1.26 5.23-.95-.23 1.28-1.22-.4-1.22 1.63-2.47 1.08 2.65 3.57-.51.95999 2.52 3.22-.02 1.84-1.5.82-1.1-.98 1.36-2.29-2.75 1.08-.7-.77.36-1.08-2.02-1.64.21-2.72-1.87.85.24 3.25.11 4-1.78.41-1.2-.81999.8-2.57-.43-2.69-1.18-.02-.87-1.91 1.16-1.83.4-2.21 1.41-4.2.59-1.15 2.38-2.07 2.19.82 3.54.39 3.22-.12 2.77-2.02zm9.67.8-.15 2.43-1.45-.27-.43 1.69 1.16 1.47-.79.33-1.13-1.76-.83-3.56.56-2.23.93-1.01.2 1.52 1.66.24zm-30.32-1.94 3.14 2.58-3.32.33-.94 1.9.12 2.52-2.7 1.91-.06 2.77-1.08 4.27-.41-.99-3.19 1.26-1.11-1.71-2-.16-1.4-.89-3.33 1-1.02-1.35-1.84.15-2.31-.32-.43-3.74-1.4-.77-1.35-2.38-.39-2.44.33-2.58 1.67-1.85.47 1.86 1.92 1.57 1.81-.57 1.79.2 1.63-1.41 1.34-.24 2.65.78 2.29-.59 1.44-3.88 1.08-.97.97-3.17h3.22l2.43.47-1.59 2.52 2.06 2.64zm-33.81 21.42-3.1.06-2.36-2.34-3.6-2.28-1.2-1.69-2.12-2.27-1.39-2.09-2.13-3.9-2.46-2.32-.82-2.39-1.03-2.17-2.53-1.75-1.47-2.39-2.11-1.56-2.92-3.08-.25-1.42 1.81.11 4.34.54 2.48 2.73 2.17 1.89 1.55 1.16 2.66 3 2.85.04 2.36 1.91 1.62 2.33 2.13 1.27-1.12 2.27 1.61.97 1.01.07.48 1.94.98 1.56 2.06.25 1.36 1.76-.7 3.47z" fill="#fff" title="Indonesia"/>
 <path class="land" d="m4.3584 315.65-.49 1.05-1.02-.46-.58 2.2.7.36-.71.46-.13.86 1.32-.44999.07 1.27-1.4 5.17-1.84-5.55.81-1.08-.19-.19.74-1.53.57-2.5.4-.84.08-.03h.94l.26-.58.75-.05.04 1.37-.38.5z" fill="#fff" title="Israel"/>
 <path class="land" d="m177.31 331.26-.22-1.2-3.02-.47.95-1.34-1.32-1.98-2 1.34-2.35-.78-3.23 2.03-2.55 2.35-2.26.4 1.14 1-.2 1.93-2.29.09-2.36-.21-1.77.49-2.55-1.19-.05-.63-.24-2.48-1.71.67-.22 1.35.37 1.99-.32 1.24-2.33.05-3.38-.73001-2.16-.29-1.62-1.59-3.84-.41-3.66-1.77-2.64-1.55-2.72-1.2 1.09-2.99 1.78-1.46-3.9-2.27-2.75-2.06-.79-3.63 2.01.44.09-1.69-1.11-1.71.18-1.74h.05l1.24-.1 1.6-2.23.91-2.76-2.88-1.37-3.88 1.37-.14.04.19.06-4.61-1.39-.83-2.66-2.07-1.63-1.64.39-1.42.64999-1.28.16001-.12.11-3.08 2.34.36 1.15.96-.01 3.04 2.61-1.87 1.68.58 4.8 2.38.99.09-.03.01.04 2.27 1.63-2.39 1.91.04 2.33-2.72 3.24-1.76 3.26-2.93 3.32-3.26-.24-3.09 3.3 1.84 1.4.32 2.39 1.57 1.56.56 2.64-6.17-.01-1.87 2.04 3.29 2.58.83 1.18-1.35 1.09 3.66 3.63 1.98.36 4.08-1.79.54 2.8-.01 3.58.84 3.77 1.16 5.64 2.55 3.97.49 1.8.69 3.58 1.49 2.74.98 1.34 1.08 2.86 1.3 3.96 2.65 2.63 1.13-.81.94-1.92 2.56-.8-.85-.93 1.27-2.15 1.45-.14.02-4.83 1.18-2.71-.15-2.37-.58-3.75.84-2.2 1.31-.16001 2.53-1.03 1.4-.72001v-1.34l2.79-1.91 2.11-1.85 3.14-3.46 4.03-2 1.5-1.76-.16-2.25 3.46-.62 1.9.04.41-1.1-.44-2.48-.97-2.28.47-1.84-1.72-.82.62-1.12 1.75-1.15-2.02-1.63.99-2.11 2.22 1.34 1.34.16.25 2.15 2.66.42 2.61-.05 1.61.52999-1.29 2.59-1.26.18-.86 1.73 1.53 1.58.46-1.94.78-.01 1.47 4.8 1.39-.72-.3-1.28.63-1.03.11-3.15 2.19.7 1.25-2.52.15-1.5 1.54-2.6-.08-1.78 3.63-2.16 2 .57-.23-1.93z" fill="#fff" title="India"/>
 <path class="land" d="m31.558 304.6 1.83 1.04.22 2-1.42 1.17-.65 2.64 1.95 3.18 3.43 1.82 1.45 2.5-.46 2.37h.89l.03 1.73 1.55 1.69-1.66-.14999-1.89-.27-2.06 3.08-5.21-.26-7.9-6.49-4.18-2.29-3.38-.89-1.13-4.04 6.21-3.5 1.06-4.12-.27-2.52 1.54-.86001 1.44-2.18 1.2-.55 3.26.46.99.89 1.34-.59z" fill="#fff" title="Iraq"/>
 <path class="land" d="m55.388 300.36 2.47-.68 1.99-2.02 1.87.1 1.23-.66 2 .33 3.1 1.79 2.24.39 3.2 3.09 2.09.12.25 2.91-1.14 4.25-.77 2.45 1.22.49-1.2 1.83.92 2.64.22 2.09 2.12.55.23 2.1-2.54 2.93 1.38 1.68 1.13 1.93 2.68 1.4.08 2.77 1.34.51.23 1.44-4.04 1.61-1.06 3.6-5.27-.93-3.06-.71-3.16-.41-1.2-3.81-1.34-.56-2.16.56-2.82 1.51-3.43-1.03-2.83-2.41-2.7-.9-1.87-3.01-2.07-4.27-1.51.52-1.78-1.07-1.05 1.26-1.55-1.69-.03-1.73h-.89l.46-2.37-1.45-2.5-3.43-1.82-1.95-3.18.65-2.64 1.42-1.17-.22-2-1.83-1.04-1.82-4.14-1.53-2.83.54-1.09-.87-4.12 1.92-1.03.44 1.37 1.42 1.66 1.92.47 1.02-.1 3.31-2.66 1.05-.26999.82 1.07-.96 1.78 1.75 1.86.69-.17.89 2.61 2.66.73 1.95 1.76 3.98.60001 4.38-.92001z" fill="#fff" title="Iran"/>
 <path class="land" d="m3.8684 316.7.49-1.05 3.12 1.32 5.49-3.54 1.13 4.04-.53.49-5.62 1.65 2.8 3.26-.93.54-.46 1.09-2.14.44-.67 1.16-1.22.98-3.12-.51-.09-.45999 1.4-5.17-.07-1.27.42-.96z" fill="#fff" title="Jordan"/>
 <path class="land" d="m281.71 310.84.36 1.15-1.58 2.03-1.15-1.07-1.44.78-.74 1.95-1.83-.95.02-1.58 1.55-2 1.59.39 1.15-1.42zm17.77-10.28-1.06 2.78.49 1.73-1.46 2.42-3.58 1.6-4.93.20999-4 3.84-1.88-1.29-.11-2.52-4.88.75-3.32 1.59-3.28.06 2.84 2.46-1.87 5.61-1.81 1.37-1.36-1.27.69-2.96-1.77-.95999-1.14-2.28 2.65-1.03 1.47-2.11 2.82-1.75 2.06-2.33 5.58-1.02 3 .7 2.93-6.17 1.87 1.67 4.11-3.51 1.59-1.38 1.76-4.38-.48-4.1 1.18-2.33 2.98-.68 1.53 5.11-.08 2.94-2.59 3.6zm8.23-25.93 1.97.83 1.98-1.65.62 4.35-4.16 1.05-2.46 3.76-4.41-2.58-1.53 4.12-3.12.06-.39-3.74 1.39-2.94 3-.21.82-5.38.83-3.09 3.29 4.12z" fill="#fff" title="Japan"/>
 <path class="land" d="m103.17 281.94.63-1.66 1.84-.54 4.62 1.31.43-2.24 1.59-.8 4 1.61 1.02-.42 4.65.1 4.16.4 1.4 1.37 1.73.55-.39.86-4.42 2.03-1 1.48-3.6.44-1.06 2.35-2.97-.49-1.93.72-2.68 1.72.39.85-.8.83-5.3.55-3.47-1.17-3.04.27999.27-2.1 3.05.61 1.03-1.13 2.13.36 3.59-2.64-3.32-1.96-2 .93-2.07-1.4 2.35-2.43z" fill="#fff" title="Kyrgyzstan"/>
 <path class="land" d="m194.39 382.43-1.14-1.48-1.41-2.94-.67-3.45 1.8-2.38 3.62-.55 2.63.41001 2.31 1.13 1.27-1.99 2.49 1.06.65 1.92-.35 3.42-4.71 2.19 1.23 1.73-2.94.2-2.43 1.14z" fill="#fff" title="Cambodia"/>
 <path class="land" d="m270.5 281.45.39.67-1.06-.23-1.22 1.27-.84 1.28.11 2.67-1.45.81-.5.65-1.06 1.08-1.87.6-1.21.98-.09 1.57-.33.4 1.12.58 1.59 1.58-.41.86-1.19.23-1.98.17-1.09 1.6-1.26-.12-.17.32-1.36-.67-.34.66-.82.29-.1-.66-.73-.32-.75-.57.77-1.57.66-.42-.25-.65.71-1.94-.19-.58999-1.63-.4-1.32-.97 2.28-2.35 3.09-1.98 1.93-2.65 1.33 1.17 2.42.14-.44-1.97 4.33-1.63 1.12-2.13z" fill="#fff" title="North Korea"/>
 <path class="land" d="m264.08 295.36 2.42 4.18.69 2.27.02 3.98-1.05 1.88-2.54.66-2.24 1.41-2.53.29001-.31-1.85.52-2.57-1.24-3.6 2.08-.58999-1.92-3 .17-.32 1.26.12 1.09-1.6 1.98-.17 1.19-.23z" fill="#fff" title="South Korea"/>
 <path class="land" d="m38.718 324.59.58 1.41-.25.73001.9 2.41-1.98.08-.7-1.51-2.5-.31 2.06-3.08z" fill="#fff" title="Kuwait"/>
 <path class="land" d="m103.17 281.94-1.61.7-3.69 2.61-1.23 2.65-1.05.02-.76-1.75-3.57-.12-.57-3.06-1.37-.03.21-3.8-3.35-2.8-4.81.3-3.29.56-2.68-3.5-2.29-1.48-4.35-2.84-.52-.35-7.22 2.35.11 14.13-1.44.18-1.96-2.93-1.9-1.06-3.18.79-1.24 1.25-.16-.92.69-1.57-.53-1.32-3.25-1.3-1.27-3.47-1.54-.98-.1-1.28 2.73.37.11-2.88 2.38-.64 2.45.59.51-3.91-.5-2.51-2.81.2-2.38-1-3.25 1.79-2.61.86-1.43-.66.29-2.1-1.79-2.76-2.08.11-2.38-2.83 1.62-3.22-.82-.87 2.23-4.77 2.89 2.53.35-3.19 5.78-4.85 4.38-.12 6.19 3.1 3.31 1.79 2.98-1.87 4.44-.08 3.59 2.29.82-1.31 3.93.19.71-2.11-4.55-3.09 2.69-2.23-.52-1.25 2.69-1.21-2.02-3.2 1.28-1.62 10.49-1.66 1.37-1.19 7.02-1.79 2.52-2.04 5.04 1.06.88 5.01 2.93-1.16 3.6 1.63-.23 2.58 2.69-.27 7.02-4.49-1.02 1.5 3.58 3.66 6.26 11.58 1.5-2.33 3.86 2.56 4.03-1.14 1.54.8 1.35 2.55 1.96.84 1.2 1.85 3.61-.58 1.49 2.63-2.14 2.83-2.33.4-.13 4.18-1.56 1.86-5.56-1.35-2.02 7.26-1.44.89-5.55 1.58 2.52 6.75-1.92 1 .22 2.16-1.73-.55-1.4-1.37-4.16-.4-4.65-.1-1.02.42-4-1.61-1.59.8-.43 2.24-4.62-1.31-1.84.54z" fill="#fff" title="Kazakhstan"/>
 <path class="land" d="m199.22 372.04.91-1.3.13-2.44-2.27-2.53-.18-2.87-2.13-2.38-2.12-.2-.56 1.02-1.65.08-.84-.51-2.95 1.74-.07-2.62.69-3.11-1.89-.13-.16-1.78-1.22-.92.6-1.1 2.39-1.94.25.7 1.49.08-.42-3.43 1.45-.44 1.64 2.37 1.26 2.72 3.45.03 1.09 2.59-1.79.77-.81 1.07 3.36 1.76 2.33 3.46 1.77 2.57 2.12 2.02.71 2.04-.51 2.88-2.49-1.06-1.27 1.99z" fill="#fff" title="Lao People's Democratic Republic"/>
 <path class="land" d="m4.6384 313.76-.75.05-.26.58h-.94l1-2.73 1.39-2.38.06-.12 1.26.18.46 1.32-1.53 1.27z" fill="#fff" title="Lebanon"/>
 <path class="land" d="m133.52 391.2-.42 2.92-1.17.80001-2.44.63999-1.34-2.23-.49-4.03 1.27-4.58 1.93 1.57 1.31 1.98z" fill="#fff" title="Sri Lanka"/>
 <path class="land" d="m183.31 354.78-1.64 1.28-1.98.14-1.28 3.19-1.18.53 1.36 2.57 1.78 2.13 1.14 1.92-1.02 2.52-.97.53.67 1.45 1.87 2.28.32 1.6-.05 1.33 1.1 2.6-1.54 2.65-1.36 2.91-.27-2.1.86-2.18-.94-1.68.23-3.11-1.14-1.48-.91-3.44-.51-3.66-1.21-2.4-1.85 1.46-3.19 2.06-1.57-.26-1.74-.67.97-3.61-.58-2.74-2.2-3.39.34-1.07-1.64-.38-1.99-2.42-.18-2.41.98.46.05-2.15 1.39-.72-.3-1.28.63-1.03.11-3.15 2.19.7 1.25-2.52.15-1.5 1.54-2.6-.08-1.78 3.63-2.16 2 .57-.23-1.93.99-.58-.22-1.2 1.64-.24.94 1.86 1.22.75.09 2.4-.12 2.57-2.65 2.58-.34 3.63 2.96-.5.67 2.8 1.78.59-.82 2.5 2.08 1.13 1.22.55 2.05-.87.09 1.24-2.39 1.94-.6 1.1z" fill="#fff" title="Myanmar"/>
 <path class="land" d="m150.24 253.71 2.96-.74 5.35-3.74 4.27-2.07 2.43 1.35 2.93.06 1.87 2.05 2.8.15 4.06 1.09 2.72-3.03-1.14-2.6 2.91-4.66 3.14 1.87 2.54.53 3.3 1.15.53 3.32 3.99 1.84 2.65-.81 3.54-.57 2.81.58 2.75 2.09 1.7 2.2 2.6-.04 3.53.69 2.58-1.06 3.69-.71 4.11-3.06 1.68.47 1.47 1.46 3.34-.36-1.36 3.25-1.98 4.22.72 1.71 1.59-.53 2.76.65 2.16-1.54 2.25 1.33 2.54 2.89-.31 1.45-2.21-.46-4.07.54-1.98 1.16-2.05 2.66-4.28 1.55-2.79 2.1-2.88-.8-1.58-.36-1.47 2.54.89 1.5.46 1.28-1.97 1.3-2.01 2.05-3.27 1.33-4.21.15-4.53 1.31-3.26 2.01-1.24-1.16h-3.39l-4.15-2.29-2.77-.57-3.73.53-5.79-.85-3.09.09-1.64-2.27-1.28-3.57-1.73-.43-3.39-2.45-3.78-.55-3.33-.68-1.01-1.73 1.08-4.73-1.93-3.31-4-1.57-2.36-2.23z" fill="#fff" title="Mongolia"/>
 <path class="land" d="m187.6 394.9.22 1.44 1.85-.33.92-1.15.64.25999 1.66 1.69 1.18 1.87.16 1.88-.3 1.27.27.96.21 1.65.99.77 1.1 2.46-.05.94-1.99.19-2.65-2.06-3.32-2.21-.33-1.42-1.62-1.87-.39-2.31-1.01-1.52.31-2.04-.62-1.19.49-.5zm49.19 4.83-2.06.95-2.43-.47h-3.22l-.97 3.17-1.08.97-1.44 3.88-2.29.59-2.65-.78-1.34.24-1.63 1.41-1.79-.2-1.81.57-1.92-1.57-.47-1.86 2.05.96 2.17-.52.56-2.36 1.2-.53 3.36-.6 2.01-2.21 1.38-1.77 1.28 1.45.59-.94999 1.34.09.16-1.78.13-1.38 2.16-1.95 1.41-2.19 1.13-.01 1.44 1.42.13 1.22 1.85.78 2.34.84-.2 1.1-1.88.14z" fill="#fff" title="Malaysia"/>
 <path class="land" d="m151.28 331.28-.22 1.35.37 1.99-.32 1.24-2.33.05-3.38-.73001-2.16-.29-1.62-1.59-3.84-.41-3.66-1.77-2.64-1.55-2.72-1.2 1.09-2.99 1.78-1.46 1.16-.78 2.25 1 2.83 2.09 1.57.45999.94 1.53 2.18.63 2.28 1.39 3.17.73z" fill="#fff" title="Nepal"/>
 <path class="land" d="m69.238 352.01-1.05 2.04-1.27-.16-.58.71-.45 1.5.34 1.98-.26.36-1.29-.01-1.75 1.1-.27 1.43-.64.62-1.74-.02-1.1.74.01 1.18-1.36.81-1.55-.27-1.88.98-1.3.16-.92-2.04-2.19-4.84 8.41-2.96 1.87-5.97-1.29-2.14.07-1.22.82-1.26.01-1.25 1.27-.6-.5-.42.23-2 1.43-.01 1.26 2.09 1.57 1.11 2.06.4 1.66.55 1.27 1.74.76 1 1 .38-.01.67-1.02 1.79-.45.84zm-6.92-14.54-.37.56-.53-1.06.82-1.06.35.27z" fill="#fff" title="Oman"/>
 <path class="land" d="m258.54 388.69.29 1.87.17 1.58-.96 2.57-1.02-2.86-1.31 1.42.9 2.06-.8 1.31-3.3-1.63-.79-2.03.86-1.33-1.78-1.33-.88 1.17-1.32-.11-2.08 1.57-.46-.82 1.1-2.37 1.77-.79 1.53-1.06.99 1.27 2.13-.76999.46-1.26 1.98-.08-.17-2.18 2.27 1.34.24 1.42zm-6.71-5.26-1.01.93001-.88 1.79-.88.83999-1.73-1.95.58-.76.7-.79001.31-1.76 1.55-.17001-.45 1.91 2.08-2.74zm-15.36 2.72-3.73 2.67 1.38-1.97 2.03-1.74 1.68-1.96 1.47-2.82.5 2.31-1.85 1.56zm9.48-7.3 1.68.88h1.78l-.05 1.19-1.3 1.2-1.78.85001-.1-1.32.2-1.45zm10.14-.77.79 3.18-2.16-.75.06.95.69 1.75-1.33.63-.12-1.99-.84-.15-.44-1.72 1.65.23-.04-1.08-1.71-2.18 2.69.06zm-11.14-2.59-.74 2.47-1.2-1.42-1.43-2.18 2.4.1zm-.58-15.74 1.73.84.86-.76.25.75-.46 1.22.96 2.09-.74 2.42-1.65.96-.44 2.33.63 2.29 1.49.32 1.24-.34 3.5 1.59-.27 1.56.92.69-.29 1.32-2.18-1.4-1.04-1.5-.72 1.05-1.79-1.72-2.55.42-1.4-.63.14-1.19.88-.73-.84-.67-.36 1.04-1.38-1.65-.42-1.26-.1-2.77 1.13.96.29-4.55.91-2.66z" fill="#fff" title="Philippines"/>
 <path class="land" d="m110.47 314.47-.58-4.8 1.87-1.68-3.04-2.61-.96.01-.36-1.15 3.08-2.34.12-.11-1.94.24-3.01.73-1.64 1.51.66 1.46.33 1.7-1.4 1.43.12 1.3-.77 1.22-2.67-.11 1.1 2.22-1.78.85001-1.19 2 .15 1.98-1.1.92-1.03-.3-2.15.43-.3.91h-2.09l-1.56 1.84-.1 2.75-3.65 1.33-1.95-.28-.57.7-1.67-.4-2.81.48-4.69-1.64 1.38 1.68 1.13 1.93 2.68 1.4.08 2.77 1.34.51.23 1.44-4.04 1.61-1.06 3.6 3.95-.44 4.56-.05 5.16-.58 2.17 2.34.84 2.2 2.05.77 1.87-2.04 6.17.01-.56-2.64-1.57-1.56-.32-2.39-1.84-1.4 3.09-3.3 3.26.24 2.93-3.32 1.76-3.26 2.72-3.24-.04-2.33 2.39-1.91-2.27-1.63-.01-.04-.09.03z" fill="#fff" title="Pakistan"/>
 <path class="land" d="m3.8684 316.7v2.01l-.42.96-1.32.45.13-.86.71-.46-.7-.36.58-2.2z" fill="#fff" title="Palestinian Territories"/>
 <path class="land" d="m46.668 340.99-.19-2.24.76-1.62.76-.33999.85.97.05 1.81-.61 1.81-.78.22z" fill="#fff" title="Qatar"/>
 <path class="land" d="m302.52 99.465 3.98 3.81.34 2.57-4.25.07-5.75-1.08-.49-.52 2.66-3.92zm-103.7-52.29.83-5.72-7.11-8.34-2.11-.98-2.3 1.7-5.12 18.6zm124.77 43.69 3.24-4.25-7.04-2.88-5.23-1.68-.67 3.59 5.21 4.27zm85.31 36.62 3.66-.52001 2.89-2.06.24-1.19-4.06-2.51-2.38-.02-.36.37-3.57 3.64.5 2.73zm-110.44-38.31 10.33.3 2.21-8.14-10.13-6.07-7.4-.51-3.7 2.18-1.51 7.75 5.55 7.01zm-132.62-58.27 4.65 5.73 7.81 4.2 6.12-1.8.69-13.62-6.46-16.04-5.45-9.02-6.07 4.11-7.28 11.83 3.83 3.27zm265.89 127.12-7.61-1.07.65 5.15-1.89-1.74.24-4.44-7.35-7.34-6.87-5.86-3.92-3.44-8.06-3.84-5.83.49-8.95-2.29-1.25 3.62 2.27 5.07-3.47 2.48-4.88-6.99-5.31.89-5.29-1.57-4.97.21-3.75 1.64-3.45-2.29.34-6.02-2.33-3.5-5.58-1.41-11.32 1.62-7.34-6.65-2.39-5.35-25.32-6.06-3.7 4.07 2.02 8.4-4.59-1.24-2.07 2.47-5.43-2.72-4.78 2.38-4.5-4-2.71 9.18-4.41-3.49-3.52-6.98 1.66-3.84-1.29-6.04-4.53-5.14-4.48.05-5.95-1.74-.16 7.47-11.72-1.43-.68-4.58-9-1.65-4.48 1.57-1.23 2.56-1.43-6.39-2.52 1.91-4.15-2.55-3.48-1.43 2.11-3.08 7.37-5.92 3.1-3.24.7-5.85-2.25-4.35-6.32-5.84-8.2-.16-2.56 2.94-.76-6.03-6.35-1.92 3.82-3.13-4.81-4.21-6.62 5.31-2.68 5.33-.77 5.24-5.15-.2-6.29 6.24-2.29-2.61-7.36 1.08-.94 3.15-7.4 1.51-5.45 5.51-3.22.3-3.25 7.02 2.28 5.38-6.08 1.32-6.74-.44-4.88 2.02.28 10.28 2.49 7.62-5.18-5.18-5.82.49-4.69 3.58 1.28 6.37-3-1.59 1.11-8.67-1.47-5.19-1.4.22.65 6.62-5.02 6.04 3.64 7.03-2.24 8.28.67 4.42 3.07.64-1.31 5.08 1.63 4.26-2.43 3.49-.74 3.55-3.08 1.82-1.12 2.51-3.21-1.02 5.49-10.2 1.2-5.01-3.09-4.73.64-11.07-.9-5.94-1.74-2.78 2.66-7.28-.58-5.18-7.42-2.51-2.08 1.88-1.84 8.42-5.17 7.99.08 2.74 1.5 6.49-.92 3.83 3.38.77999.08 1.68 2.85 4.11-1.88 3.97-1.6-1.39.92 7.34-2.03 4.04-3.76 3.86-3.93 3.13-4.82 5.44-5.23 4.07-1.89 19.97-1.34 8.84-1.77 5-1.78 3.54-2.17 2.73-.56 2.42 2.11 1.76.31 2.15-1.66 2.67-2.57.64-3.08.37 1.3 2.44 1.2 1.83 1.81 2.32 1.9-1.5 1.84-1.12 1.89 1.07.71 1.75-1.33 1.39-1.13 2.2.09 2.65 1.88.67.8 1.88.3.11 2.33-1.92-.53-1.25 2.69-1.2-2.02-3.21 1.29-1.62 10.49-1.66 1.37-1.19 7.02-1.79 2.52-2.03 5.04 1.06.88 5.01 2.93-1.17 3.6 1.63-.23 2.58 2.69-.27 7.03-4.49-1.03 1.5 3.58 3.66 6.27 11.58 1.49-2.33 3.86 2.57 4.03-1.14 1.55.8 1.35 2.55 1.96.85001 1.19 1.84 3.61-.58 1.49 2.63 1.1-.35 2.96-.74 5.35-3.74 4.26-2.07 2.44 1.35 2.92.06 1.87 2.04 2.8.16 4.05 1.09 2.73-3.03-1.14-2.6 2.9-4.66 3.14 1.87 2.54.53 3.3 1.15.53 3.32 3.98 1.84 2.65-.81 3.55-.57 2.81.58 2.75 2.09 1.7 2.2 2.6-.04 3.53.7 2.58-1.06 3.69-.71 4.11-3.06 1.68.47 1.47 1.46 3.35-.36 3.37 1.63 3.95-2.74-.03-1.93 2.53-4.72 1.56-1.45-.04-2.52-1.54-1.1 2.32-2.31 3.48-.84 3.72-.13 4.2 1.39 2.46 1.71 1.73 4.61 1.05 1.94.98 2.73 1.04 4.28 4.88 1.38 3.32 3.03 1.13 3.95h4.26l2.43-1.65 4.63-1.24-1.47 3.76-1.09 1.51-.96 4.46-1.89 3.89-3.4-.7-2.41 1.4.74 3.36-.4 4.55-1.43.1.02 1.93.39.66.44-1.26 3.76-2.79 1.76 1.86 1.77-.05 3.74-2.25 1.81-2.28 3.78-4.53 3.81-4.66.94-2.82 4.23-6.01 1.26-6.85.24-5.27 2.19-4.51-.09-3.92-4.05-5.19-3.08-.31-1.79 2.38-2.72-1.05-1.38-3-4.42-.61 10.75-11.78 9.08-10.33 9.22-1.62 8.57.94 3.47-2.7 4.36.84-.2 3.95 4.33-.56 6.26-1.42-2.32-3.38 7.02-9.56 7.24-2 2.3 7.14 7.11-6.36 1.68-4.92 3.41-.51-2.25 8.37-5.04 4.57-4.83 5.73-5.01 6.78-4.36 1.18-.15 2.44-2.37 3.07-1.35 6.95 1.56 10.65 1.2 6.69 1.04 3.08 4.04-4.18.84-4.66 4.18-1.14.97-5.4 4.9-2.47-1.17-2.1 1.2-4.15 2.6-.19.38-7.46-3.19-1.17-.1-2.14 3.36-5.22.9-3.63 3.75.76 2.7-2.39 1.28 2.08 7.31-4.42 4.01 3.9 1.03-2.55 4.07-3.5 4.29-4.1 2.49-.69 7.84-4.51 5.23 1.32.72-1.6-.33-2.53-1.29-1.67-1.67-5.2-2.53-3.44 3.63.48 3.6-2.89.02-.04 1.59-2.83-1.26-3.19 3.36-1.64-.61 2.55 1.52 2.37 3.19-.87 2.85 1.1.63 2.89 3.73 1.92 2.14 2.26 2.63.19 1.12-1.35.07-6.46 4.6-.7 2.78-2.97zm-121.94 97.06-2.82-7.68-1.16-4.51.07-4.5-.97-4.5-.73-3.15-1.25.67001 1.11 2.21-2.59 2.17-.25 6.3 1.64 4.41-.12 5.85-.65 3.24.32 4.54-.31 4.01.52 3.4 1.84-3.13 2.13 2.44.08-2.84-2.73-4.23 1.72-6.11z" fill="#fff" title="Russia"/>
 <path class="land" d="m24.148 366.05-.36-1.24-.85-.88-.22-1.17-1.44-1.04-1.5-2.46-.79-2.41-1.94-2.04-1.25-.48-1.86-2.85-.32-2.08.12-1.79-1.61-3.36-1.31-1.19-1.52-.63-.92-1.76.15-.69-.78-1.6-.82-.69-1.09-2.32-1.71-2.52-1.43-2.16-1.39.01.43-1.74.13-1.11.34-1.28 3.12.51 1.22-.98.67-1.16 2.14-.44.46-1.09.93-.54-2.8-3.26 5.62-1.65.53-.49 3.38.89 4.18 2.29 7.9 6.49 5.21.26 2.5.31.7 1.51 1.98-.08 1.1 2.73 1.38.71.48 1.11 1.91 1.31.17 1.29-.28 1.03.36 1.04.8.87.38 1.01.42.75.84.61.78-.22.53 1.17.11.71 1.08 3.08 8.42 1.52.57-.64 1.28 2.14-1.87 5.97-8.41 2.96-8.08 1.13-2.62 1.32-2.01 3.07-1.31.48-.7-.97-1.07.15-2.71-.29-.52-.3-3.23.07-.76.27-1.15-.76-.75 1.43.29 1.23z" fill="#fff" title="Saudi Arabia"/>
 <path class="land" d="m12.968 313.43-5.49 3.54-3.12-1.32-.06-.02.38-.5-.04-1.37.69-1.83 1.53-1.27-.46-1.32-1.26-.18-.26-2.61.68-1.41.75-.75.75-.76.16-1.94.91.68 3.09-.97 1.49.64999 2.31-.01 3.22-1.31 1.52.06 3.19-.54001-1.44 2.18-1.54.86001.27 2.52-1.06 4.12z" fill="#fff" title="Syria"/>
 <path class="land" d="m191.84 378.01-2.52-1.31-2.4.06.41-2.25-2.47.02-.22 3.14-1.51 4.15-.91 2.5.19 2.05 1.82.09 1.14 2.57.51 2.43 1.56 1.61 1.7.33 1.45 1.45-.91 1.15-1.86.34-.22-1.44-2.28-1.23-.49.5-1.11-1.07-.48-1.39-1.49-1.59-1.36-1.33-.46 1.65-.53-1.56.31-1.76.82-2.71 1.36-2.91 1.54-2.65-1.1-2.6.05-1.33-.32-1.6-1.87-2.28-.67-1.45.97-.53 1.02-2.52-1.14-1.92-1.78-2.13-1.36-2.57 1.18-.53 1.28-3.19 1.98-.14 1.64-1.28 1.6-.69 1.22.92.16 1.78 1.89.13-.69 3.11.07 2.62 2.95-1.74.84.51 1.65-.08.56-1.02 2.12.2 2.13 2.38.18 2.87 2.27 2.53-.13 2.44-.91 1.3-2.63-.41001-3.62.55-1.8 2.38z" fill="#fff" title="Thailand"/>
 <path class="land" d="m103.32 289.45-1.03 1.13-3.05-.61-.27 2.1 3.04-.27999 3.47 1.17 5.3-.55.71 3.33.92-.36 1.7.81-.09 1.38.42 2.01h-2.9l-1.93-.26-1.74 1.57-1.25.34-.98.74-1.11-1.15.27-2.95-.85-.17.3-1.09-1.51-.80001-1.21 1.23-.3 1.43-.43.51999-1.68-.07-.9 1.6-.95-.67-2.03 1.12-.85-.42001 1.57-3.57-.6-2.66-2.06-.86.73-1.59 2.34.17001 1.33-2.01.89-2.35 3.75-.86-.58 1.71.4 1.02z" fill="#fff" title="Tajikistan"/>
 <path class="land" d="m254.6 437.08.33-.66 2.41-.63 1.96-.1.87-.35 1.06.35-1.03.76-2.92 1.23-2.35.82-.05-.86z" fill="#fff" title="Timor-Leste"/>
 <path class="land" d="m75.828 305.73-.25-2.91-2.09-.12-3.2-3.09-2.24-.39-3.1-1.79-2-.33-1.23.66-1.87-.1-1.99 2.02-2.47.68-.52-2.49.41-3.73-2.19-1.22.72-2.48-1.86-.22.62-3.09 2.64.91 2.47-1.19-2.05-2.23-.8-2.14-2.26.96-.28 2.73-.88-2.41 1.24-1.25 3.18-.79 1.9 1.06 1.96 2.93 1.44-.18 3.16-.05-.46-1.88 2.4-1.3 2.36-2.2 3.78 2 .3 2.99 1.07.77 3.03-.17.94.67 1.38 3.79 3.21 2.51 1.83 1.69 2.93 1.75 3.73 1.52-.08 2.16-.84-.11-1.33-.94-.44 1.25-2.36.68-.56 2.79-1.58 1.05-2.21.52-.59 1.55-2.11.46z" fill="#fff" title="Turkmenistan"/>
 <path class="land" d="m245.65 342.1-1.69 4.87-1.2 2.48-1.48-2.55-.32-2.25 1.65-3 2.25-2.32 1.28.91z" fill="#fff" title="Taiwan"/>
 <path class="land" d="m90.708 299.78.08-2.16-3.73-1.52-2.93-1.75-1.83-1.69-3.21-2.51-1.38-3.79-.94-.67-3.03.17-1.07-.77-.3-2.99-3.78-2-2.36 2.2-2.4 1.3.46 1.88-3.16.05-.11-14.13 7.22-2.35.52.35 4.35 2.84 2.29 1.48 2.68 3.5 3.29-.56 4.81-.3 3.35 2.8-.21 3.8 1.37.03.57 3.06 3.57.12.76 1.75 1.05-.02 1.23-2.65 3.69-2.61 1.61-.7.83.37-2.35 2.43 2.07 1.4 2-.93 3.32 1.96-3.59 2.64-2.13-.36-1.16.1-.4-1.02.58-1.71-3.75.86-.89 2.35-1.33 2.01-2.34-.17001-.73 1.59 2.06.86.6 2.66-1.57 3.57-2.12-.74z" fill="#fff" title="Uzbekistan"/>
 <path class="land" d="m207.16 350.7-3.74 2.56-2.34 2.81-.62 2.05 2.15 3.09 2.62 3.82 2.54 1.79 1.71 2.33 1.28 5.32-.38 5.02-2.33 1.87-3.22 1.83-2.28 2.36-3.5 2.62-1.02-1.81.79-1.91-2.08-1.61 2.43-1.14 2.94-.2-1.23-1.73 4.71-2.19.35-3.42-.65-1.92.51-2.88-.71-2.04-2.12-2.02-1.77-2.57-2.33-3.46-3.36-1.76.81-1.07 1.79-.77-1.09-2.59-3.45-.03-1.26-2.72-1.64-2.37 1.51-.74 2.23.02 2.73-.35 2.39-1.62 1.35 1.14 2.57.55-.45 1.74 1.34 1.22z" fill="#fff" title="Vietnam"/>
 <path class="land" d="m53.108 365.16-2.03.79-.54 1.28-.07.99-2.79 1.22-4.48 1.35-2.51 2.03-1.23.15-.84-.17-1.64 1.2-1.79.55-2.35.15-.71.16-.61.75-.74.21-.43.73-1.39-.06-.9.38-1.94-.14-.73-1.67.08-1.57-.45-.85-.55-2.12-.81-1.19.56-.14-.29-1.32.34-.56-.12-1.26 1.23-.93-.29-1.23.75-1.43 1.15.76.76-.27 3.23-.07.52.3 2.71.29 1.07-.15.7.97001 1.31-.48001 2.01-3.07 2.62-1.32 8.08-1.13 2.2 4.84z" fill="#fff" title="Yemen"/>
</svg>
