<svg version="1.1" viewBox="0 0 753.13 710.67" xmlns="http://www.w3.org/2000/svg">
 <path d="m307.94 510.91 8.97 2.42 1.73 2.2-.39 5.98-21.3-1.19 2.49-5.38 3.68-.86 2.55-3.43.39.09-2.44 3.49 2.7.93 1.3-.38zm98.22-135.69-.25 3.28-1.69-2.78zm97.33-69.74-.3 2.58-.85-1.45-3.15 5-4.82 2.17-3.18-1.15-.8-8.74 3.54-4.32 2.56-.32zm66.02 242.75 2.69 3.54 7.34 3.53-2.2 5.88-4.84 1.13-3.03-1.93-3.61 3.79-.48-1.35-3.83-.78-3.53-3.94-3.51-.3-2.67 2.17-2.9-1.88-3.5.48-5.43 4.65-7.04-4.56-.58 5.06-2.8-5.37-5.4-4.75-5.16.01-2.37-2.47-5.9 2.54-3.71-2.75-3.68 4.75-5.05 2.21-1.17 2.48-4.71 2.54.91 7.2-2.86.73-5.6-5.71-4.14 7.39-.59 3.42 1.55 2.23-2.22 3.54-.28 4 2.72 1.81 1.54 4.94 5.89.32 5.34 9.26-2.7.17-.12 1.48 4.65 2.62-3.69 2.44.31 1.83-1.64-.36-5.75 3.38-1.14-.92-.76 4.42-4.33 6.78 4.04 3.76 1.04 5.11 1.24-3.07-1.23 7.87 7.47 10.84-5.26 5.79-3.19-.74-3.83-4.76-2.15-.71-5.33-2.84.45-2.67-5.62-2.36-.68 1.28-1.78-1.21-4.58 1.62-.3-1.6-6.88-3.88-7.95-.46-6.28-2.91-3.36-.33-1.15 1.39-8.5-8.1-14.08-8.16 2.12-1.32-1.49-.79.98-.53 2.34 1.48 2.92-1 1.93-6.01 3.77-.86-4.89-5.32 4.94-.27-.42-1.46 5.76-2.88-1.81-1.65-5.46 1.79 1.04-5.15 3.58-2.45 5.92-.33 1.21-3.83-2.11-3.27 1-2.21 1.42-.14-2.14-1.91 2.84-2.5-.18-3.36-12.28-4.96-1.42 1.39-4.21-5.17-5.41 2.13-3.39-2.09-3.54.42-1.73-6.93-1.82-1.96-5.73-.55-.62-4.58 1.86-1.1-4.46-6.18-8.76.42-2.11 2.81-2.41-.55-1.34-7.26-2.06-2.87 1.07-2.01 4.88 1.17 3.8-3.69-1.73-3.1-4.69-1.33.49-2.52-2.85-1.9-2.21-3.41.52-1.55-2.38-1.84 1.2-3.13-1.12-3.02.65-3.13-4.54-3.28-5.06 1.92-.72-3.05-2.32-.99-1.59.95-4.36-2.42-.3-4.89-1.71-3.77-1.41.09 1.27-5.54-3.21-2.93 2.87-4.32-1.86-4.46-.46-7.29 4.83-7.7-.93-1.45.31-3.96 1.86 1.19 1.24-2.1 2.89.28 1.34-2.3 6.57 1.7.34-1.13-3.04-3.21-4.39.05-2.87-2.5-.88-4.13-4.82 1.94 21.14-25.18 4.03-8.23-2.38-4.79-8.01-7.95 3.6-5.24-.26-2.46-3.37-4.48.83-3.28-3.41-3.74 1.5-2.82-1.47-1.66.72-6.09 2.56-.94-.05-1.72-6.88-18.55 6.21-13.55-4.34-7.04-4.44-2.32-.84-2.94-.55-3.41 1.98-5.61-2.42-1.2 3.72-2.21 2.85-5.23 4.71-2.58.62-3.91 4.59 1.88.06-4.75 4.56 1.68 1.63-2.31 1.41.11-.09-2.81 6.44 3.94-.18 2.92-5.54-.6 1.92 2.96 4.2.18-.15 1.97 3.21-1.17-2.11 6.84 3.66-4.58 8.92 1.69 1.89-1.03 3.83 1.59 12.61 9.37 4.72 6.2 2.7.56 4.97 4.59 1.71.24-.09-1.67 3.85 5.74 3.94 2.1 1.13 7.86 1.52 1-1.15 6.62-7.31 8.91-9.77 3.86-21.15-5.47-4.64-3.63-2.31 1.03-.2-1.72-8.77-3.28-2.04-3.06.56-1.13-6.97-1.29 4.08 2.73-.26 1.5 2.69 3.34 2.14.71.25 2.51 2.96 1.51-1.99 1.9 5.06 1.74 3.9 4.55.58 3.02-2.5 6.07 4.24 15.19 4.12.97 4.83 5.81 7.26 2.9 3.54-2.08.64-2.18-.73-3.55-5.19-1.37-4.08-6.01-.29-2.34 1.69-.77.65-2.97 1.74-.35 5.85 5.04 11.78 4.76 2.02-3.05 2.61-.13-4.36-9.12.13-4.03 5.89-6 5.28-2.66 4.95-6.64 2.64 1.63 4.25.12 2.83 2.76-.75 2.13 2.04-.31 1.75 2.22-.05-3.77 2.64-7.37-.4-4.54-.93-2.8-3.43-2.69 2.99-13.12-.14-4.67-5.87-7.7 4.81 2.3 6.94-.54 5.48 1.81 5.34 9.25.04 2.18-7.82 1.63-4.22 6.09 4.44 3.97 2.18 5.09 4.09 1.55 7.84-3.01 1.47-10.61 6.46-1.73-.54-3.82 2.71.46 10.4-8.08 8.72-4.05 1.96 1.45-.68 1.56 1.43.42 2.2-2.43-2.55-2.28 9.82-7.23 4.64.07-4.67 1.59 1.16 1.18-1.42 3.91 1.16 3.65-4.52 3.07 4.77.73 3.42-1.21 2.6 1.68.41-3.14 3.33-3.56 4.22-1.5 7.3 1.75 7.04-6.23.43 1.04.79-1.54 4.74-1.68 2.11 5-1.74 2.26-.09 3.17 4.22 1.7 1.33-2.19-.18-4.34 4-.42 2.99-4.82-5.14-11.51 4.98-4.98 16.52 3.34 5.58 2.72 4.97 4.02-.22 1.48 14.19 7.05 5.88 7.36 2.66 21.31-4.89 9.72-18.48 16.81-11.58 13.08-12.56 9.79-7.77 69.31-8.52 20.55-5.2 6.57-1.34 5.83 5.06 4.22.75 5.18-3.99 6.44-13.57 2.41 10.35 15.87 8.99-6.31 4.54 2.57 1.71 4.22-5.91 8.63.22 6.39 4.51 1.6zm2.6-257.21-.07 4.08-5.41.09-.91-2.83-3.7-.52-2.92-8.43 3.56-2.85zm-50.85-29.11 1.95 3.15-1.14 5.13-1.92-4.41-3.29-2.18 1.77-2.11zm16.28-43.21 7.48 2.5-2.08 9.1-2.68.92-2.15 4.91.77 7.32-1.48 6.25 7.79 17.61 7.88 7.81-3.23 2.84-5.12-2.95-.84.39 1.61 3.02-2.41-1.86-2.32.86-.74-1.56-4.28.52-2.74-1.53-.3 1.26-8.2-3.96 1.55-.85.38-3.56 3.27-.81-5.02-4.49.01-4.03-6.69-.14-3.24 1.32-2.87-3.69.48-9.16 2.04-1.8 3.01-.02 3.58-8.8.35-2.69-2.1-.79-.17-1.99 2.25-2.48 3.08-.39-.8-6.15 3.38-2.58 3.03.28 4.05-2.5zm83.84-75.42-9.99 7.13-17.67 8.67-15.51 9.52-4.29 6.5-2.98 1.59 1.51 2.68-2.84 3.83-2.24.26-.49 3.46-2.93-2.11-1.34 5.26-3.41-.34.56 6.8-1.19 2.43-4.54 2.83-.08 5.94-2.98-1.66 1.55 4.33-3.9 6.93-3.6 1.63-9.59-3.69-4.76 2.42-.64-4.52-2.98-5.36 5.93-4.7 4.71-11.38 5.36-1.92-3.2-1.52-.54-1.82 6.17-8.46-1.06-1.47-2.31.26-1.26-3.18 1.51-1.82 3.61 2.54 2.06-3.87-.22-2.84 1.64-.86 3.5 1.13 3.04-8.67 5.55-5.25 7.77-3.58 1.64-3.14 4.47.7 1.75-5.95 11.92 1.29 10.05-4.03 8.7-5.8 2.07-4.88 5.16-5.26 5.55-2.62 5.62 2.33 3.07 6.68-.29 3.94-4.94 8.27z" fill="#fff" title="Russia"/>
 <path d="m193.35 554.63-2.18 1.93-3.16-.41-.56-1.42zm-1.86-3.82.85.99-2.54-.66zm6.31-14.68-1.19.39 1.19-1.65zm-4.45 18.5-5.23-1.66 5.56.75-2.21-3.68 3.61-5.45 1.93-7.01 8.71-5.23 5.08-.38 2.57 1.79-1.11 7.05-2.17.37.26 1.7 1.93.92-2.1 3.3.51 1.23-5.73 1.8 1.68 3.82-.46 3.26-1.84 1.25 1.47 1.22-.45 1.76-2.6-.9.84-1.67.16-.73-4.99-4.4zm7.41-22.04-.91-.07 2.64-.52z" fill="#fff" title="Netherlands"/>
 <path d="m397.04 702.27-3.51 2.48.73 2.5-2.36.15-4.66 3.27-3.76-1.3-.89-1.84-.11-1.06 3.9-.8.41-1.73 4.49.3z" fill="#fff" title="Cyprus"/>
 <path d="m422.31 598.92-4.52.16-5.04 3.55-6.52.88-5.47 5.05 1.79-1.69-.34-1.57-2.56 2.45 1.16 4.72 2.93 3.69 7.53-.74-1.22 3.14-6.21-.32-9.42 6.39-4.2-1.22.71-5.16-7.06-2.92 7.8-5.23-.48-1.45-7.53.13-4.35-1.93 1.2-1.44-3.06-1.22 5.43.78 1.46-1.38-3.59-.26-1.92-5.61.76 5.54-2.29-.15.21-1.1-1.08 1.46-4.09.75-3.89 6.65-3.98 1.4.53 4.43-2.04-1.53-4.33 1.78-3.69-2.07 1.93-.65 3.02-5.13.07-3.97 7.9.35-1.71-3.98-2.06-1.33-.22-3.03-2.72-2.17-.06-4.75-10.62-5.18-6.27 2.21-2.11.56-.96 2.13-7.98 2.69-2.69-2.07-9.27-1.54-2.2 1.38-5.02-4.62 2.74-6.81 2.12.1-.99-5.61 9.32-9.68.04-3.64-3.3-6.92 5.1-3.8 9.59-.61 9.13 1.87 3.76 2.97 3.26-1.41 3.69 1.89 2.5-2.1 1.65 2.65 5.48-1.03 2.59 2.29 1.42-6.82 2.18-1.99 4.61-.26 2.41.55 2.11-2.81 8.76-.42 4.46 6.18-1.86 1.1.62 4.58 5.73.55 1.82 1.96 1.73 6.93 3.54-.42 3.39 2.09 5.41-2.13 4.21 5.17 1.42-1.39 12.28 4.96.18 3.36-2.84 2.5 2.14 1.91-1.42.14-1 2.21 2.11 3.27-1.21 3.83-5.92.33-3.58 2.45zm-41.78 8.69.93.48-4.32-2.13z" fill="#fff" title="Ukraine"/>
 <path d="m353.6 647.26 1.24 3.74 5.79 2.91-.68 1.97-9.82.32-8.73 7.93.34-2.1 3.63-2.76-4.63.14-.45-1.03 3.95-6.01-2.05-2.83 1.99-2.24 4.23-1.16 1.96 1.56zm90.91 4.07 6.45.7 1.93-1.25 4.62 4.22 1.91 3.45-1.03 2.1.65 3.13 4.2.76 3.22 2.95.33.46-1.55-1.03-1.33 3.02-2.47.39 2.88 9-1.61 3.64 2.55 1.68 1.18 4.8-3.25 1.38-1.13-2.73-9.03-.59-2.8 2.22-1.05-1.59-4.63 1.76-5.45-.07-9.09 3.49-7.85-1.84-5.09 2.16-5.24-1.33-.14 4.75-3.44 3.34-1.58-.7-.55-3.27 2.55-2.92-.94-2.11-4.42 2.81-4.65-2.02-6.79 5.3-6.07 1.21-10.47-6.55-4.01-.37-1.34 4.98-5.1.94-3.13-1.4-1.71-3.26-4.49-.81-1.29 1.39-3.85-.32 4.73-2.9-6.6.45 1.83-1.58-3.14-4.18 1.1-2.73-6.34-2.55 1.01-3.12 1.57 2.62 3.17-.99-2.56-2.22 1.68-1.52-2.24-3.51 1.47-2.24-5.3.72.46-4.57 3.75-3.61 6.67.63.99-1.62.59 1.26 7.04-.18-1.48-1.27 1.15-.85 5.97-.96-4.92-1.77.23-2.52 14.19 1.01 7.08-5.58 6.59-2.48 9.88.43 1.72-.96 1.97 3.02 5.08.42 2.38 3.66 2.51-.8 10.8 3.92 7.04-1.62 5.65 1.29zm-104.68 12.27h-2.03l1.68-.9z" fill="#fff" title="Turkey"/>
 <path d="m327.61 365.1-3.13-.39-3.97 1.53-2.4-2.23-1.4 1.27-.92-1.12-.99 4.34-1.13-.22-1.4 3.04-2.11.25.29 2.37-1.34-.9 1.11 3.08-2.94 5.05 2.57 5.43-5.1 9.21-7.01 6.14-2.48-.21-2.15 3.6-2.88.89-1.98 2.7 1.27.11-.26 1.38-1.97 1.57-1.78-1.44.88 4.21-1.36 1.43-2.86-.08 1.5 4-1.74 5.27.61 2.59-1.81-.57-.45 2.11.81 12.21 2.77 2.27 1.98-.75 6.04 7.67.8 3.6-6.78 5.29-1.29-.72-.09-2.74-.49 1.05-2-.57-.12 1.18-5.38-1.54-3.57 1.77 5.86.43 2.64 2.29 8.11-1.79.73 1.07-11.04 8.79-5.15.23 4.78 1.86-1.83.75v11.85l-2.04 9.81-3.52 7.11-7.04-.45-.18 1.56-2.38.68-1.54 6.92-8.67-.17.59-4.01-3.38-6.53 2.22.32-.98-2.15 1.36-.14.17-2.02-3.11-3.54-6.55-15.19-.12-2.84-1.23-.37-.68-8.03.32-1.17 1.3.55.56 1.66 1.15-.22 1.05-4.77-.79-4.01 1.69-3.62 3.74-3.27.69-4.67-1.99-7.61 2.78-.79 1.17-4.09-4.88-5.21 1-8.1-2.05-14.82 1.18-4.59 4.16-6.16 2.77-1.16 5.1.94 1.22-2.45-.43-4.52-2.88-1.84 5.59-11.45.42-13.57 6.34-2.95-.41-3.09 6.61-9.66-1.86-6.46 3-3.41 1.42-4.9 3.64-3.76 3.99 2.5 2.6-10.74 11.23 3.65 1.82-2.22-1.83-1.18 2.56-5.69-1.56-3.23 3.4-.3 9.27 9.61 5.77 2.81 5.29 7.48-1.24 8.78 1.87.66-.62 5.12 2.34 5.49-1.94 9.44zm-34.22 114.39-1.77 1.64.64 3.86-5.13 5.93.93-2.01-1-5.9 2.7-3.45 2.45-1.08zm-17.16 19.14-.79-3.39 4.13-9.58z" fill="#fff" title="Sweden"/>
 <path d="m276.14 604.73-1.31-.34-.63 1.58-3.99 1.67.11 3.28-2.52 1.25.42 2.55-3.68-.11-1.51-1.72-1.34 1.69-5.34-.34.96-.68 1.04-.26-2.66-3.8 1.03-1.63-1.71-.82 2.16-2.52 5.73 1.17 2.31-2.01 7.17-.7.91-1.83 1.29.06z" fill="#fff" title="Slovenia"/>
 <path d="m316.71 578.97-2.74 6.81-2.76.59-1.82-2.08-6.48.25-3.63 3.85-2.19-.77-5.62 2.24-.45 2.14-6.48.17-4.14-2.36-1.9-3.85.59-2.15 1.23-2.47 4.19-.48 2.71-3.79 4.53-2.62 2.13 1.15 1.97-2.05 2.24 2.34-.12 1.73 2.03.23 2.06-2.1 8.6-.27z" fill="#fff" title="Slovakia"/>
 <path d="m301.24 608.53 3.59 3.47.13 2.71 4.69 3.06-.92 1.32 1.21 1.03-1.17.7 4.94 2.7 3.7-1.03.62.76-1.61 1.27 1.42 1.86-2.26 4.26 4.09 5.5-3.44 3.17.38 3.67-1.21 1.16-5.26.6 1.28-3.84-2.44-.75-3.97-4.69-3.08 3.99-7.74-6.5 2.02-1.02-1.68-3 2.28-.73-3.14-2.97 1.55-4.92-2.3.11.38-2.55 2.27-.72-2.66-1.78-.67-5.12 4.77-2.3z" fill="#fff" title="Serbia"/>
 <path d="m354.94 614.88 3.69 2.07 4.33-1.78 2.04 1.53-1 3.96-3.43.82.31-2.06-1.37.53-2.06 11.06-10.1-3.97-5.86 1.49-4.85 3.14-17.36-1.52.73-2.28-2.17-1.49-1.42-1.86 1.61-1.27-.62-.76-3.7 1.03-4.94-2.7 1.17-.7-1.21-1.03.92-1.32-4.69-3.06-.13-2.71-3.59-3.47 5.93-1.68 5.91-12.03 5.91-4.42 2.2-1.38 9.27 1.54 2.69 2.07 7.98-2.69.96-2.13 2.11-.56 2.44 1.05 7.35 11.73 1.13 3.32-1.11 10.1z" fill="#fff" title="Romania"/>
 <path d="m114.99 689.04-2.88 1.46-7.84-.22 1.24-3.36-.45-8.66 1.43.19-.88-.8-2.79.6-.25-1.79 1.54-.78 1.55-2.86-2.32 2.9-1.49.38-.83-.86 5.36-17.08-.62-10.64 3.44-1.78.76 2.94 10.34-1.18.51 2.44 2.22 1.26-4.82 4.67.8 5.91-1.5 1.54.38 3.24-3.77 1.19 3.62 5.26-2.32 5.16 2.59 2.31-3.27 3.91z" fill="#fff"/>
 <path d="m8.49 656.57-2.09-1.05 1.74-.21z" fill="#fff"/>
 <path d="m18.1 663.44 3.09.65-3.67.01-.75-1.12z" fill="#fff"/>
 <path d="m75.08 704.4 3.35.88-2.19.76z" fill="#fff"/>
 <path d="m296.95 520.32 21.3 1.19 4.07 1.8.77 2.99 2.9 13.19-4.99 5.34 3.22 2.7-.32 5.69 3.3 6.92-.04 3.64-9.32 9.68.99 5.61-2.12-.1-6.05-3.49-8.6.27-2.06 2.1-2.03-.23.12-1.73-2.24-2.34-1.97 2.05-2.13-1.15-1.82-3.83-6.3-2.48.5-2.01-1.93.56-3.6-1.82.73 2-2.36 1.42-2.89-3.38 1.41-1.59-.92-.87-1.85.47-6.83-4.29-1.24 1.66 1.39-4.22-2.79-6.27 1.01-2.72-.89-4.91-3.31-3.89 1.9-3.59-1.02-5.99 2.19 1.02-.17-2.09-2.33-.54-.01-.91 13.3-3.91 2.52-3.04 8.64-3.06 3.24-.25 2.93 1.79-2.17-.7 2.69 4.35z" fill="#fff" title="Poland"/>
 <path d="m104.57 272.86-.98-.33 5.09-5.9 2.3-.79v2.84zm189.78-80.41-.81.97-1.22-1.47-.38-2.6 2.17-.1zm16.1-122.37 2.93.64 1.72 11.7 4.65-.79 3.12 3.38-2.02 2.01-.24 3.14 3.82 3.75 3.73-.75 4.47 4.54-5.2 3.12-2.65 6.13-2.39 2.54-1.88-.15-2.02 3.36-1.67.28-.86-1.51 1.74-7.36-1.94-.52-2.29 2.15-7.6 1.29-.37-3.29 2.2-1.7 3.05-9.68-4.16-4.4-3.42-8.78.22-3.13-1.27.24-.97-2.21zm35.48-1.82-2.8-2.45-.03-3.13 3.72 3.91zm-105.26 1.31.08 2.35 1.09-.24 2.71 3.8 1.96 6.79-1.02.26-2.55-5.44-3.14-2.52-3.79-15.11 2.71 1.97zm119.89-10.43 4.37.26-2.6 1.84-5.49-1.23-3.08 2.04-1-.82 4.19-4.03 2.25-.13zm-82.59-36.52 1.21-2.02 1.7.71 4.15 5.39.81 3.63-1.93 11.83 4.91-8.11 2.81 6.62-.92 6.01 2.77 3.77 2.7-.66 1.75 1.03.97 3.23 1.48-.73.33-2.46 3.02 1.4 1.05 1.69-1.79 2.75 5.98 8.41-1.97 2.21-9.56 2.29-4.19 9.8-.41 7.82-3.74 1.84-.95 14.25-4.55 5.58-3.17 10.69-.6 11.56-2.44 2.32-7.78-9.02-2.84-5.95-5.11-4.53-2.5-8.45.51-1.74 2.07-.49 2.14 1.71 1.52-5.15 14.23-3.46-.81-3.21-5.75 1.63-3.2-.7-4.97 2.89-5.1.23-2.01-2.63-.75-5.63 1.73-1.87 2.49 2.62-.39-2.15 7.36-4.91 2.4-.22.58-3.3 8.21-1.42 1.14-1.6-3 .34-1.87-3.25 2.25-5.45-1.7.25-3.95 5.55-3.55.67-1.1-3.92.88-6.26-2.48 4.85-2.2-3.12-1.5 1.57-.24 6.23 1.39 2.63-3.55 4.79-6.47 1.11-6.01-12-2.64-2.72-.04-5.45-3.33-4.15 1.22-1.15 4.9 2.76.87-1.71-2.84-2.54-.02-9.59-2.69.34-.39 4.76-1.23 1.51-.88-.73-3.17-14.22-.38-8.93 1.24-1.46 1.92 3.02.67-2.57 3.05-1.36 3.94 4.08-.05-3.9 3.19 1.52 6.33-3.25 1.49 1.69-.92 3.86-4.98 1.13-3.26 4.34 5.25-.2.33 3.48 3.87 5.18.55-9.07 3.73-8.03 3.09 4.67 4.8 18.42 3.9 7.05-3.55-25.71 2.89-14.09 1.88 1.12zm106.02-8.26-6.38 1.48-.65-1.04 10.89-4.77 3.58.45zm-92.85-7.21-1.46 2.21-2.45-1.7.88-2.82zm14.52 2.03 4.39.28.99 3.32 4 4.32 1.08-14.03 3.76-2.91 2.07 1.98-1.36 9.54 3.87-.77 1.78-3.91 1.9.06.42-2.3 2.13 2.99 1.16-.59 7.08 4.99 6.9.6 1.94 3.95.34 5.92-8.04 10.99-2.46 7.93-3.34 2.34-2.66-.94-5.4 6.18-7.04-1.31-1.4-3.57 1.15-3.03-6.43 1.13-7.08-.61-.67-1.61-4.26-1.77-3.06-3.77.99-1.59 4.53.03 1.95-4.36-4.45-1.14-4.87 1.97-4.55-1.3-3.16-6.44 4.05-4.16-3.45-.9-2.88-3.28 5.81-1.99 3.8 3.04 1.3-1.84-2.41-6.7 3.86 4.17-.12-10.09 4.21 3.12z" fill="#fff" title="Svalbard and Jan Mayen"/>
 <path d="m337.24 266.59 2.42.78 1.27 2.26-3.71.72-1.8-1.91zm35.6 27.39-.06 4.75-4.59-1.88-.62 3.91-4.71 2.58-2.85 5.23-.8-2.93 3.28-5.65-1.3-3.83-9.38-7.71-4.18 3.12-4.06-.17-3.05 4.37-2.18 13.4-5.44 7.39-7.32-3.94-3.58 2.91-6.15-1.31-5.5-10.42-3.56 1.14v3.26l-2.99.09-3.4.3 1.56 3.23-2.56 5.69 1.83 1.18-1.82 2.22-11.23-3.65-2.6 10.74-3.99-2.5-3.64 3.76-1.42 4.9-3 3.41 1.86 6.46-6.61 9.66.41 3.09-6.34 2.95-.42 13.57-5.59 11.45 2.88 1.84.43 4.52-1.22 2.45-5.1-.94-2.77 1.16-4.16 6.16-1.18 4.59 2.05 14.82-1 8.1 4.88 5.21-1.17 4.09-2.78.79 1.99 7.61-.69 4.67-3.74 3.27-1.69 3.62.79 4.01-1.05 4.77-1.15.22-.56-1.66-3.73-1.94-1.61-7.69-2.8 9.98-2.27.67-1.92-2.02.67 1.85-10.05 10.66-4.71 1.59-3.11-.05-.86-1.61-1.93.68.47-2.11-4.08-1.44-3.62-4.53.64-3.73 3.28 1.86 1.78-1.71-1.78.64-1.41-1.91.42-2.64 3.04-3.47-7.01 5.22-1.56-.8 1.17-5.5 3.15-.25 2.99-2.1-3.27-.6 2.76-5 2.54-2.37.06 3.46 3.16-4.88-5.67 2.26-6.79 9.52.4-6.02 3.25-.47-2.71-1.12-1-3.26 3.44-3.33-2.72 1.63-.86-.91-.73-5.56 11.92-1.45 1.76 2.63.01-1.92 3.8-1.66-1.35-.17-.39-1.09.65-1.89-.75.88-.37 2.68-2.25.29-2.31-1.81-1.45 2.18-7.14.36-2.04-1.99-.13-2.57 2.27-.73-2.77-3.19.01-2.39 3.61-.27 3.71 1.56 4.82-1.17-9.87-.94-.83-3.22 1.45.11 3.7-3.82 1.18.96 3.35-.84.76-.88-3.75.88 1.46-2.97 8.2.92.81-.55-1.02-1.26 3.75-.88-9.17.16 1.39-3.09 4.25-2.51 3.56.13 3.52 3.62-3.13-4.68.76-1.86 2.46-.84-1.85-2.36 1.45-1.54 3.77.11.13 2.03 3.65-2.5 2.18 3.53 4.98-1.06-.24-2.48 4.35-2.73-1.31-1.44 1.9-1.6-1.02-.7-2.64 1.96.14 2.31-5.93 3.9-3.29-2.93 6.73-10.97 7.19-6.21-2.27.93 1.3-3.5 4.52-3.25.99 1.49 2.91-2.06 1.19-2.01-3.36 2.5-1.99-2.88 3.82-8.81 2.32-.89-1.68-2.39 6-1.33 2.42-1.97-6.16 1.12.62-6.91 2.76-2.62h2.28l-2.07-1.93 3.08-3.66 8.8-1.44-6.56-1.2 3.5-5.32 4.26 3.97.66-3.04-2.98-1.42.37-2.9-3.03 1.81-.37-2.59 2.26-2.93 3.28.44-2.06-2.17 4.66-2.89 2.05 6.26.54-3.78-1.27-4.09 1.24-1.33 3.8.64 4.05-1.31-.86-1.02-5.66.29-.48-1.22 5.91-4.94 2.11-5.64 2.67-1.07 1.07-5.99 4.04 2.99-1.65-3.38 2.54-1.36 1.39-3.62 3.29-1.11-.3 7.37 2.15-7.75 2.45-2.37.09 6.41-1.55 5.3 2.55-3.86 1.7.42-1.39-3.33.6-4.32 3.65.48 1.82-2.44 3.65 3.51-1.16-4.55-3.01-3.32 5.81-1.51.69.89 2.45-2.21 4.51 7.78.17-5.23 4.44-4.77 2.57-4.4-1.06-2.54 3.38-3.76 3.37 3.41 1.15-1.41 2.24 1.21-5.21 12.84.33 2.17 1.13-.54 9.77-16.26-.52 10.79 2.73-2.04 1.31-4.73 2.44-1.22-2.1-2.95 2.44-2.99 5.36 2.41-.44 3.09-2.89 3.01 2.52.21-.54 8.45 4.31-12.46 1.82.06 4.28 4.38 2.21-1.15.99 3.25 2.58.39 2.23 2.47.12 2.54-4.59 2.98-9.98-.41 5.52 3.33.63 4.55 2.65.52 1.01-2.82 1.28 2.73.38-1.41zm-50.05-20.64-4.12 5.58-3.17.54-2.45-2.88 6.53-1.1 1.62-2.14zm3.89 5.06-2.03.11.42-3.77 2.02 1.97zm-2.71.36-.46 2.85-2.62 2.52-1.46-3.25 4.08-3.49zm-25.92 6.68 2.13 1.75-.53 1.04-1.51-.02-1.23-3.75zm-3.46 2.98 2.38.94-1.84 3.9-2.2 1.18-1.5 3.51-4.42.41 1.48-4.08 2.19-.27.08-2.13 2.46-2.89.55-4.09zm10.27-.46-2.12.26.19-2.51 1.98-.32zm61.82 5.76-1.28.57.47-2.7 1.48 1.32zm-83.89 3.89 3.38 1.76-.36 5.87-3.12.02-2.73 3.46-1.83-1.07 1.29-5.53 2.41-.37-.88-1.85zm-11.74 19.54 3.83-5.85 1.28 4.53-3.66 4.24-3.62 1.64-1.07-1.12-4.38 3.2-2.5.14 2.21-3.82 3.43-.76 2.14-3.21.47-7.98 3.81-4.9zm-3.72-7.1 1.27 2.98-1.17 3.1-5.51-.86 1-2.9 1.68.52.47-2.29 1.11.36.01-1.99zm-8.99 12.52 1.51.85-5.85 4.03.48-2.97zm-6.07 7.06-1 .94 1.65-4.48zm-3.72 31.53.72-2.78.65 1.47zm.6 2.34-.22-1.24 1.82-.57zm-3.64 4.52-1.28.36.15-1.29 1.15-.29zm-4.97 12.24-3.31-.07 1.9-1.72zm-18.59 18.6-1.24-.3 3.22-1.79.14 1.54zm-2.48 4.98-2.01-1.15 1.81-.85zm-21.18 32.56-1.08.03.42-1.55zm.85 10.7.03 1.61-.89-3.52z" fill="#fff" title="Norway"/>
 <path d="m294.19 632.95 7.74 6.5-1.95.62.06 1.94-1.85.65-.9-1.39-2.52 4.15.41 2.75-5.55-5.11-.55-1.16.16-4.01 2.63-3.21 1.19.5-.52-2.17z" fill="#fff" title="Montenegro"/>
 <path d="m315.4 644.14 4.45 5.19-.59 3.62-2.11 1.76-4.11.08-2.81 2.33-4.12.17-3.2-3.77.52-5.39 1.42-1.79 5.29-1.6z" fill="#fff" title="Macedonia"/>
 <path d="m354.94 614.88-.93-1.43 1.11-10.1-1.13-3.32-7.35-11.73-2.44-1.05 6.27-2.21 10.62 5.18.06 4.75 2.72 2.17.22 3.03 2.06 1.33 1.71 3.98-7.9-.35-.07 3.97-3.02 5.13z" fill="#fff" title="Moldova"/>
 <path d="m349.14 483.37 3.21 2.93-1.27 5.54 1.41-.09 1.71 3.77.3 4.89-3.85 4.14-3.53-.38-3.09 1.95-6.27-5.25-3.99-1.15-1.55-2.56-4.85 1.79-13.71-1.73-7 4.07.17-9.18 4.43-9.28 5.56-1.93 4.94 7.93 2.43 1.47 4.95-3.46-.41-7.79 6.47-2.26 4.77 2.67 3.17 3.7 3.4-.81z" fill="#fff" title="Latvia"/>
 <path d="m206.09 568.09 2.5 3.37-.97 3.59-3.73-.88-.31-3.97 1.56-2.59z" fill="#fff" title="Luxembourg"/>
 <path d="m344.03 506.12-.92 3.87 2.15.82-6.18 4.16-2.1 6.83 1.36 2.01-1.61-.03-.33-1.53-7.7 4.58-5.61-.53-.77-2.99-4.07-1.8.39-5.98-1.73-2.2-8.97-2.42-1.28-9.62 7-4.07 13.71 1.73 4.85-1.79 1.55 2.56 3.99 1.15zm-37.97 4.62-.39-.09 1.45-3.92z" fill="#fff" title="Lithuania"/>
 <path d="m229.42 599.25-.62-.05.27-2.06z" fill="#fff" title="Liechtenstein"/>
 <path d="m310.14 644.74-5.29 1.6-1.42 1.79-.55-3.17-2.84-2.95-.06-1.94 1.95-.62 3.08-3.99 3.97 4.69 2.44.75z" fill="#fff" title="Kosovo"/>
 <path d="m151.29 577.34-1.47.56.11-.92z" fill="#fff" title="Jersey"/>
 <path d="m60.18 358.08 6.38-2.57-3.51 4.29 2.82 1.75-.87 4.22 2.93-.38-.55 3.47 2.07-1.09 3.7 2-1.26 2.67 1.58 4.6-1.91 1.2-1.29 3.99-2.29-.06-1.64 5.17-8.11 3.72-5.44 4.78-7.92 2.33-.88 2.69-4.77 1.94-10.4-2.25-1.99-1.99.54-1.8-1.6 1.04-3.07-3.1-10.41 1.72-.33-3.92 1.29 1.41 2.17-.73 4.88-5.27-3.98 1.02.7-3.14 2.42-1.75-3.47 1.47-2.43-4.12-5.93-.47-3.18 1.35-1.4-1.97 8.34-2.91 6.04-.04.75-2.22-1.75 1-3.16-1.15 4.48-4.04-7.13-2.17-6.72 2.81-3.88-1.91 1.53-1.46 2.64 1.25-1.59-3.89 3.22 1.59 2.22-1.16-3.68-1.63 2.07-.5-1.7-2.28 2.31-.11-1.11-1.4.99-1.21 2.62 1.58.3 1.73 2.42-.73.29 2.62 1.18-.67-.03-2.68-3.38-2.38 3.12-.89-4.26-1.22 1.16-1.52 3.49-.01 6.87 6.76.21 4.68-1.91.3 3.56 7.42 2.2-6 2.35 1.07 1.67-8.71 4.83 5.49.72-5.08 3.62-1.81 4.74 7.44-1.04-6.99 2.62.23 2.41 2.97 2.67-3.96 2.13 1.29 2.37-1.18-.37-4.2 1.96-1.29 1.78.14z" fill="#fff" title="Iceland"/>
 <path d="m116.26 512.94-2.24 3.8-2.43.81 1.06 1.2-2.45 2.09 3.44 3.12 1.9.12 2.14-3.15 2.41 4.01 2.91-.35-.88 1.69 2.16 11.46-2.94 6.45.94 1.08-3.81.96-.51-.99-7.36 4.64-2.36-.69.01 1.92-5.99 2.32-3.63.16 1.72-2.23-3.64.96 3.51-2.97-5 .82 2.91-3.54-3.01-.92 3.93-.47-.9-1.7 1.85-1.58 5.71-1.47-1.39-.84-1.25 1.34-4.99.72 4.16-5.88 2.49-1.23-7.83-2.31-.17-1.54 2.67-.63-1.22-1.4 2.18-.89-2.26-.66.39-2.65-1.6-.7.25-1.17 10.18.19-.53-1.22 3.3-3.4-4.24-.47 2.6-2.43.69-3.02 4.09-1.3.06 3.36 2.36-4.65 2.34 1.51zm-18.39 13.66-2.14-.73 1.81-.3z" fill="#fff" title="Ireland"/>
 <path d="m135.16 523.48-2.51 1.29 2.43-3.84z" fill="#fff" title="Isle of Man"/>
 <path d="m313.97 585.78 5.02 4.62-5.91 4.42-5.91 12.03-5.93 1.68-4.23-.58-4.77 2.3-3.69 1.72-3.71-.36-8.7-6.88-1.56-3.51-1.29-.06 2.43-1.41-.07-3.89 1.57-1.35-1.71-1.38 4.34-.33.55-2.99 4.14 2.36 6.48-.17.45-2.14 5.62-2.24 2.19.77 3.63-3.85 6.48-.25 1.82 2.08z" fill="#fff" title="Hungary"/>
 <path d="m276.14 604.73 8.7 6.88 3.71.36 3.69-1.72.67 5.12 2.66 1.78-2.27.72-.38 2.55-2.32-1.98h-5.72l-6.02-1.9-4.22 2.55-3.4-1.62-.35 3.93 3.8 6.04 6.56 6.32 2.1 4.68-4.6-4.19-6.18-1.18-5.39-6.08-.42-.79 2.34-.14-3.3-3.12-.85-4.53-2.05-2.07-1.6-.38-3.04 4.76-1.91-6.48 5.34.34 1.34-1.69 1.51 1.72 3.68.11-.42-2.55 2.52-1.25-.11-3.28 3.99-1.67.63-1.58zm-11.49 14.67-2.42-.98.81-1.38zm19.25 19.41 5.18 3.09.55 1.16-9.92-5.33zm-.4 1.18.92.63-2.7-.83z" fill="#fff" title="Croatia"/>
 <path d="m342.19 649.54 2.05 2.83-3.95 6.01-6.29-2.38-9.04 2.2.7 2.91 3.21 2.39-4.14-1.61 1.47 3.2-3.51-2.62 1.36 2.99-4.92-4.19.17-1.68-1.97.84-.26 4.04 4.96 7.52-1.17.63.05-1.35-1.62-.43.98 2.33-3.35 1.47 4.61 1.78 5.19 4.47-.03 3.93-3.49-3.03-3.13 1.33 3.05 3.72-2.21.89-2.94-1.76 2.93 9.2-2.98-2.89-1.95 2.66-2.34-4.64-1.27 2.45-2.08-2.88.64-2.59-3.73-4.27 1.88-2.61 2.84-1.12 7.38 3.16 1.54-1.86-4.9-2.25-6.4 1.01-.95-1.43-1 1.22-2.79-4.55 2.31-.19.05-1.15-2.73-.04-4.8-5.86 1.66.27.43-2.64 2.33-1.21 2.52-4.45-.45-2.02 4.12-.17 2.81-2.33 4.11-.08 2.11-1.76 10.59-1.96 5.14 2.79 4.53-.61 1.42-.66-.33-2.86zm-10.42 9.83-1.74-.28.73-1.29zm4.47 5.57-.54 1.53-1.99-.38-.02-1.29zm-36.1 4.81-2.91-2.92 1.88-.06zm42.65.89 1.25 2.44-.85.65-2.43-.93 1.11-1.01-1.35.88-1.54-.9zm-20.17 3.22 4.8 2.67 2.75 5.72-3.34-3.5-7.88-4.13zm-18.38 3.01-.89.23.94-2.26zm36.43 3.35-1.37-.22-.31-2.83 2.12.29zm-36.93-1.41 1 2.67-2.75-.93zm1.86 4.93.71.83-1.18.36-1.34-1.61zm39.99-.05 1.55.87-3.19-.13zm-8.62 7.13-1.24-.86 1.1-1.07zm15.48 8.67-.86-2.01 3.48-2.19zm-26.89 3.26 2.12-.5 1.26 1.95 9.27.09.42 1.85 3.56-1.58-1.04 2.44-9.2.69-2.27-1.85-5.86-.8-.16-2.29 1.13-.99z" fill="#fff" title="Greece"/>
 <path d="m147.96 574.62-.24.68-.61-.23z" fill="#fff" title="Guernsey"/>
 <path d="m477.66 647.97-1.67 2.11 3.3 3.32-.93 1.77-8.44-3.23-1.89 1.42-10.52 1.64-4.62-4.22-1.93 1.25-6.45-.7 1.71-4.07-1.85-6.27-10.17-6.99 1.15-1.39 3.36.33 6.28 2.91 7.95.46 6.88 3.88.3 1.6 4.58-1.62 1.78 1.21.68-1.28 5.62 2.36-.45 2.67z" fill="#fff" title="Georgia"/>
 <path d="m203.89 574.17 3.73.88 2.64 3.02 4.81.08 4.61 1.84-3.49 8.3v5.65l-1.84 1.59-2.52-.2-6.73 12.17 1.55.22 1.54-2.32 2.22.15 1.77 4.75-1.55 1.79 2.39 3.45-3.44 2.99 2.41 2.29-.62 4.64 2.81 1.85 2.15-.25-.97 3.71-9.28 6.43-7.11-3.43-2.34.66-5.4-1.76-5.79 5.98 1.08 4.42-7.94.71-2.2-1.37-1.87-.84-4.93-2.28-.44 1.42-8.21-1-5.89-2.32.34-1.73-2.58-1.55 2.08-1.45 2.75-10.54-1.13.22 1.1-8.25 3.59 5.08-1.63-4.46-2.73-2.37 1.1-.25-.77-5.53-4.31-1.98-1.84-2.89-.93-3.48 1.15-1.1 1.92.58-1.57-.94-3.56-.02.51-1.57-2.31-.43-.11-1.11-10.27-1.98-2.47-2.17 2.35-1.32-1.67-1.21 2.26-.14-3.22-.6-.01-1.79 10.04-3.07 3.63 3.1 1.66-1.13 2.98.67.66-1.17 3.56.45-3.23-10.6 4.03.03.8 3.03 6.57.94 3.91-1.56-1.93-.62.38-2.02 7.13-3.08 2.34-2.67.54-6.7 5.74-2.27 1.58 3.7 2.34-.3 3.93 5.01 3.27.62-.17 2.89 2.66.11 1.84-2.02.33 3.82 4.31 2.88zm-46.94 36.34-.24.85-1.18-2.26zm71.8 29.14.47 6.16-2.45 6.71-2.55-1.83-1.63-6.95 1.67-2.28 3.36-.96.34-2.79z" fill="#fff" title="France"/>
 <path d="m121.73 419.74-.93.77-.07-2.18zm-1.52.44-.16 1.94-1.25-.37.78 2.41-3.01-4.81zm-3.74 1.28.47 1.33-1.77-.4-.29-.94z" fill="#fff" title="Faroe Islands"/>
 <path d="m360.01 308.57-3.72 2.21 2.42 1.2-1.98 5.61.55 3.41.84 2.94 4.44 2.32 4.34 7.04-6.21 13.55 6.88 18.55.05 1.72-2.56.94-.72 6.09 1.47 1.66-1.5 2.82 3.41 3.74-.83 3.28 3.37 4.48.26 2.46-3.6 5.24 8.01 7.95 2.38 4.79-4.03 8.23-21.14 25.18-2.26.97-1.73-1.07-4.52 1.78.24-2.89-1.29 2.74-2.84-.69.53 1.81-1.87 1.01-.68-.89-8.16 4.22-6.61.47-2.98 2.29 1.19-2.77-1.93-2.54-1.09 2.07-1.94.37.83-4.76-7.74-2.95-.51-5.12 1.65-8.74-2.36-5.68.59-4.14-1.61-5.03 2.49-6.06 1.19-.09-.71-2.45 5.22-1.59-.01-2.92 8.63-8.18 6.46-11.86 4.92-.94.57-2.37-.17-7.56-4.53-3.12-.32-3.09-3.18.89-3.07-7.42 1.94-9.44-2.34-5.49.62-5.12-1.87-.66 1.24-8.78-5.29-7.48-5.77-2.81-9.27-9.61 2.99-.09v-3.26l3.56-1.14 5.5 10.42 6.15 1.31 3.58-2.91 7.32 3.94 5.44-7.39 2.18-13.4 3.05-4.37 4.06.17 4.18-3.12 9.38 7.71 1.3 3.83-3.28 5.65zm-27.74 69.7-1.81.2-.02-1.02 2.66-.2zm-24.45 27.01 1.33.66-1.09.68-1.15-1.88zm1.57 38.79-1.02.68-.51-1.93zm4.88 2.17 1.61.91-.37 1.87-1.9-1.64zm-2.31 3.12-.93.35.47-1.14z" fill="#fff" title="Finland"/>
 <path d="m353.59 458.15.93 1.45-4.83 7.7.46 7.29 1.86 4.46-2.87 4.32-2.6-1.02-3.4.81-3.17-3.7-4.77-2.67-6.47 2.26 1.39-6.16-2.79 1.13-2.34-1.22-1.74-3.83 1.16-1.67-1.68-1.74.42-3.6 3.97-1.27 2-2.39 7.16-.64.45-1.57 9.87 2.51 6.18.48zm-34.28 8.63-2.57 1.78-.89-2.25-2.39-1.05 4-1.87 1.75 1.25zm2.83 3.59-1.58-1.41 1.5.14zm-4.9-.92 4.76 2.2-6.41 2.99-2.53 3.64 1.29-2.83-2.06-1.38-.13-3.02z" fill="#fff" title="Estonia"/>
 <path d="m44.377 707.76-.65 1.24-1.18-.87z" fill="#fff"/>
 <path d="m61.137 705.2-.25 2.55-1.84.21.19-2.82z" fill="#fff"/>
 <path d="m54.847 703.42-2.18 2.84-1.67-2.53 5.27-1.8z" fill="#fff"/>
 <path d="m69.247 705.03-1.99.52 4.28-4.86-.48 3.7z" fill="#fff"/>
 <path d="m44.737 702.56-.63-2.69 1.36.92z" fill="#fff"/>
 <path d="m72.487 699.36-.97.32.24-1.1 2.43-1.72-.1 1.77z" fill="#fff"/>
 <path d="m174.62 674.2-1.5.13 2.3-1.88z" fill="#fff"/>
 <path d="m186.07 666.63 2.13.81-2.62 3.45-4.73-2.36 5.31-3.48z" fill="#fff"/>
 <path d="m193.81 666.18-2.97-1.94 2.51.27z" fill="#fff"/>
 <path d="m152.8 634.11 2.58 1.55-.34 1.73 5.89 2.32 8.21 1 .44-1.42 4.93 2.28.13 1.44 1.74-.6 2.2 1.37 7.94-.71.24 4.42-1.63 1.59-15.43 8.45 1.19.89-1.99.96-6.22 9.61.82 3.97 2.74 2.62-4.86 3.79-1.98 4.67.62 1.18-6.19 2.07-3.17 5.13-15.19.49-5.42 2.47-3.06 3.31-2.8-1.35-2.31-3.75 1.12-2.32-1.2.69-3.15-3.76-3.66.84-.25-4.65 3.27-3.91-2.59-2.31 2.32-5.16-3.62-5.26 3.77-1.19-.38-3.24 1.5-1.54-.8-5.91 4.82-4.67-2.22-1.26-.51-2.44-10.34 1.18-.76-2.94-3.44 1.78.31-4.27-.54-2.09-1.5.43.72-1.87-2.08-1.64.39-1.81 9.97-5.47 4.29 1.96 8.18-.85 8.91 2.13 6.19-.97 3.77 1.37z" fill="#fff"/>
 <path d="m157.71 562.08-1.26 1.08-2.1-.82 1.69-1.14zm-21.1-28.76 1 .17-2.19 1.93-1.31-2.84zm-13.61-8.73-2.91.35-2.41-4.01-2.14 3.15-1.9-.12-3.44-3.12 2.45-2.09-1.06-1.2 2.43-.81 2.24-3.8 5-1.76 2.96 1.14 2.15 3.84-1.09 2.05 2-.26.75 1.9-1.35-.58.43 3.21-2.77 2.54zm7.49-15.87-1.52-.38.09-2.72zm-6.89-5.75.49 2.82-1.68 1.05.13-1.97-1.38.9.19-1.33zm1.07 1.39-.69-.94 2.34-2.71zm1.29-6.39-3.61.62 1.18-2.4-.99-1.48 3.54 1.48zm-9.91-9.46-1.09-3.3.97.11zm7.44-4.85.06 2.38 3.12.77-1.86 2.57-.58-1.93-1.94-.02-2.95-2.99 2.72-2.82zm-7.15-2.24.16 1.88-2.24-.86zm6.79-8.65-2.4 3.46.87.91-3.76 3.44-.67-.81 1.52-1.39-1.54-3.29 2.42-.09-.34-1.44 3.64-2.58zm20.81-1.96-.7 2.5-5.23 4.62-.31 1.36 1.2.42-1.87 3.03 4.93-1.64 8.95.08 1.98 2.86-5.47 11.29-4.83 2.41 2.86-.41 1.42 1.75-4.64 2.72-2.87-.81 4.99 1.73 3.02-.91 6.36 5.47 2.85 10.2 7.74 6.78-.82 1.1 2.16 4.7-2.6-1.45-2.62.15 2.47.36 3.8 4.04.57 1.97-2.09 2.85 1.58 1.08 1.88-1.77 3.34.09 4.05 2.29-.44 7-2.41 1.62-.3 1.83-2.94.8.94 1.72-3.15 1.14 6.68 1.1-.12 1.95-2.95 2.75-5.09 1.73-10.92-1.43-.67 1.6-3.47.23-.03 1.3-6.49-1.21-2.73.9-1.85 4.14-3.47-1.61-3.6 1.08-2.63 2.65-3.39-.13 9.66-12.07 7.09-.17 4.73-5.79-5.79 3.79-4.03-2.17-2.31.24.96-.98-1.98-.88-3.48 1.24-1.79-1.24-.1-2.27 6.5-3.6 1.6-2.91-.82-4.15-3.91 1.22 2.79-3.79 3.4-1.83 4.49.53.22-1.87 2.12 1.31-2.12-2.29 1.47-7.09-2.15.08-2.87-5.04.85-2.42 2.89-2.11-3.46.07-2.75 1.94-5.79-.76-.63 1.83-.82-.84-.94-2.62 3.34-6.09-1.31-4.45 1.93-.77-1.75-1.36.3-1.29-2.89 3.27.97-3.75-2.19 2.44-.99 7.24-1.17.65 1.32-10.97 2.33-6.19-3.12 2.77-3.25-2.14 2.72-1.8-.88-.61 2.02-4.08-1.57-1.82 1.43-2.11-1.1-1.52.92-2.69h3.04l-1.72-2.4.5-2.15 2.23-.31-.06-3.9 3.93.69 7.91-1.77 1.39.19zm.35-6.67 1.78 1.6-3.63-.84.14-2.09zm11.78-20.18 1.72 1.27-1.66 7.66.06-3.7-2.51-1.75 1.94-.69-1.32-2.2 1.4-1.58z" fill="#fff" title="United Kingdom"/>
 <path d="m230.5 516.06-7.21-.91-.37-6.06-3.25-2.16.21-12.16 3.42 1.36 1.46-2.93 1.2-.72.87 1.13.4-3.81-1.77-.06-1.48 3.58-2.05.75-1.24-2.31 2.25-3.2 5.49-.78 3.56-5.08 4.37-1.96-2.21 13.87 4.34 2.16-1.17 2.45-2.92.35-.92 4.19-1.88.27.81.97-2.92 3.2.54 2.68-1.46 2.68 1.88.84zm8.84-29.25-1.21-.12 2.03-.76zm10.21 17.91-2.38 3.79 1.33 2.14-2.17 1.16-.27 4.37-1.27.5-1.4-4.86-2.48-.2-2.07-6.14 2.32-.37 2.05-2.45 1.3 3.1.31-3.24 2.38-1.81 2.42.66zm.66 2.25-.78.48.33-1.48zm-13.62-.16.95 5.64-2.31 1-3.06-1.35-.86-4.17zm29.93 6.95-2.72-.94.55-2.29 2.47 1.79zm-29.33 3.18-.75-1.18 2.22-3.58zm-4.53-1.59-1.72-.23-.17-1.91zm16.76-.93-2.9.6 1.05-1.75zm-8 .87 2.55.99.17 1.49-2.07.59-2.85-1.68.16-1.96z" fill="#fff" title="Denmark"/>
 <path d="m260.62 526.18.01.91-1.94-.1-.66-2.84zm-3.38-4.97-.02 1.17-3.48-.51.99-4.31 2.16 1.6zm-26.74-5.15 1.9 1.77-1.04 2.34 5.82 1.81 1.9-.73-1.07 4.25 3.67.74 7.92-6.01 3.05.65 2.83 3.11 1.86-.14.95 3.44 2.65 1.41 1.02 5.99-1.9 3.59 3.31 3.89.89 4.91-1.01 2.72 2.79 6.27-1.39 4.22-3.3-1.91.33 1.48-9.61 5.23-2.65.14-1.83 2.23-1.26-1.27 2.84 4.26-.82 1.63 1.96 3.37 7.64 6.65-.62 2.29-1.59-.41-.76 2.24-4.14 2.57 1.71 6.29-5.42-2.39-7.86 3.24-4.06-1.58-1.73 2.71-1.42-2.25-3.02-.19-6.41-2.5-.8 1.79-5.64.03v-5.65l3.49-8.3-4.61-1.84-4.81-.08-2.64-3.02.97-3.59-2.5-3.37 1.67-2.05-2.4-4.6.45-1.76-1.47-1.22 1.84-1.25.46-3.26-1.68-3.82 5.73-1.8-.51-1.23 2.1-3.3-1.93-.92-.26-1.7 2.17-.37 1.11-7.05-.83-2.21 1.42-2.31 4.88-.1.67 2.53 1.51-1.57 1.09 2.4.83-5.46 3.96.22 3.89 3.42-3.18-3.46-2.25-.77-.48-3.83-1.76-.4 2.1-2.81-1.93-4.26zm-9.65.45.97-3.14-.49 1.82 1.69.1z" fill="#fff" title="Germany"/>
 <path d="m264.65 560.29 1.24-1.66 6.83 4.29 1.85-.47.92.87-1.41 1.59 2.89 3.38 2.36-1.42-.73-2 3.6 1.82 1.93-.56-.5 2.01 6.3 2.48 1.82 3.83-4.53 2.62-2.71 3.79-4.19.48-1.23 2.47-2.76-2.01-3.28.42-6.67-2.48-2.53 4.07-4.32-.04-1.58-1.67-7.64-6.65-1.96-3.37.82-1.63-2.84-4.26 1.26 1.27 1.83-2.23 2.65-.14 9.61-5.23-.33-1.48z" fill="#fff" title="Czech Republic"/>
 <path d="m229.04 594.62.03 2.52-.27 2.06.62.05 3.73 2.03 1.45-1.31.7 1.18-.15 3.09-2.32-.49.28 3.53-5.85-2.31-1.59 6.11-3.81-3.88-.24-1.95-4.27 5.09-5.17-.04-1.77-4.75-2.22-.15-1.54 2.32-1.55-.22 6.73-12.17 2.52.2 1.84-1.59 5.64-.03.8-1.79z" fill="#fff" title="Switzerland"/>
 <path d="m354.5 500.41 4.36 2.42 1.59-.95 2.32.99.72 3.05 5.06-1.92 4.54 3.28-.65 3.13 1.12 3.02-1.2 3.13 2.38 1.84-.52 1.55 2.21 3.41 2.85 1.9-.49 2.52 4.69 1.33 1.73 3.1-3.8 3.69-4.88-1.17-1.07 2.01 2.06 2.87 1.34 7.26-4.61.26-2.18 1.99-1.42 6.82-2.59-2.29-5.48 1.03-1.65-2.65-2.5 2.1-3.69-1.89-3.26 1.41-3.76-2.97-9.13-1.87-9.59.61-5.1 3.8.32-5.69-3.22-2.7 4.99-5.34-2.9-13.19 5.61.53 7.7-4.58.33 1.53 1.61.03-1.36-2.01 2.1-6.83 6.18-4.16-2.15-.82.92-3.87 3.09-1.95 3.53.38z" fill="#fff" title="Belarus"/>
 <path d="m292.92 620.42 2.3-.11-1.55 4.92 3.14 2.97-2.28.73 1.68 3-2.02 1.02-1.65.06.52 2.17-1.19-.5-2.63 3.21-.16 4.01-5.18-3.09-.55-.37-2.1-4.68-6.56-6.32-3.8-6.04.35-3.93 3.4 1.62 4.22-2.55 6.02 1.9h5.72z" fill="#fff" title="Bosnia and Herzegovina"/>
 <path d="m357.45 631.01-.81 3.27-2.23-.06-1.65 5.94-2.73 2.58 3.57 4.52-3.23.44-1.96-1.56-4.23 1.16-1.99 2.24-1.58.11.33 2.86-1.42.66-4.53.61-5.14-2.79-10.59 1.96.59-3.62-4.45-5.19 1.21-1.16-.38-3.67 3.44-3.17-4.09-5.5 2.26-4.26 2.17 1.49-.73 2.28 17.36 1.52 4.85-3.14 5.86-1.49z" fill="#fff" title="Bulgaria"/>
 <path d="m203.76 558.14-.16.73-.84 1.67 2.6.9 2.4 4.6-1.67 2.05-.95-.48-1.56 2.59.31 3.97-1.91.28-4.31-2.88-.33-3.82-1.84 2.02-2.66-.11.17-2.89-3.27-.62-3.93-5.01-2.34.3-1.58-3.7 5.56-3.01.56 1.42 3.16.41 2.18-1.93 5.42-.89z" fill="#fff" title="Belgium"/>
 <path d="m492.09 648.39 5.96 9.35 6.12 4.6-5.49.75-1.27 7.38-3.42 4.42.1 3.47-1.86.21-4.02-3.81 1.99-1.42-1.26-1.93 1.46-1.37-2.19-2.48-10.14 6.75-.07-5.63-6.07-3.69 2.06-.42.53-1.83-3.43-2.63.89-2.79-3.48-2.04.79-.64-1.26-1.28 1.89-1.42 8.44 3.23.93-1.77-3.3-3.32 1.67-2.11 2.15.71 3.83 4.76 3.19.74zm-16.56 26.16-4.27-1.11-4.47-5.59-.33-.46 1.78-.54.95 1.7 4.12.21z" fill="#fff" title="Azerbaijan"/>
 <path d="m279.09 583.81-.59 2.15 1.9 3.85-.55 2.99-4.34.33 1.71 1.38-1.57 1.35.07 3.89-2.43 1.41-.91 1.83-7.17.7-2.31 2.01-5.73-1.17-8.83-1.79-1.48-3.73-6.23 1.05-1.69 1.95-3.64-.86-.7-1.18-1.45 1.31-3.73-2.03-.35-2.11-.03-2.52 3.02.19 1.42 2.25 1.73-2.71 4.06 1.58 7.86-3.24 5.42 2.39-1.71-6.29 4.14-2.57.76-2.24 1.59.41.62-2.29 1.58 1.67 4.32.04 2.53-4.07 6.67 2.48 3.28-.42z" fill="#fff" title="Austria"/>
 <path d="m478.07 674.31-2.54.24-2.22-5.79-4.12-.21-.95-1.7-1.78.54-3.22-2.95-4.2-.76-.65-3.13 1.03-2.1-1.91-3.45 10.52-1.64 1.26 1.28-.79.64 3.48 2.04-.89 2.79 3.43 2.63-.53 1.83-2.06.42 6.07 3.69z" fill="#fff" title="Armenia"/>
 <path d="m299.54 446.5 1.82 1.22-3.1 2.44-.76-2.52 1.09.64-.17-2.31zm-2.2 2.23-.85.57.1-1.34z" fill="#fff" title="Aland Islands"/>
 <path d="m300.04 642.01 2.84 2.95.55 3.17-.52 5.39 3.2 3.77.45 2.02-2.52 4.45-2.33 1.21-.43 2.64-1.66-.27-1.01-2.93-3.56-3.2.92.02-.82-2.29 1.6-8.71-1.57-2.06-.41-2.75 2.52-4.15.9 1.39z" fill="#fff" title="Albania"/>
 <path d="m269.81 680.2-3.21 6.48 1.32 3.4-1.23 3.09-4.11-.93-1.64-2.08-10.91-4.63-1.37-1.91 2.01-3.1 1.13 1.27 2.62-1.34 3.35 1.79zm-40.04-23.19 1.17 3.38-1.64 11.67-3.41-.63-.6 2.38-2.15.32-1.55-2.41.88-5.52-2.18-9.47 2.34.56 4.42-3.63zm5.14-17.84.16 1.33-1.94-.27zm22.26-34.64-2.16 2.52 1.71.82-1.03 1.63 2.66 3.8-1.04.26-.62-1.76-2.84-.01-6.28 3.13-.33 1.96 2.01 2.6-1.86 2.33 1 4.7 7.87 6.08 3 8.12 3.58 4.06 4.23 2.81 6.71.34-1.78 3.46 13.84 7.64 3.4 3.83-.78 3.51-3.23-4.03-6.31-1.57-2.74 6.24 4 3.2.4 3.32-3.76 1.7-.48 3.37-3.29 3.99-2.77-.79 3.8-7.78-3.48-9.13-5-2.19-1.25-3.79-2.87.62.82-1.15-2.81-.74-2.09-3.78-4.35-.07-9.77-9.4-3.6-1.18.44-1.08-4.4-3.95-2.2-9.08-9.59-4.45-5.12 5.11-3.45 1.02.97-3.71-2.15.25-2.81-1.85.62-4.64-2.41-2.29 3.44-2.99-2.39-3.45 1.55-1.79 5.17.04 4.27-5.09.24 1.95 3.81 3.88 1.59-6.11 5.85 2.31-.28-3.53 2.32.49.15-3.09 3.64.86 1.69-1.95 6.23-1.05 1.48 3.73z" fill="#fff" title="Italy"/>
 <path d="m502.95 620.56-1.28-.78.78-1.38zm-6.42-14.25-4.65-2.62.12-1.48 2.7-.17-5.34-9.26-5.89-.32-1.54-4.94-2.72-1.81.28-4 2.22-3.54-1.55-2.23.59-3.42 4.14-7.39 5.6 5.71 2.86-.73-.91-7.2 4.71-2.54 1.17-2.48 5.05-2.21 3.68-4.75 3.71 2.75 5.9-2.54 2.37 2.47 5.16-.01 5.4 4.75 2.8 5.37.58-5.06 7.04 4.56 5.43-4.65 3.5-.48 2.9 1.88 2.67-2.17 3.51.3 3.53 3.94 3.83.78.48 1.35 3.61-3.79 3.03 1.93 4.84-1.13 2.2-5.88-7.34-3.53-2.69-3.54 6.26-3.95-1.48-3.75 1.84-3.3 6.97-.37-2.85-2.5-3.1-.66.2-1.79 2.06-.87-3.74-1.12 1.69-4.53 4.7.83 17.06-5.03 4.23.51 2.62-3.28 18.04-4.13.34-2.16 5.2-2.7 8.11 2.68 3.75-1.68 3.01 8.27-.62 4.47 6.14.08 1.22-1.38 1.76 4.41 1.18-2.21 4.09 2.02 2.94-1.21-2.43 4.07.69 2.94 3.04-1.95 3.32 1.5 7.31-6.86 9.43-4.06-1.23 3.42-1.56-.07.42 1.48 9.26 8.55 14.33 27.29 2.94-1.83.17-2.54 1.93-1.18 2.64 1.1-.37 2.38 2.13.13.53 2.31 6.92.13 5.82-2.85 3.96 2.35 2.54 5.66 4.49 1.87 1.64 4.64 6.39 1.21 3.33-2.89-.33 2.23 4.69 4.93-3.47.37-1.74 5.32-5.39 1.45-1.5 4.73.88 6.59-1.16 1.89-4.71 2.3-.8-1.4-11.03-2.11-4.81 15.51 1.99 1.64-.6 2.85-3.89-.33-1.7-1.8-12.26 4.43 4.1 1.6-.85 5.81 2.9 8.69-2.66 1.09 1 1.56-2.27 1.27.05 4.96-1.94-2.02-3.32-.64-2.03-2.67-14.41-1.82-10.93 1.26-7.79-3.71-4.4 2.18-.42 5.43-8.2-3.18-6.87.22-2.09 4.42-12.67 7.95-3.84 6.75-3.02-1.78-.75-3.45-8.26.16-1.42-7.33-3.3-.09.62-8.99-2.01 1.05-6.04-7.74-3.12 1.52-8.32-.71-8.2 1.26-6.62-8.42-16.52-11.04-17.38 5.36.01 33.85-3.66.23-3.91-6.01-4.93-3.35-7.18 1.7-3.78 3.32.69-8.9-4.71-1-1.9-2.66-2.16-.14.05-2.85-3.18-6.62-3.89-2.53 1.05-1.53 7.64.88-3.59-3.7 2.73-4.15 12.03.24-2.88-2.3 2.44-5.98-.45-6.49-3.95-1.33-2.32 1.6-6.47-2.78-12.33 5.81z" fill="#fff" title="Kazakhstan"/>
 <path d="m177.09 641.58-.19.06-.62.37-.35.13-.32.06-.25-.03-.14-.21.01-.34-.06-.3-.04-.16.09-.43.2-.23.29-.2.45.08.95.27.2.26.01.18-.18.28z" fill="#fff" title="Andorra"/>
 <path d="m261.91 697.76-.4.13-.4-.25-.1-.15.56-.13.28.11.11.22zm1.7 1.45-.22.27-.65-.01-.57-.42v-.88l.65.17.59.59z" fill="#fff" title="Malta"/>
 <path d="m215.66 630.11-.41.17.01-.2.1-.11.13-.06.15.09z" fill="#fff" title="Monaco"/>
 <path d="m249.02 628.39.29-.44.42-.07.08.34-.2.48-.4.07z" fill="#fff" title="San Marino"/>
 <path d="m128.94 697.55-.02.42-.12-.28.14-.1379z" fill="#fff" title="Gibraltar"/>
 <path d="m249.3 647.06h-.06l-.02-.03.02-.04h.05z" fill="#fff" title="Vatican City"/>
</svg>
