<svg version="1.1" viewBox="0 0 441.54 443.92" xmlns="http://www.w3.org/2000/svg">
 <path class="land" d="m258.11 395.45-.69.15-.71-1.76-1.05-.89.61-1.95.84.12.98 2.55zm-.8-8.69-3.06.5-.2-1.15 1.32-.25 1.85.09zm2.3-.03-.48 2.21-.52-.4.05-1.63-1.26-1.23-.01-.36z" fill="#fff" title="Bahamas"/>
 <path class="land" d="m225.56 413.21-.02-.43.34-.14.51.35 1-1.77.53-.04.01.43.53.01-.04.8-.46 1.27.25.45-.29 1.05.17.27-.32 1.47-.55.78-.51.09-.56 1h-.83l.22-3.28z" fill="#fff" title="Belize"/>
 <path class="land" d="m199.18 96.484-.22-5.9 3.63.58 1.63.96 3.35 4.92-.76 4.97-4.15 2.77-2.28-3.12zm13.21 12.65.33-1.49-1.97-2.45-5.65-.19.75 3.68 5.25.83zm36.35 46.95 3.08 5.1.81.57 3.07-1.27 3.02.2 2.98.28-.25-2.64-4.84-5.38-6.42-1.08-1.35.67zm-65.43-62.7-2.71 4.19 6.24.52 4.61 4.44 4.58 1.5-1.09-5.68-2.14-6.73-7.58-5.35-5.5-2.04.2 5.69zm25.9-10.24 5.13-.12-2.22 4-.04 5.3 3.01 5.76 5.81 1.77 4.96-.99 5.18-10.73 3.85-4.45-3.38-4.97-2.21-10.65-4.6-3.19-4.72-3.68-3.58-9.56-6.52.94 1.23 4.15-2.87 1.25-1.94 5.32-1.94 7.46 1.78 7.26zm-63.75 53.38 3.92 1.95 12.67-1.3-5.82 4.77.36 3.43 4.26-.24 7.07-4.58 9.5-1.67 1.71-5.22-.49-5.57-2.94-.5-2.5 1.93-1.1-4.13-.95-5.7-2.9-1.42-2.57 4.41 4.01 11.05-4.9-.85-4.98-6.79-7.89-4-2.64 3.32zm22.56-42.06-3.65-2.9-1.5-.66-2.88 4.28-.05 2 4.66.01zm-1.46 12.35.93-3.99-3.95-2.12-4.09 1.39-2.27 4.26 4.16 4.21zm29.09 33.24 4.62-1.11 1.28-8.25-.09-5.95-2.14-5.56-.22 1.6-3.94-.7-4.22 4.09-3.02-.37.18 8.92 4.6-.87-.06 6.47zm-3.28 45.61-5.06-3.93-4.71-4.21-.87-6.18-1.76-8.92-3.14-3.84-2.79-1.55-2.47 1.42 1.99 9.59-1.41 3.73-2.29-8.98-2.56-3.11-3.17 4.81-3.9-4.76-6.24 2.87 1.4-4.46-2.87-1.87-7.51 5.84-1.95 3.71-2.35 6.77 4.9 2.32 4.33-.12-6.5 3.46 1.48 3.13 3.98.17 5.99-.67 5.42 1.96-3.66 1.44-3.95-.37-4.33 1.41-1.87.87 3.45 6.35 2.49-.88 3.83 2.15 1.52 3.65 4.99-.73 7.1-1.16 5.26-2.65 3.26-.48 4.82 2.12 5.07 1.22.94-2.86-1.79-3.05 4.6-.64zm7.74-.98-1.96 3.54-2.47 2.49 3.83 3.54 2.28-.85 3.78 2.36 1.74-2.73-1.71-3.03-.84-1.53-1.68-1.46zm-17.61-29.45-2.13-2.17-3.76.4-.95 1.38 4.37 6.75zm28.69 13.17 3.01-6.93 3.34-1.85 4.19-8.74-5.36-2.47-5.84-.36-2.78 2.77-1.47 4.23-.04 4.82 1.75 8.19zm17.15-23 5.76-.18 8.04-1.61 3.59 1.28 4.18-2.26 1.75-2.84-.63-4.52-3-4.23-4.56-.8-5.71.97-4.46 2.44-4.09-.94-3.78-.5-1.78-2.7-3.22-2.61.64-4.43-2.42-3.98-5.52.03-3.11-3.99-5.78-.8-1.06 5.1 3.25 3.74 5.8 1.45 2.81 5.09.34 5.6.97 5.99 7.45 3.42zm-89.02-18.27 5.21-5.05 2.62-.59 2.16-4.23.38-9.77-3.85 1.91-4.3-.18-5.76 8.19-4.76 8.98 3.8 2.51zm72.18 16.17 1.53-4.14-1.02-3.46-2.45-3.92-4.03 3.02-1.49 4.92 3.4 2.79zm-8.31 11.44-.73-2.88-5 1.26-3.34-2.11-3.32 4.8 3.09 6.28-5.72-1.17-.06 3.01 6.97 7.05 1.94 3.38 2.7.73 4.6-3.41.5-8.21-4.24-4.07zm-73.99 153.74-1.16-2.34-2.8-1.77-1.39-2.05-.95-1.5-2.64-.46-1.72-.67-2.94-.96-.24 1.02 1.08 2.38 2.89.78.5 1.23 2.51 1.5.84 1.51 4.6 1.92zm121.7-77.63-2-2.11-2.06.5-.25-3.06-3.21-2.04-3.07-2.27-1.63-1.75-1.43 1.03-.52-2.96-2.03-.55-.96 6.13-.36 5.11-2.44 3.14 3.8-.6.96 3.65 3.99-3.23 2.78-3.38 1.57 2.86 4.36 1.51zm-120.53-52.55 7.38-4.18v-3.87l3.48-6.41 6.88-6.69 3.52-2.47-3.01-4.2-2.72-2.95-7.16-.57-4-2.16-9.48 1.63 2.74 6.23-2.43 6.43-1.94 6.87-1.2 3.86 6.47 4.69zm134.24 27.31.32-1.01-.03-3.17-2.19-2.08-2.57 1.05-1.19 4.17.7 3.56 3.14-.36zm23.82 7.54 4.41 6.6 3.45 2.85 4.92-7.87.87-4.93-4.41-.47-4.03-6.7-4.45-1.64-6.6-4.97 5.15-3.63-2.65-7.54-2.44-3.35-6.77-3.35-2.92-5.55-5.21 1.99-.36-3.86-3.86-4.32-6.22-4.71-2.65 3.71-5.55 2.66.42-6.06-4.81-10.05-7.11 4.06-2.59 7.7-2.21-5.92 2.06-6.37-7.24 2.65-2.88 3.99-2.15 8.42.89 9.05 3.98.04-2.93 3.92 2.33 2.96 4.55 1.25 5.93 2.42 10.2 1.82 5.08-1.04 1.5-2.42 2.21 2.79 2.47.46 2.97 4.96-1.8 1.98 5.68 2.63 4.29 3.68 1.08 2.55.77 3.24-3.63 6.93-.98 3.44.94 2.42-5.77.86-5.27.12-1.85 4.87 2.37 2.23 8.11-1.03-.04-1.89 4.08 3.15 4.18 3.28-.98 1.77 3.4 3.02 6.02 3.53 7.6 2.39-.46-2.09-2.92-3.67-3.96-5.37 7.03 5 3.54 1.66.97-4.44-1.82-6.3-1.16-1.73-3.81-3.03-2.95-3.91.35-3.94zm-65.83-161.56 2.34 7.29 4.96 5.88 9.81-1.09 6.31 1.97-4.38 6.05-2.21-1.78-7.66-.71 1.19 8.31 3.96 6.04-.8 5.2-4.97 3.46-2.27 5.47 4.55 2.65 3.82 8.55-7.5-5.7-1.71.94 1.38 9.38-5.18 2.83.35 5.85 5.3.63 4.17 1.44 8.24-1.84 7.33 3.27 7.49-7.19-.06-3.02-4.79.48-.39-2.84 3.92-3.83 1.33-5.15 4.33-3.83 2.66-4.76-2.32-7.1 1.94-2.65-3.86-1.89 8.49-1.63 1.79-3.15 5.78-2.6 4.8-13.47 4.57-4.94 6.62-11.12-6.1.1 2.54-4.3 6.78-3.99 6.84-8.9.12-5.73-5.13-6.04-6.02-2.93-7.49-1.82-6.07-1.49-6.07-1.5-8.1 3.98-1.49-2.53-8.57.98-5.03 2.57-3.7 3.65-2.13 11.74-3.06-6.01-3.48-1.14-4.12 7.97-5.5 3.35-3.27.66-4.17 3.84.61 6.65zm74.4 265-.98-1.98-1.06 1.26.7 1.36 3.56 1.71 1.04-.26 1.38-1.66-2.6.11zm-57-77.86.61 1.63 1.98.14 3.28-3.34.06-1.19-3.85-.06zm62.13 66.44-2.87-1.8-3.69-1.09-.97.37 2.61 2.04 3.63 1.34 1.36-.08zm24.88 4.79-.36-2.24-1.96.72.87-3.11-2.8-1.32-1.29 1.05-2.49-1.18.98-1.51-1.88-.93-1.83 1.47 1.86-3.82 1.5-2.8.54-1.22-1.3-.2-2.43 1.55-1.74 2.53-2.9 6.92-2.35 2.56 1.22 1.14-1.75 1.47.43 1.23 5.44.13 3.01-.25 2.69 1.01-1.98 1.93 1.67.14 3.25-3.58.78.53-.61 3.37 1.84.77 1.27-.15 1.18-3.61zm-21.19 4.76-2.81 4.56-4.63.58-3.64-2.01-.92-3.07-.89-4.46 2.65-2.83-2.48-2.09-4.19.43-5.88 3.53-4.5 5.45-2.38.67 3.23-3.8 4.04-5.57 3.57-1.9 2.35-3.11 2.9-.3 4.21.03 6 .92 4.74-.71 3.53-3.62 4.62-1.59 2.01-1.58 2.04-1.71-.2-5.19-1.13-1.77-2.18-.63-1.11-4.05-1.8-1.55-4.47-1.26-2.52-2.82-3.73-2.83 1.13-3.2-3.1-6.26-3.65-6.89-2.18-4.98-1.86 2.61-2.68 6.05-4.06 2.97-2.03-3.16-2.56-.85-.93-6.99.08-4.8-5-.44-.85-2.27-3.45-3.44-2.61-2.04-2.32 1.58-2.88-.58-4.81-1.65-1.95 1.4.94 9.18 1.22 5.12-3.31 5.75 3.41 4.02 1.9 4.44.23 3.42-1.55 3.5-3.18 3.46-4.49 2.28 1.98 2.53 1.46 7.4-1.52 4.68-2.16 1.46-4.17-4.28-2.03-5.17-.87-4.76.46-4.19-3.05-.47-4.63-.28-2.97-2.08-3.51-1.37-2.01-2.38-2.8-1.94-5.21-2.23-3.92 1.02-1.31-3.95-1.26-4.99-4.12-.9.15-6.41 1.09-4.48 3.04-6.6 3.43-4.9 3.26-.77.19-4.05 2.21-2.68 4.01-.42 3.25-4.39.82-2.9 2.7-5.73.84-3.5 2.9 2.11 3.9-1.08 5.49-4.96.36-3.54-1.98-3.98 2.09-4.06-.17-3.87-3.76-3.95-4.14-1.19-3.98-.62-.15 8.71-2.04 6.56-2.93 5.3-2.71-4.95.84-5.61-3.35-5.02-3.75 6.09.01-7.99-5.21-1.63 2.49-4.01-3.81-9.59-2.84-3.91-3.7-1.44-3.32 6.43-.22 9.34 3.27 3.29 3 4.91-1.27 7.71-2.26-.2-1.78 5.88.02-7-4.34-2.58-2.49 1.33.32 4.67-4.09-.18-4.35 1.17-4.95-3.35-3.13.6-2.82-4.11-2.26-1.84-2.24.77-3.41.35-1.81 2.61 2.86 3.19-3.05 3.72-2.99-4.42-2.39 1.3-7.57.87-5.07-1.59 3.94-3.74-3.78-3.9-2.75.5-3.86-1.32-6.56-2.89-4.29-3.37-3.4-.47-1.06 2.36-3.44 1.31-.38-6.15-3.73 5.5-4.74-7.32-1.94-.89-.63 3.91-2.09 1.9-1.93-3.39-4.59 2.05-4.2 3.55-4.17-.98-3.4 2.5-2.46 3.28-2.92-.72-4.41-3.8-5.23-1.94-.02 27.65-.01 35.43 2.76.17 2.73 1.56 1.96 2.44 2.49 3.6 2.73-3.05 2.81-1.79 1.49 2.85 1.89 2.23 2.57 2.42 1.75 3.79 2.87 5.88 4.77 3.2.08 3.12-1.56 2.35.06 2.48 3.39 3.45.49 3.76 3.59 1.96-.4 2.79 1.56 3.96 5.08 1.82 2 1.89 5.43 4.23.38.01h77.61l.01-1.64.95-.02.5 2.35.87.72 1.96.26 2.86.67 2.72 1.3 2.27-.55 3.45 1.09 1.14-1.66 1.59-.66.62-1.03.63-.55 2.61.86 1.93.1.67.57.94 2.38 3.15.63-.49 1.18 1.11 1.21-.48 1.56 1.18.51-.59 1.37.75.13.53-.6.55.9 2.1.5 2.13.04 2.27.41 2.51.78.91 1.26 1.82 3.04-.9 1.3-2.28-.54-1.42-2.44.36 2.49-1.34 2.17.15 1.84-.23 1.07-1.81 1.27-1.32 2.09-.62 1.32 1.54.24 2.08-1.2 1.23-1.06.83-.17 1.54.38.75-.59 1.37-.48 2.44-.47-.25-1.15-.13.04-.86.2-1.12-.36.84-1.32.85-.46 1.98-.56 2.37-.53 1.24.73.78-.85.89-.54.6.29.03.06 2.87-2.73 1.27-.73 4.26-.03h5.17l.28-.98.9-.2 1.19-.62 1-1.82.86-3.15 2.14-3.1.93 1.08 1.88-.7 1.25 1.19v5.52l1.83 2.25 3.12-.48 4.49-.13-4.87 3.26.11 3.29 2.13.28 3.13-2.79 2.78-1.58 6.21-2.35 3.47-2.62-1.81-1.46zm-53.66-71.1 1.1-3.12-.71-1.23-1.15-.13-1.08 1.8-.13.41.74 1.77zm-142.66 36.43 1.56-2.35z" fill="#fff" title="Canada"/>
 <path class="land" d="m242.88 440.65-1.52-.63-.57-.59.32-.49-.1-.62-.78-.68-1.1-.55-.97-.36-.18-.83-.74-.51.18.83-.56.67-.64-.78-.9-.28-.38-.57.02-.86.37-.9-.79-.4.64-.54.42-.37 1.85.75.64-.37.89.24.47.58.82.19.67-.6.72 1.54 1.08 1.14 1.32 1.21-1.09.25.02 1.13.58.42-.42.34.11.51-.23.57z" fill="#fff" title="Costa Rica"/>
 <path class="land" d="m244.83 397.19 2.43.22 2.2.03 2.63 1.03 1.12 1.11 2.62-.34.99.7 2.38 1.87 1.74 1.35.92-.04 1.68.61-.21.84 2.07.12 2.12 1.22-.33.69-1.87.38-1.89.15-1.93-.24-4.01.29 1.88-1.66-1.14-.77-1.81-.2-.97-.86-.67-1.7-1.58.11-2.62-.8-.84-.63-3.65-.47-.98-.59 1.05-.75-2.75-.15-2.01 1.56-1.17.04-.4.74-1.38.33-1.2-.29 1.48-.93.6-1.09 1.27-.67 1.43-.59 2.13-.29z" fill="#fff" title="Cuba"/>
 <path class="land" d="m274.43 407.6.35-.51 2.19.02 1.66.76.74-.08.51 1.05 1.53-.06-.09.88 1.25.11 1.38 1.08-1.04 1.2-1.34-.64-1.28.12-.92-.14-.51.54-1.08.18-.42-.72-.93.43-1.12 2-.72-.46-.15-.84.06-.8-.72-.88.68-.5.22-1.13z" fill="#fff" title="Dominican Republic"/>
 <path class="land" d="m344.38 24.164 9.42-13.61 9.84 1.07 3.57-8.95 9.91-2.42 22.4 3.15 17.54 18.59-5.18 8.3-10.73.93-15.09 2.03 1.41 3.64 9.93-2.24 8.44 6.91 5.45-6.12 2.33 7.15-3.08 10.97 7.14-6.93 13.61-7.55 8.41 3.81 1.57 8.12-11.43 12.66-1.58 3.9-8.96 2.86 6.49.79-3.28 11.51-2.26 9.59.09 15.26 3.37 8.34-4.38.51-4.61 3.88 5.17 6.3.66 9.62-3 1.02 3.63 9.15-6.22.75 3.25 4.14-.92 3.51-3.95 1.51-3.91.03 3.51 6.48.04 4.13-5.55-3.83-1.44 2.49 3.78 2.29 3.68 5.48 1.06 6.95-5 1.62-2.16-3.26-3.47-4.98.96 5.87-3.25 4.41 7.38.35 3.87.45-7.52 7.03-7.62 6.13-8.2 2.61-3.09.04-2.9 2.87-3.9 7.63-6.03 4.89-1.94.29-3.74 1.67-4.02 1.59-2.41 4.12-.04 4.56-1.41 4.16-4.58 4.95 1.13 4.71-1.26 4.85-1.43 5.56-3.95.34-4.14-4.63-5.61-.03-2.72-3.18-1.87-5.8-4.86-7.68-1.42-4.15-.38-5.89-3.89-6.27 1.01-5.17-1.87-2.53 2.77-8.65 4.22-2.85 1.11-3.26.59-6.26-3.21 2.86-1.52 1.19-2.52 1.14-3.44-2.61-.19-5.55 1.1-4.48 2.6-.12 5.72 2.25-4.82-5.43-2.51-3.01-2.79 1.24-2.34-2.19 3.13-8.5-1.7-3.53-2.23-6.74-3.37-10.91-3.57-4.17.03-4.63-7.53-6.69-5.95-.85-7.49.47-6.84.86-3.26-3.75-4.87-7.66 7.36-3.97 5.65-.68-12-3.36-6.32-5.44.39-5.34 10.61-6.87 10.27-7.16 1.08-5.64-7.56-5.76 2.44-6.64 9.71-12.33 4.08-1.98-1.17-8.57 6.64-5.24 8.62-3.21 8.62-.18 3.06 6.3 7.44-11.32 6.69 7.78 3.93 1.59 5.83 6.41-6.67-10.77z" fill="#fff" title="Greenland"/>
 <path class="land" d="m222.89 425-1.44-.5-1.75-.05-1.28-.57-1.51-1.18.07-.84.32-.68-.39-.54 1.35-2.36 3.59-.01.08-.98-.46-.18-.31-.63-1.04-.67-1.04-.98h1.27v-1.65h2.62l2.59.03-.02 2.31-.22 3.28h.83l.92.53.24-.44.82.37-1.27 1.11-1.33.81-.2.55.22.56-.58.74-.66.17.15.34-.52.32-.96.72z" fill="#fff" title="Guatemala"/>
 <path class="land" d="m230.68 427.15-.48-.89-.86-.25.2-1.15-.38-.31-.58-.2-1.23.34-.1-.39-.85-.46-.6-.57-.83-.24.58-.74-.22-.56.2-.55 1.33-.81 1.27-1.11.29.12.62-.51.8-.04.26.23.44-.14 1.3.26 1.3-.08.9-.32.33-.32.89.15.67.2.73-.07.56-.25 1.28.4.45.06.85.54.81.65 1.02.44.74.8-.96-.06-.39.39-.97.38h-.71l-.62.37-.56-.13-.48-.44-.29.08-.36.69-.27-.03-.05.6-.98.79-.51.34-.29.36-.83-.58-.6.76-.59-.02-.66.07.06 1.41-.41.02-.35.66z" fill="#fff" title="Honduras"/>
 <path class="land" d="m270.29 407 1.71.13 2.43.47.25 1.61-.22 1.13-.68.5.72.88-.06.8-1.86-.5-1.32.2-1.71-.21-1.31.55-1.51-.92.25-.95 2.58.41 2.12.24 1.01-.66-1.28-1.27.02-1.13-1.77-.46z" fill="#fff" title="Haiti"/>
 <path class="land" d="m258.01 411.21 1.89.26 1.49.71.46.8-1.97.05-.85.49-1.57-.47-1.6-1.07.33-.67 1.18-.2z" fill="#fff" title="Jamaica"/>
 <path class="land" d="m203.14 388.97-1.09 2.71-.49 2.21-.21 4.08-.27 1.47.49 1.64.87 1.47.56 2.31 1.86 2.21.65 1.69 1.1 1.45 2.98.79 1.16 1.22 2.46-.82 2.13-.29 2.1-.53 1.77-.51 1.78-1.2.67-1.73.23-2.49.49-.87 1.89-.79 2.97-.69 2.48.1 1.7-.25.67.63-.09 1.44-1.51 1.77-.66 1.81.51.51-.42 1.28-.7 2.29-.71-.75-.59.05-.53.04-1 1.77-.51-.35-.34.14.02.43-2.59-.03h-2.62v1.65h-1.27l1.04.98 1.04.67.31.63.46.18-.08.98-3.59.01-1.35 2.36.39.54-.32.68-.07.84-3.17-3.11-1.45-.94-2.29-.76-1.56.21-2.26 1.09-1.41.29-1.98-.76-2.1-.56-2.62-1.33-2.1-.41-3.18-1.35-2.34-1.4-.71-.78-1.57-.17-2.87-.93-1.17-1.34-3.01-1.67-1.4-1.87-.67-1.45.93-.29-.29-.85.65-.77.01-1.04-.94-1.34-.26-1.2-.94-1.52-2.47-3.02-2.82-2.39-1.36-1.91-2.41-1.26-.51-.76.43-1.92-1.43-.73-1.66-1.52-.7-2.19-1.51-.26-1.62-1.66-1.32-1.55-.12-1-1.51-2.42-.99-2.48.04-1.25-2.03-1.29-.93.14-1.6-.9-.45 1.33.46 1.56.27 2.43.97 1.33 2.08 2.21.46.75.43.22.36 1.1.5-.05.57 2.04.85.8.59 1.11 1.77 1.6.93 2.89.83 1.35.78 1.44.15 1.62 1.35.1 1.13 1.39 1.02 1.36-.07.54-1.18 1.11-.5-.01-.74-1.85-1.83-1.73-2.02-1.48-1.44-.78.09-2.25-.42-1.68-1.34-.96-1.93-1.39-.37.4-.7-.82-1.73-.75-1.65-1.83.2-.24 1.15.18 1.04-1.18.11-1.43-2.16-2.27-1.64-.89-1.04-2.01-1.04-2.12-1.3-2.61-1.14-2.96 3.19-.25 3.56-.36-.26.64 4.23 1.61 6.4 2.31 5.58-.03h2.22v-1.35h4.86l1.02 1.17 1.44 1.03 1.66 1.43.93 1.69.7 1.76 1.45.97 2.33.96 1.76-2.53 2.3-.06 1.97 1.28 1.41 2.18.97 1.86 1.65 1.8.62 2.19.79 1.47 2.18.96 1.99.68z" fill="#fff" title="Mexico"/>
 <path class="land" d="m235.18 432.56-.97-.9-1.31-1.15-.62-.96-1.18-.89-1.41-1.29.31-.44.47.43.21-.21.87-.11.35-.66.41-.02-.06-1.41.66-.07.59.02.6-.76.83.58.29-.36.51-.34.98-.79.05-.6.27.03.36-.69.29-.08.48.44.56.13.62-.37h.71l.97-.38.39-.39.96.06-.24.28-.14.64.28 1.05-.64.98-.3 1.15-.1 1.27.16.73.07 1.29-.43.28-.26 1.22.19.75-.58.73.14.76.42.47-.67.6-.82-.19-.47-.58-.89-.24-.64.37-1.85-.75z" fill="#fff" title="Nicaragua"/>
 <path class="land" d="m257.13 443.46-.93-.81-.6-1.52.69-.75-.71-.19-.52-.93-1.4-.78-1.23.18-.56.98-1.14.7-.61.1-.27.59 1.33 1.52-.76.36-.41.42-1.3.14-.49-1.68-.36.48-.93-.16-.56-1.14-1.15-.18-.73-.33h-1.2l-.09.61-.32-.42.15-.56.23-.57-.11-.51.42-.34-.58-.42-.02-1.13 1.09-.25 1 1.01-.06.6 1.12.12.27-.23.77.7 1.38-.21 1.19-.71 1.7-.57.96-.84 1.55.16-.11.28 1.57.1 1.25.49.91.84 1.06.78-.34.42.65 1.65-.53.84-.91-.2z" fill="#fff" title="Panama"/>
 <path class="land" d="m289.66 411.14 1.43.26.51.58-.72.74-2.11-.02-1.64.1-.16-1.25.39-.43z" fill="#fff" title="Puerto Rico"/>
 <path class="land" d="m229.34 426.01-.31.67-1.62-.04-1.01-.27-1.16-.57-1.56-.18-.79-.62.09-.42.96-.72.52-.32-.15-.34.66-.17.83.24.6.57.85.46.1.39 1.23-.34.58.2.38.31z" fill="#fff" title="El Salvador"/>
 <path class="land" d="m109.5 280.05-1.54-1.83-2.47-1.57-.79-4.36-3.61-4.13-1.51-4.94-2.69-.34-4.46-.13-3.29-1.54-5.8-5.64-2.68-1.05-4.9-1.99-3.88.48-5.51-2.59-3.33-2.43-3.11 1.21.58 3.93-1.55.36-3.24 1.16-2.47 1.86-3.11 1.16-.4-3.24 1.26-5.53 2.98-1.77-.77-1.46-3.57 3.22-1.91 3.77-4.04 3.95 2.05 2.65-2.65 3.85-3.01 2.21-2.81 1.59-.69 2.29-4.38 2.63-.89 2.36-3.28 2.13-1.92-.38-2.62 1.38-2.85 1.67-2.33 1.63-4.81 1.38-.44-.81 3.07-2.27 2.74-1.51 2.99-2.71 3.48-.56 1.38-2.06 3.89-3.05.63-1.03 2.07-1.83.48-4 1.43-3.17-3.23 1.64-.9-.93-1.52 1.95-1.83-2.73-.76 1.94-1.05-2.7-2.8 2.17h-1.72l-.24-3.23.51-2.02-1.81-1.98-3.65 1.07-2.37-2.63-1.92-1.36-.01-3.25-2.16-2.48 1.08-3.41 2.29-3.37 1-3.15 2.27-.45 1.92.99 2.26-3.01 2.04.54 2.14-1.96-.52-2.92-1.57-1.16 2.08-2.52-1.72.07-2.98 1.43-.85 1.43-2.21-1.43-3.97.73-4.11-1.56-1.18-2.65-3.55-3.91 3.94-2.87 6.25-3.41h2.31l-.38 3.48 5.92-.27-2.28-4.34-3.45-2.72-1.99-3.64-2.69-3.17-3.85-2.38 1.57-4.03 4.97-.25 3.54-3.58.67-3.92 2.86-3.91 2.73-.95 5.31-3.76 2.58.57 4.31-4.61 4.24 1.83 2.03 3.87 1.25-1.65 4.74.51-.17 1.95 4.29 1.43 2.86-.84 5.91 2.64 5.39.78 2.16 1.07 3.73-1.34 4.25 2.46 3.05 1.13-.02 27.65-.01 35.43 2.76.17 2.73 1.56 1.96 2.44 2.49 3.6 2.73-3.05 2.81-1.79 1.49 2.85 1.89 2.23 2.57 2.42 1.75 3.79 2.87 5.88 4.77 3.2.08 3.12zm175.93 34.43-1.25-1.19-1.88.7-.93-1.08-2.14 3.1-.86 3.15-1 1.82-1.19.62-.9.2-.28.98h-5.17l-4.26.03-1.27.73-2.87 2.73.29.54.17 1.51-2.1 1.27-2.3-.32-2.2-.14-1.33.44.25 1.15.05.37-2.42 2.27-2.11 1.09-1.44.51-1.66 1.03-2.03.5-1.4-.19-1.73-.77.96-1.45.62-1.32 1.32-2.09-.14-1.57-.5-2.24-1.04-.39-1.74 1.7-.56-.03-.14-.97 1.54-1.56.26-1.79-.23-1.79-2.08-1.55-2.38-.8-.39 1.52-.62.4-.5 1.95-.26-1.33-1.12.95-.7 1.32-.73 1.92-.14 1.64.93 2.38-.08 2.51-1.14 1.84-.57.52-.76.41-.95.02-.26-.25-.76-1.98-.02-.98.08-.94-.35-1.87.53-2.18.63-2.71 1.46-3.03-.42.01-2.06 2.54-.38-.46 1.1-1.42 1.67-2.57 1.91-.36 2.19-.8 2.21.42.09.02 2.47-.36-1.4-1.61-.75-.13-.86-.16-.59-1.14-2.75.36-2.49.9-1.97-1.55-1.59-.52.9-2.17-2.48 1.37-2.25 1.33-2.16 1.04-1.72-1.4-2.81.85.01-.6 1.9-1.73 1.99-1.65 2.86-1.37-3.45-1.09-2.27.55-2.72-1.3-2.86-.67-1.96-.26-.87-.72-.5-2.35-.95.02-.01 1.64h-77.61l.95 3.47.45 3.41-.69 1.09-1.49-3.91-4.05-1.42-.34.82.82 1.94.89 3.53.51 5.42-.34 3.59-.34 3.54-1.1 3.61.9 2.9.1 3.2-.61 3.05 1.49 1.99.39 2.95 2.17 2.99 1.24 1.17-.1.82 2.34 4.85 2.72 3.45.34 1.87.71.55 2.6.33 1 .91 1.57.17.31.96 1.31.4 1.82 1.92.47 1.7 3.19-.25 3.56-.36-.26.65 4.23 1.6 6.4 2.31 5.58-.02h2.22l.01-1.35h4.86l1.02 1.16 1.43 1.03 1.67 1.43.93 1.69.7 1.77 1.45.97 2.33.96 1.77-2.53 2.29-.06 1.98 1.28 1.41 2.18.97 1.86 1.65 1.8.62 2.19.79 1.47 2.19.96 1.99.68 1.09-.09-.53-1.06-.14-1.5.03-2.16.65-1.42 1.53-1.51 2.79-1.37 2.55-2.37 2.36-.75 1.74-.23 2.04.74 2.45-.4 2.09 1.69 2.03.1 1.05-.61 1.04.47.53-.42-.6-.63.05-1.3-.5-.86 1.16-.5 2.14-.22 2.49.36 3.17-.41 1.76.8 1.36 1.5.5.16 2.83-1.46 1.09.49 2.19 2.68.79 1.75-.58 2.1.42 1.23 1.3 2.4 1.49 2.68 1.07.71.44 1.35 1.38.37.84-.39.7-1.89.12-1.21.09-2.1-1.33-3.65-.02-1.37-1.25-2.25-.94-2.75-.5-2.25.43-2.31 1.32-1.94 1.58-1.57 3.08-2.16.4-1.12 1.42-1.23 1.4-.22 1.84-1.98 2.9-1.01 1.78-2.53-.39-3.46-.29-1.21-.8-.24-.12-3.35-1.93-1.14 1.85.56-.6-2.26.54-1.55.33 2.97 1.43 1.36-.87 2.4.26.14 1.58-2.81.9-1.38-.04-1.35-.7-.64-.58-1.94.92.9.62.19.21.92 2.04-2.78.61-2.62-.83-.17.85-1.02-.08.45 1.79-.01 3.93-1.11-.83-.7-4.12.7 2.34-1.07 1.63-.18 1.22-.19 2.07-.65 1.35.07 1.89-.61.22-1.07-.84-.84.29 1.37-1.16-.09-.93-1.99.03-2.01.48-.86 1.48-2.28 2.96-1.15 2.88-1.34 2.99-1.9-.48-1.29-1.83-2.25zm-239.56-50.44-1.5.8-2.55 1.86.43 2.42 1.43 1.32 2.8-1.95 2.43-2.47-1.19-1.63zm-45.62-28.57 2.04-1.26.23-.68-2.27-.67zm8.5 15.37-2.77.97 1.7 1.52 1.84 1.04 1.72-.87-.27-2.15zm97.35 32.5-2.69.38-1.32-.62-.17 1.52.52 2.07 1.42 1.46 1.04 2.13 1.69 2.1 1.12.01-2.44-3.7zm-68.72 120.68-1-.28-.27.26.02.19.32.24.48.63.94-.21.23-.36zm-2.99-.54 1.5.09.09-.32-1.38-.13zm5.89 3.29-.5-.26-1.07-.5-.21-.06-.16.28.19.58-.49.48-.14.33.46 1.08-.08.83.7.42.41-.49.9-.46 1.1-.63.07-.16-.71-1.04zm-7.86-5.14-.75.41.11.12.36.68.98.11.2.04.15-.17-.81-.99zm-4.4-1.56-.43.3-.15.22.94.55.33-.3-.06-.7z" fill="#fff" title="United States"/>
</svg>
